<svg xmlns="http://www.w3.org/2000/svg" width="84" height="74" fill="none" viewBox="0 0 84 74">
  <path fill="#008367" fill-rule="evenodd" d="M49.327 34.029l.008-.014c.105.06.108.155.105.264-.01.436-.138.831-.375 1.194-.31.48-.667.925-1.025 1.372-.316.394-.633.79-.919 1.21l-.078-.03a.627.627 0 01-.113-.047c-2.428-1.466-4.853-2.931-7.13-4.626-1.201-.891-2.283-1.85-2.845-3.276a1.42 1.42 0 00-.13-.239l-.04-.064a5.387 5.387 0 01-.608-1.402c-.424-1.514-1.22-2.754-2.683-3.48a7.822 7.822 0 01-.5-.28c-.122-.073-.244-.146-.37-.213l-.11-.06h-.001c-2.67-1.439-5.345-2.88-8.064-4.23-1.633-.811-3.19-1.756-4.747-2.701-.899-.546-1.798-1.092-2.712-1.611-.696-.396-1.383-.808-2.07-1.22-.995-.596-1.99-1.193-3.016-1.74-.958-.514-1.828-.44-2.722.11-1.152.711-2.075 1.666-2.888 2.73-1.01 1.324-1.905 2.73-2.757 4.16C2.091 22.27.932 24.828.29 27.596A6.355 6.355 0 01.174 28c-.108.35-.216.702-.158 1.048.145.877.326 1.757.676 2.592.137.33.267.664.397.998.377.967.754 1.936 1.324 2.81 1.106 1.698 2.393 3.262 3.892 4.64.396.366.753.771 1.025 1.24.627 1.072 1.364 2.062 2.102 3.055l.033.044a14.165 14.165 0 003.998 3.667c.777.472 1.548.959 2.223 1.579 2.1 1.923 4.129 3.913 5.92 6.133l.255.315v.002h.002c.613.764 1.227 1.529 1.95 2.19 1.735 1.59 2.937 1.561 4.574.42.562-.395 1.11-.814 1.435-1.459 1.449 1.533 1.877 1.67 3.223 2.093 1.39.437 1.977 1.944 1.846 3.022-.446 3.664-.541 7.345-.527 11.033.004.455.141.581.604.578.658-.007.757-.081.764-.567l.005-.337.01-.755v-.002c.016-1.081.031-2.163.052-3.243.014-.69.07-.729.735-.61.37.067.737.15 1.104.233.572.13 1.144.26 1.728.325 1.428.162 2.803-.106 4.164-.543 2.725-.874 4.73-2.596 6.133-5.051.236-.413.395-.86.46-1.336.13-.965-.202-1.24-1.079-.852-1.209.532-2.453.824-3.779.694-.469-.045-.94-.047-1.411-.05-.197-.001-.393-.002-.59-.006-2.435-.053-4.386.982-6.03 2.687a14.7 14.7 0 00-1.24 1.501c-.336-2.152 1.551-11.473 2.59-12.9a.272.272 0 00.018.029c.015.022.03.044.032.066l.01.077c.022.176.044.354.05.533.064 1.532.64 2.814 1.806 3.846.697.617 1.492.93 2.408.97.742.03 1.19-.318 1.343-1.044a5.807 5.807 0 00.081-1.641c-.071-.946-.202-1.884-.333-2.822V53.2c-.09-.645-.18-1.29-.25-1.936-.082-.761-.152-1.522-.127-2.276.114-.048.193-.011.268.023a.899.899 0 00.053.023c2.178.817 4.387 1.529 6.688 1.91.7.112 1.23.337 1.456 1.063.05.157.143.3.238.444.04.063.082.126.12.19l1.076 1.833a522.913 522.913 0 002.847 4.814c.19.316.377.635.564.953.5.85.999 1.702 1.575 2.507.434.605.837.729 1.527.443.268-.112.537-.24.799-.377C68.198 58.916 75.558 55 82.84 50.941c.244-.138.484-.293.703-.465.492-.384.57-.821.315-1.392-.154-.346-.345-.673-.535-1-.068-.115-.135-.23-.2-.345a440.02 440.02 0 01-2.241-3.98c-.499-.896-1.014-1.782-1.53-2.668-.804-1.383-1.609-2.765-2.348-4.184a4.793 4.793 0 00-.608-.93c-.431-.5-.993-.63-1.59-.36-.456.205-.909.42-1.354.645-4.14 2.092-8.244 4.255-12.347 6.417h-.002v.001l-2.53 1.332c-.586.306-.982.289-1.572-.029-2.832-1.51-5.567-3.177-8.275-4.892a2.45 2.45 0 00-.13-.075c-.143-.08-.29-.162-.372-.327a.562.562 0 00.016-.026l.014-.026a.338.338 0 01.055-.082c1.544-1.62 2.74-3.48 3.74-5.467.095-.187.247-.282.441-.338.57-.17 1.156-.24 1.75-.215 2.337.099 4.666.01 6.999-.183 1.813-.152 3.418-.715 4.821-1.888 1.609-1.342 2.648-3.069 3.503-4.935a1.42 1.42 0 00.117-.483c.042-.557-.378-.905-.916-.736-.25.079-.49.182-.73.286-.113.048-.226.097-.34.143l-.078.032c-.9.37-1.803.741-2.793.8-.459.027-.918.05-1.378.074-.656.034-1.312.067-1.966.113-3.043.214-5.68 1.3-7.713 3.649a.48.48 0 00-.024.032l-.008.011c-.045.064-.095.135-.212.115.066-.234.13-.469.192-.703.137-.507.272-1.012.434-1.509.317-.968.475-1.968.632-2.967.12-.753.238-1.506.425-2.246.038-.156.062-.316.087-.478.036-.24.072-.484.157-.716.544-1.487 1.184-2.928 2.206-4.15.791-.951 1.265-2.033 1.576-3.206.022-.081.048-.162.075-.242.022-.066.044-.132.063-.198.364-1.25.548-2.54.4-3.83-.375-3.296-1.63-6.27-3.539-8.975L56.2.303C56.112.177 56.02.044 55.806 0c-.16 1.723-.894 3.21-1.665 4.692-.122.236-.25.469-.377.702-.339.621-.678 1.242-.927 1.908-.693 1.857-.806 3.766-.541 5.71.127.937.47 1.807.815 2.677.174.439.347.878.493 1.325.051.158.113.314.174.47.178.452.356.905.296 1.408-.065.533-.125 1.068-.185 1.603-.17 1.51-.34 3.022-.614 4.512a28.848 28.848 0 01-2.135 6.756l-.052.121c-.066.157-.134.316-.277.426-.087-.041-.089-.112-.09-.179l-.002-.026-.04-.528a48.097 48.097 0 01-.115-1.73c-.163-4.068-1.898-7.26-5.316-9.518-.364-.24-.647-.546-.792-.958l-.015-.043c-.119-.349-.238-.698-.286-1.067-.032-.246-.095-.521-.417-.493-.343.032-.346.32-.346.585 0 .05 0 .102.01.151.227 1.085.264 2.185.3 3.285.015.446.03.892.057 1.337.163 2.66 1.34 4.798 3.4 6.457l.27.215c.535.425 1.07.849 1.502 1.374.919 1.115 1.007 1.777.404 2.843h-.001c-.014.007-.007.014-.007.014zM20.44 50.373c-.136.209-.268.412-.354.642-.237.637-.308 1.236.315 1.733.167.134.31.3.451.467.068.079.136.158.206.234.563.61 1.079 1.262 1.594 1.913.558.705 1.117 1.41 1.736 2.064.396.42.845.74 1.371.965.29.123.566.134.856.021.72-.282 1.364-.697 1.83-1.3.489-.634.863-1.395.669-2.215-.548-2.34-1.51-4.485-3.284-6.186-1.113-1.067-2.305-2.044-3.496-3.02l-.001-.001c-.503-.413-1.007-.825-1.505-1.245-2.096-1.768-3.962-3.72-5.037-6.298l-.018-.043-.008-.018c-.078-.18-.154-.354-.062-.566.23-.052.402.056.583.168l.018.011c.717.451 1.198 1.106 1.608 1.828.36.634.851 1.152 1.354 1.684.169.178.339.357.505.543a7.365 7.365 0 012.075-1.888c-.09-.112-.192-.146-.29-.179-.025-.008-.05-.016-.074-.026-.516-.2-1.018-.422-1.506-.687-.141-.077-.265-.172-.233-.355.032-.173.163-.254.318-.296.358-.097.7.002 1.037.099l.059.017c.3.086.6.18.898.274.325.102.65.205.979.297 2.163.613 4.298 1.3 6.363 2.19.439.19.872.393 1.306.596.518.243 1.036.486 1.564.705 1.844.762 3.625 1.66 5.403 2.557l.433.218c1.916.962 3.856 1.87 5.843 2.663 3.506 1.403 7.158 2.283 10.908 2.734a4.918 4.918 0 003.28-.73c.368-.228.65-.535.845-.922.177-.349.128-.497-.24-.662a3.882 3.882 0 00-.65-.236 91.373 91.373 0 01-6.918-2.1c-2.973-1.036-5.843-2.247-8.459-4.002a45.6 45.6 0 01-1.163-.814c-.481-.344-.961-.688-1.456-1.007-2.294-1.483-4.362-3.237-6.278-5.171-.209-.208-.41-.426-.548-.69-.099-.19-.162-.395.025-.564.194-.176.406-.12.604.007.085.056.16.127.234.197 1.693 1.607 3.414 3.178 5.355 4.492.742.503 1.485 1.01 2.22 1.525 1.544 1.081 3.124 2.1 4.814 2.955 1.896.959 3.888 1.666 5.88 2.373h.001c.594.211 1.188.422 1.779.64.03.01.063.023.095.036.151.06.315.126.464.048.482-.25.957-.511 1.43-.773l.549-.302c-.051-.11-.13-.138-.201-.164l-.028-.01a.413.413 0 01-.036-.016l-.137-.066c-1.454-.704-2.908-1.408-4.3-2.238-.787-.471-1.563-.963-2.338-1.455-1.043-.663-2.087-1.325-3.161-1.937-4.348-2.473-8.477-5.256-12.181-8.63-.386-.35-.714-.737-.948-1.198-.222-.447-.205-.814.057-.933.359-.167.535.075.705.306.02.03.041.057.062.084.304.395.668.72 1.16.997-.035-.097-.068-.185-.1-.268v-.001c-.059-.157-.111-.296-.148-.439-.368-1.42-1.114-2.543-2.478-3.191a2.204 2.204 0 01-.187-.106 2.74 2.74 0 00-.145-.084c-.74-.392-1.475-.792-2.21-1.192-1.169-.635-2.337-1.27-3.524-1.873-2.605-1.325-5.21-2.653-7.695-4.206-1.542-.963-3.106-1.894-4.67-2.826-.96-.572-1.919-1.143-2.873-1.722-.389-.236-.75-.222-1.128-.031-.516.264-.99.58-1.417.982-.764.715-1.396 1.53-2.004 2.375-2.372 3.3-4.327 6.805-5.348 10.768-.34 1.314-.425 2.6.332 3.819.087.142.154.297.221.451.05.117.101.233.16.345.15.281.283.571.415.861.225.49.449.981.756 1.429a25.636 25.636 0 003.8 4.42c.484.444.897.948 1.233 1.515.579.977 1.25 1.886 1.92 2.796l.152.206c.873 1.187 1.884 2.243 3.145 3.015 1.856 1.13 3.49 2.519 4.974 4.093l.063.072c.075.09.153.184.283.206.647-1.137 1.107-1.447 1.828-1.233-.086.17-.187.326-.287.48zm15.144 7.902c-.078.355-.158.715-.242 1.081-.668-.968-1.05-1.969-1.106-3.075-.082-1.48-.495-2.864-1.167-4.181-.47-.923-1.198-1.586-2.11-2.058l-.434-.22a24.031 24.031 0 01-1.033-.544c-.77-.44-1.265-1.138-1.7-1.888a2.576 2.576 0 00-.322-.43c-.124-.134-.293-.169-.456-.07-.162.098-.205.264-.145.437.069.198.145.396.226.604.04.102.08.207.12.315-.023-.008-.043-.013-.06-.017-.03-.007-.05-.012-.063-.025-1.29-1.307-2.707-2.47-4.124-3.633-.456-.374-.911-.748-1.362-1.126-.127-.108-.25-.22-.374-.331-.125-.112-.248-.224-.375-.332-.163-.14-.156-.267-.022-.422.679-.779 1.436-1.459 2.369-1.93a.54.54 0 01.442-.04l.416.132c1.817.571 3.637 1.144 5.38 1.93.266.119.393.263.421.563.056.624.038 1.248.02 1.871-.007.284-.015.568-.016.852-.007 1.272.173 2.5.848 3.614.583.962 1.485 1.427 2.56 1.578.713.102 1.219-.3 1.346-1.01.107-.614.078-1.228.048-1.843-.015-.319-.03-.637-.027-.955.005-.5.003-1.003.002-1.503l-.002-.748c.101-.036.173.005.242.045l.055.03c.21.098.419.198.628.297.543.258 1.086.517 1.634.766a.84.84 0 01.464.476c.473 1.148.682 2.353.763 3.586a.995.995 0 01-.156.58c-1.007 1.741-1.71 3.604-2.205 5.545a66.02 66.02 0 00-.483 2.078zm3.481-11.211c.035.137.059.23.073.326.06.343.132.683.204 1.024.18.86.361 1.72.358 2.615-.003 1.212.057 2.43.27 3.632.243 1.377 1.438 2.638 2.802 2.944.446.1.548.036.594-.43a6.082 6.082 0 00-.078-1.68l-.054-.31-.025-.137c-.375-2.119-.75-4.235-.68-6.404.003-.14-.036-.247-.177-.306a67.704 67.704 0 00-1.002-.426c-.76-.318-1.535-.643-2.335-1.05l.05.202zm-7.999-3.185l-.001-.692.878.382c.52.226 1.024.444 1.526.665.092.038.123.127.116.222-.063.797-.027 1.593.01 2.388.034.75.068 1.5.019 2.25-.053.804-.135.85-.866.512-.74-.342-1.156-.944-1.375-1.705a8.277 8.277 0 01-.311-2.427c.007-.522.006-1.046.004-1.595z" clip-rule="evenodd"/>
  <path fill="#008367" d="M48.94 34.06c.039-.035.078-.07.12-.11l-.007-.01c-.039.032-.11.032-.106.106l-.007.014z"/>
  <path fill="#008367" d="M48.998 33.988l.01.024-.017-.01.007-.014z"/>
  <path fill="#008367" d="M23.35 28.001c.16.037.377.07.578.133 1.181.356 2.411.567 3.603.89a6.994 6.994 0 012.744 1.43c.276.235.523.492.665.81.108.244.082.481-.18.643-.261.162-.515.096-.743-.072a.789.789 0 01-.168-.156c-.871-1.112-2.146-1.654-3.573-1.977a12.531 12.531 0 01-2.235-.763c-.34-.148-.666-.327-.931-.574-.075-.073-.142-.159-.093-.258.052-.099.164-.112.332-.106z"/>
</svg>
