<svg xmlns="http://www.w3.org/2000/svg" width="78" height="75" fill="none" viewBox="0 0 78 75">
  <path fill="#008367" d="M36.007 1.009L36 .991l-.007.011.014.007z"/>
  <path fill="#008367" fill-rule="evenodd" d="M36.2 1.197l-.005.022c-.131-.013-.212.071-.288.15l-.045.047c-.926.873-1.996 1.464-3.214 1.869-1.658.549-2.756 1.763-3.422 3.344-.556 1.316-.626 2.731-.647 4.14l-.001.24c0 .412 0 .824-.154 1.216-.662 1.7-1.468 3.334-2.658 4.724-1.731 2.028-3.762 3.714-6.05 5.083l-.057.037c-.097.064-.201.132-.383.115.164-.483.208-.978.252-1.472.027-.298.053-.596.107-.89.137-.76.517-1.412.978-2.035 1.169-1.58 1.669-3.312 1.144-5.283-.303-1.14-.788-2.197-1.33-3.228-.395-.75-.655-1.514-.69-2.366-.024-.586-.101-1.172-.179-1.755l-.011-.09c-.04-.302-.198-.548-.539-.545-.352.004-.458.275-.493.578-.01.07-.014.14-.01.21.091 1.659-.465 3.13-1.324 4.503-.912 1.45-1.33 3.01-1.253 4.73.091 1.997.799 3.633 2.52 4.746.173.112.254.242.243.45-.035.662-.074 1.324-.27 1.96-.25.8-.624 1.448-1.469 1.824-1.858.827-3.421 2.088-4.878 3.5-1.264 1.224-2.12 2.653-2.43 4.389-.045.26-.203.345-.408.418-1.44.534-2.796 1.241-4.153 1.948a91.6 91.6 0 01-1.623.833c-.817.405-1.59.901-2.316 1.461-.553.422-.901.982-.915 1.686-.028 1.556.376 2.89 1.798 3.802.68.437 1.38.836 2.081 1.234a58.81 58.81 0 011.556.906l.003.002c.174.104.299.18.222.448-.257.923.394 1.778 1.348 1.82.44.018.877-.053 1.288-.19.384-.13.694-.05 1.035.145 3.377 1.923 6.763 3.839 10.147 5.753v.001h.002v.001h.001v.001h.002v.001h.002l1.227.695c1.448.82 2.899 1.638 4.349 2.456l1.568.884.043.025c.174.098.334.188.344.46.077 1.944 1.563 3.003 3.41 2.45a8.64 8.64 0 01.09-.024c.105-.03.213-.059.312-.105.31-.148.574-.092.87.077a1692.23 1692.23 0 007.764 4.442c1.302.741 2.605 1.478 3.907 2.215l.001.001c.938.53 1.875 1.061 2.812 1.593.208.116.394.225.472.496.38 1.327 1.527 2.014 2.893 1.736a.922.922 0 01.683.102c.58.328 1.161.654 1.744.98h.002l.002.002.002.001h.002v.001a371.4 371.4 0 011.744.98c1.19.676 2.404 1.278 3.741 1.622 2.02.521 3.812.303 5.48-1.115 1.58-1.343 3.215-2.619 4.851-3.895.706-.55 1.411-1.1 2.112-1.656.134-.105.27-.209.409-.316l.408-.314c.017.169-.052.266-.114.354-.017.024-.034.047-.048.072-.49.827-1.112 1.552-1.742 2.273-.824.947-1.567 1.957-2.169 3.06-.443.816-.865 1.65-.992 2.587-.064.471.14.851.479.922.44.088.63-.215.795-.542.036-.072.067-.144.099-.217l.056-.128a16.6 16.6 0 011.985-3.376c.768-1.003 1.528-2.013 2.218-3.08.58-.898.88-1.883 1.02-2.922a.769.769 0 01.307-.56c.602-.48 1.203-.965 1.804-1.451l1.054-.85c.901-.722 1.46-1.669 1.736-2.774.31-1.24.168-2.394-.986-3.147-.577-.38-.669-.746-.546-1.4.296-1.564-.897-2.676-2.474-2.409a3.054 3.054 0 00-1.444.662c-.323.264-.573.222-.908.035-1.142-.643-2.295-1.272-3.448-1.901l-.001-.001-.002-.001-1.097-.6c-.405-.22-.81-.442-1.216-.664a748.814 748.814 0 00-4.01-2.18c-.303-.161-.444-.313-.328-.686.151-.472.056-.947-.158-1.394-.409-.848-1.063-1.394-1.965-1.665-1.277-.384-2.555-.38-3.833-.046-.306.081-.57.046-.845-.105-.763-.424-1.531-.84-2.298-1.256l-.852-.462-1.297-.707c-1.532-.835-3.064-1.67-4.6-2.5-.267-.144-.41-.288-.323-.623a1.83 1.83 0 00-.007-.964c-.486-1.743-1.478-3.034-3.288-3.524-1.827-.496-3.682-.658-5.554-.264a1.28 1.28 0 01-.93-.14c-.34-.189-.678-.379-1.017-.569h-.002v-.001h-.002v-.001h-.001v-.001h-.002v-.001h-.001c-1.01-.567-2.018-1.132-3.054-1.645-.709-.353-1.396-.745-2.084-1.138-1.332-.761-2.665-1.523-4.15-1.991-1.792-.567-3.513-.7-5.298.077-1.88.821-3.785 1.588-5.69 2.355h-.002v.001h-.003v.001h-.002v.001h-.001c-.755.304-1.51.608-2.264.916a1.045 1.045 0 00-.055.026c-.093.045-.195.095-.353.016l.116-.281v-.001c.252-.613.504-1.226.947-1.739 1.345-1.552 2.858-2.904 4.664-3.91.49-.274.993-.528 1.496-.781h.001c.93-.47 1.86-.938 2.713-1.539a6.243 6.243 0 012.833-1.105c1.11-.148 2.19-.106 3.137.62 1.042.798 2.214 1.133 3.523.981.216-.024.432-.044.647-.064.288-.027.576-.054.863-.09 1.363-.166 2.58-.687 3.457-1.75.964-1.169 2.027-2.165 3.428-2.784.398-.176.51-.532.349-.789-.211-.338-.521-.264-.824-.148-.553.215-1.109.402-1.693.518-1.397.274-2.767.077-4.147-.162-2.83-.49-5.322.169-7.388 2.235a4.016 4.016 0 01-1.084.792c-.155.074-.349.102-.447-.084-.102-.187.024-.32.176-.42.044-.028.09-.055.137-.081.076-.043.153-.087.218-.143 1.686-1.493 3.27-3.063 4.157-5.192.07-.166.14-.332.212-.497v-.002h.001v-.002h.001v-.002l.001-.001c.229-.53.457-1.062.623-1.616.106-.352.289-.644.63-.806.18-.087.36-.176.54-.265.488-.243.977-.486 1.484-.681 1.415-.55 2.348-1.553 2.925-2.922.331-.782.539-1.598.67-2.436.06-.388.102-.78.145-1.171.083-.754.165-1.509.372-2.243.073-.261.127-.529.182-.797.025-.123.05-.245.077-.368a.29.29 0 01.019.003l-.014-.025zm-19.42 41.54c.116.201.237.265.345.322l.023.012.012.007.014.007 4.907 2.807.005.003.006.003.005.003.005.003.006.003c4.23 2.42 8.459 4.838 12.684 7.263.383.218.64.197.964-.098 1.595-1.465 3.47-2.426 5.534-3.052.697-.213 1.41-.357 2.122-.501h.001c.446-.09.89-.18 1.333-.288l.15-.032c.221-.047.446-.094.653-.25-.147-.111-.31-.162-.47-.21-.125-.04-.248-.078-.357-.145-.31-.19-.613-.204-.965-.123a7.085 7.085 0 01-1.848.155c-1.45-.06-2.745-.49-3.664-1.69-.153-.2-.298-.407-.442-.615-.296-.426-.593-.853-.97-1.222-.306-.303-.148-.711.275-.782.94-.154 1.887-.267 2.844-.207.64.038 1.236.221 1.802.531.96.527 1.735 1.28 2.507 2.03l.285.276c.644.62 1.39.926 2.238 1.08.37.067.687.014.99-.218a622.24 622.24 0 012.41-1.806v-.001l1.476-1.104a.551.551 0 00.093-.096c.015-.018.03-.037.047-.055-.083-.12-.195-.175-.304-.23a2.34 2.34 0 01-.086-.045l-2.036-1.104c-3.45-1.871-6.902-3.743-10.358-5.605-.837-.452-1.679-.893-2.52-1.334a292.75 292.75 0 01-1.997-1.052c-.288-.155-.535-.152-.834-.022-1.058.461-2.014 1.094-2.97 1.726-.146.097-.293.195-.44.291-.891.581-1.152 1.936-.55 2.824l.093.135c.294.43.59.864.826 1.329.486.957.595 1.971.292 2.992-.128.434-.307.852-.485 1.27-.29.68-.58 1.362-.659 2.116-.024.232-.215.401-.486.37-.299-.04-.408-.26-.383-.518.102-1.049-.338-1.88-1-2.64-.5-.574-.711-1.27-.75-2.017-.045-.862.166-1.672.507-2.457.271-.616.465-1.256.518-1.992-3.31 2.696-7.304 3.4-11.398 3.953zm34.662 4.29c.095-.082.195-.168.369-.168-.039.64-.208 1.232-.405 1.813-.341.922-.574 1.851-.39 2.847.14.778.429 1.486.876 2.13.116.165.204.31.091.535-.21.415-.162.493.335.644-.06.296-.116.602-.067.908.05.314.186.585.545.592.36.003.465-.271.49-.574.049-.595.292-1.109.665-1.566.134-.166.264-.331.39-.5 1.247-1.651 1.12-3.77-.313-5.273l-.068-.074a2.162 2.162 0 00-.294-.282c-.658-.486-.68-1.154-.521-1.862.113-.51.31-.588.778-.345 2.093 1.083 4.15 2.231 6.207 3.38a392.016 392.016 0 004.97 2.738l.007.003 1.477.803c.027.015.056.029.085.042.097.046.2.095.27.233l-.457.261c-.55.316-1.102.631-1.661.932-.123.065-.3.049-.456.035l-.04-.004c-.997-.077-1.894.17-2.697.771-.384.285-.781.553-1.18.817-.45.296-.921.538-1.477.57-.257.014-.476.116-.55.384-.08.285.078.479.296.64.07.053.148.094.226.136.13.07.26.14.351.259-.009.111-.082.158-.152.203l-.012.007-.022.015-1.687 1.18c-.73.509-1.458 1.018-2.185 1.53-.176.124-.313.117-.496.014-1.423-.799-2.87-1.017-4.376-.2-.461.25-.989.32-1.51.366-.222.021-.412-.053-.598-.158l-.733-.42a641.614 641.614 0 00-4.512-2.569c-.271-.151-.363-.327-.345-.637.07-1.278-.236-2.411-1.24-3.309-.388-.349-.274-.827-.17-1.258l.02-.086.02-.092c.12-.553.44-.99 1.088-1.084.26-.039.517-.1.774-.16h.002c.236-.056.471-.111.71-.15 1.872-.3 3.566-1.01 5.083-2.144l1.214-.911.004-.003 1.21-.909.061-.05zM13 37.678a1.542 1.542 0 00-.517-.623c-.182-.13-.367-.254-.552-.379-.142-.094-.283-.19-.423-.287-.19-.13-.292-.31-.218-.545.077-.24.274-.303.503-.292.098.003.197.02.289.049.739.222 1.492.25 2.256.158.574-.067 1.155-.08 1.725.028.281.053.52.004.767-.126a419.313 419.313 0 013.735-1.965 232.996 232.996 0 016.061-3.069c.345-.169.634-.162.986.032 1.427.782 2.865 1.547 4.302 2.311l1.238.66.015.008.021.012c.114.064.24.136.415-.017l-.197-.118h-.001l-.221-.132-1.723-.949c-1.742-.96-3.485-1.921-5.233-2.866-1.492-.81-3.08-1.296-4.8-1.246a2.21 2.21 0 00-.744.126c-.237.094-.476.184-.715.274-.5.187-.998.374-1.481.596-2.112.96-4.261 1.837-6.408 2.714-.704.288-1.408.575-2.11.865a57.79 57.79 0 00-7.054 3.52c-.488.285-.469.314-.144.795l.003.005c.693 1.027 1.728 1.654 2.749 2.263 1.32.787 2.667 1.529 4.014 2.271a332.96 332.96 0 011.66.92c.109.065.222.132.349.083.35-.138.699-.283 1.058-.432l.564-.234c-.175-.2-.369-.3-.553-.398a3.869 3.869 0 01-.186-.102 57.879 57.879 0 00-.712-.421 30.368 30.368 0 01-1.347-.821c-.62-.405-.606-.845.003-1.243.234-.153.484-.285.73-.415l.041-.021c.467-.255.934-.502 1.42-.758l.435-.231zm19.245-3.5l.105.089c-.789.412-1.503.824-2.186 1.281-.672.458-1.349.91-2.025 1.36-.598.4-1.196.8-1.79 1.203-1.426.964-2.95 1.696-4.637 2.059-1.087.236-1.69-.046-2.052-1.091-.362-1.046-.996-1.841-1.862-2.486-.047-.034-.095-.066-.135-.094a6.1 6.1 0 01-.048-.032c.04-.17.143-.213.236-.252l.06-.026c3.01-1.524 6.019-3.052 8.98-4.671.165-.088.309-.152.506-.043 1.236.69 2.474 1.373 3.713 2.056l1.046.577a.42.42 0 01.09.07zm21.197 32.416l.077.067c.038.034.07.063.106.085 1.147.75 2.351 1.397 3.66 1.791 1.134.342 2.278.44 3.37-.281.416-.275.824-.563 1.233-.85v-.001c.523-.368 1.045-.737 1.586-1.078.133-.085.239-.19.264-.363.18-1.291.746-2.404 1.555-3.41l.015-.018.013-.017c.109-.132.233-.284.113-.546-.243.085-.498.088-.754.09-.335.005-.674.009-.995.198-1.229.722-2.531 1.285-3.865 1.778-.534.196-1.07.384-1.607.572-1.374.482-2.748.964-4.074 1.572l-.022.01-.045.02-.046.02c-.197.085-.398.172-.584.362zm22.073-10.211c-2.302 2.633-4.811 4.974-7.786 6.871l-.158-.267-.226-.383-.016-.027-.004-.006c-.173-.291-.344-.58-.514-.87-.095-.16.017-.252.132-.347h.001c.613-.504.905-1.106.542-1.891-.07-.155-.014-.268.096-.377a74.017 74.017 0 001.637-1.682c.827-.869 1.654-1.737 2.544-2.542.197-.176.37-.253.634-.109l.308.17c.915.504 1.833 1.01 2.81 1.46zm-42.958-.479c-.176-.095-.345-.195-.509-.292-.58-.344-1.114-.66-1.828-.669-1.524-.017-2.886-.507-3.946-1.703-.479-.542-1.006-1.063-1.75-1.282-.232-.067-.393-.264-.334-.517.057-.254-.056-.356-.246-.458-.373-.2-.744-.41-1.111-.62l-.103-.06a546.308 546.308 0 00-10.3-5.79 1.99 1.99 0 01-.103-.06c-.137-.086-.28-.175-.443-.105-.297.126-.587.268-.879.41-.133.066-.267.131-.402.196.086.196.226.268.357.335h.001l.09.048c4.614 2.672 9.229 5.34 13.847 8.008a4875.495 4875.495 0 015.85 3.376l.024.014c.202.118.397.232.634.053.317-.257.64-.5 1.023-.787l.128-.097zM27.7 50.26c.072.036.15.074.16.196l-.745.26v.001h-.002c-.302.106-.604.212-.907.316-.204.075-.383-.007-.56-.105l-2.41-1.359h-.002c-3.278-1.846-6.554-3.69-9.802-5.59l-.039-.022c-.073-.039-.15-.081-.168-.224.556-.232 1.14-.422 1.739-.57.17-.041.317.043.46.125l.015.009.013.007.005.003.006.003c4.065 2.308 8.13 4.616 12.194 6.928.013.008.028.015.043.022zm27.662 18.553c-.223.271-.31.582-.395.893a8.27 8.27 0 01-.07.24c-.13.416-.034.701.381.88 1.243.54 2.5 1.018 3.854 1.2.814.11 1.535-.07 2.267-.443.502-.255.92-.606 1.339-.957.245-.207.49-.412.752-.599.324-.228.496-.531.56-.904.109-.62.183-1.24-.18-1.852l-.186.125c-.083.055-.158.106-.232.153l-.22.146-.119.078c-.65.43-1.296.858-1.974 1.248-1.007.577-2.066.683-3.182.52-.89-.133-1.767-.323-2.595-.728zm-14.378-6.257l-.063-.042-.06-.04c.245-.311.23-.644.215-.992-.01-.236-.022-.479.048-.726 1.848 1.046 3.687 2.089 5.533 3.136l.005.002 4.374 2.48-.182.203-.106.118c-.26.292-.5.56-.746.82-.16.167-.309.071-.448-.018-.027-.017-.054-.035-.08-.05a886.446 886.446 0 01-4.69-2.668c-.973-.56-1.942-1.125-2.91-1.691l-.697-.407a3.916 3.916 0 01-.193-.125zm21.5-4.07l-.87-.099-1.232-.138c-.11-.011-.196.056-.28.121l-.011.009a2366.866 2366.866 0 01-1.351 1.023l-.004.003c-.872.66-1.744 1.32-2.617 1.984a1.235 1.235 0 01-.068.048c-.092.06-.186.123-.189.255 1.106 1.422 4.288.753 6.08-.52-.708-1.388-.673-1.585.541-2.687zm5.608 7.81c-.056.044-.114.091-.233.07l.024-.122.058-.288.001-.003c.048-.238.095-.472.142-.695.784-.155 1.29-.671 1.792-1.184.082-.084.163-.167.246-.249.106-.102.112-.264-.01-.38-.148-.14-.314-.105-.465-.007-.36.234-.676.521-.992.81l-.237.214-.12.103-.04.035-.107.091c-.212-.352-.046-.549.214-.75.508-.392 1.025-.77 1.542-1.148h.001v-.001h.001v-.001c.935-.684 1.87-1.367 2.744-2.13 1.175-1.028 2.32-2.091 3.344-3.27a.567.567 0 00.081-.157l.015-.036.006-.014.003-.008c.23.143.222.291.214.421l-.002.05c-.04 1.303-.507 2.426-1.521 3.257a606.202 606.202 0 01-4.63 3.731v.001h-.001v.001h-.001v.001h-.002v.001c-.68.544-1.359 1.088-2.037 1.633l-.01.007-.006.005-.014.011zm-21.688-5.368c-1.343-.832-2.7-1.57-4.08-2.322l-.028-.015-.272.42-.523.808.054.055c.031.033.057.06.087.076l4.96 2.806 4.952 2.801c.165.092.313.106.465-.021.745-.617 1.62-.984 2.493-1.351.253-.106.506-.212.755-.325.032-.014.065-.026.1-.038.108-.038.222-.08.316-.208a4.701 4.701 0 00-1.12.032c-.31.048-.608.148-.906.248-.37.125-.74.25-1.132.273-2.305.14-4.354-.507-6.103-2.042-.493-.433-.493-.672-.018-1.197zM10.193 43.285l.16.107-.409.23-.002.001c-.267.152-.511.29-.762.423-.19.102-.357.004-.516-.09l-.033-.019a2759.123 2759.123 0 00-4.87-2.784l-.002-.001-.002-.001c-.411-.237-.821-.473-1.24-.699-.922-.496-1.162-1.812-.933-2.847l.046.03a.26.26 0 01.084.068c.599.968 1.514 1.57 2.468 2.12 1.155.665 2.31 1.326 3.466 1.988.77.44 1.54.882 2.31 1.324.073.04.142.086.235.15zm29.924 18.794c.148-1.239-.475-2.066-1.348-2.626-1.031-.662-2.104-1.257-3.177-1.853h-.001c-.45-.25-.901-.5-1.349-.755l-.013-.008c-.133-.075-.266-.15-.416-.041-.366.264-.729.53-1.149.84l-.002.002-.134.098 1.248.714.004.002.03.018.008.004c2.118 1.213 4.194 2.402 6.3 3.605zM11.202 39.707a5.941 5.941 0 01-.15-.057c.865-.436 1.586-.801 2.306-1.167l.004-.002c.127-.063.215.007.3.088 1.206 1.137 2.73 1.394 4.29 1.475.47.024.76.25 1.129.537l.195.15a86.92 86.92 0 00-.744.126c-.402.07-.774.134-1.147.187-.806.112-1.612.25-2.4.46-.212.057-.412.078-.613-.034-.748-.422-1.499-.843-2.248-1.263l-.807-.452a.777.777 0 00-.115-.048zm26.69-5.25c.778.43 1.552.855 2.329 1.282l3.286 1.81c-.01-1.166-1.08-2.444-2.21-2.788-.979-.3-1.986-.37-2.996-.412l-.06-.006c-.104-.013-.219-.026-.348.115zm14.597 9.461c.117.053.242.11.307.28-.245.098-.42-.008-.584-.108a2.29 2.29 0 00-.106-.061c-.937-.508-1.872-1.022-2.806-1.535-1.778-.976-3.556-1.952-5.353-2.893-1.821-.956-3.613-1.966-5.406-2.975a403.196 403.196 0 00-2.785-1.56c-.098-.052-.193-.109-.318-.183l-.065-.038-.071-.042c.27-.128.437-.032.589.055l.032.018.027.015 1.78.977.005.003.004.002c1.055.58 2.11 1.16 3.167 1.735 2.156 1.177 4.311 2.352 6.467 3.526l.01.006.005.002 5.004 2.728c.03.018.063.033.097.048zm13.61 10.632c1.7.884 3.266.746 4.364-.838l-.85-.458-1.177-.636c-.232.727-.804 1.014-1.37 1.297-.353.177-.704.353-.968.635zm-27.833 1.894c-.078.503-.032 1.003.042 1.619l-1.704-.967-.004-.002c-.613-.348-1.215-.69-1.83-1.037l.428-.405c.203-.19.396-.372.586-.556.141-.134.278-.102.423-.018.454.263.91.525 1.366.786l.496.284c.116.067.218.151.197.296zm.236-1.176c.185-.268.386-.521.586-.772.581-.73 1.146-1.44 1.251-2.442-1.341.5-2.495 1.24-3.587 2.225l.787.445.003.002.008.004h.001l.95.538zm14.777 14.384l-2.06-1.216c.122-.114.239-.224.352-.332l.004-.004c.286-.27.552-.52.82-.769.113-.102.24-.06.356.004l.759.415.004.002.008.005.327.18.419.228c.12.067.232.141.162.296-.222.49-.342 1.007-.42 1.623l-.73-.432zm1.302-24.388c.373.387 13.158 7.223 13.429 7.185-.056-.12-.163-.168-.268-.214-.034-.015-.067-.03-.098-.047-.921-.504-1.844-1.007-2.768-1.51a9171.673 9171.673 0 01-4.184-2.283l-.014-.007c-1.825-.996-3.65-1.993-5.477-2.986-.03-.016-.058-.033-.087-.05-.156-.092-.32-.188-.533-.088zM62.54 59.43c.774-.479 1.612-.43 2.474-.306-.62.65-1.284 1.217-2.094 1.587-.256.118-.445-.085-.606-.258l-.035-.038c-.183-.193-.19-.426-.063-.661a.866.866 0 01.324-.324zm5.357-3.116c-.637-.07-1.186.13-1.605.602-.37.416-.781.76-1.292.993l-.04.015c-.06.021-.128.044-.108.119.76.348 1.384.229 1.87-.468.083-.12.192-.222.301-.324.067-.062.134-.124.195-.19.071-.077.147-.15.223-.222.165-.158.331-.317.456-.525zm-10.919-11.46c1.172-.148 2.514.432 2.422 1.33-.807-.442-1.565-.86-2.391-1.314l-.03-.017zm17.364 9.44l.015-.12c.034-.25.065-.482-.19-.616-.307-.162-.61-.084-.877.152.267.243.62.44 1.052.584zm-41.796.45c.686.553.94.627 1.235 0h-1.235zm34.042 5.914c.165-.193.222-.327.095-.563-.113.19-.18.32-.095.563zm-37.016-3.301c-.208.017-.307-.092-.469-.303l.06.02c.213.075.337.118.409.282z" clip-rule="evenodd"/>
  <path fill="#008367" d="M15.111 34.324c-.186-.003-.317-.05-.39-.19-.081-.155-.053-.303.049-.433.158-.2.373-.345.591-.468 1.18-.658 2.362-1.313 3.541-1.964.194-.11.409-.183.56.049.137.211.018.384-.165.496-1.222.75-2.383 1.598-3.636 2.302-.176.102-.37.194-.55.208z"/>
  <path fill="#008367" d="M12.989 34.74c.038-.222.169-.356.401-.339.215.018.33.166.32.374-.01.232-.158.362-.39.341-.212-.021-.324-.155-.331-.377z"/>
  <path fill="#008367" d="M72.304 62.005c-.014.335-.732 1.042-1.014 1.06-.278.018-.443-.222-.306-.486.204-.387.564-.627.954-.788.2-.085.342.045.366.214z"/>
</svg>
