<svg xmlns="http://www.w3.org/2000/svg" width="83" height="70" fill="none" viewBox="0 0 83 70">
  <path fill="#008367" fill-rule="evenodd" d="M11.76 35.857c.256 1.336.512 2.672.772 4.015a.614.614 0 01-.34.063h-.106c-2.244-.105-4.484-.193-6.732-.169-.684.007-1.373.039-2.043.162-.86.163-1.184.91-.766 1.682.18.331.429.6.734.814a14.648 14.648 0 006.177 2.545c1.095.18 2.208.284 3.317.387l.384.036c.351.032.45.184.509.505.758 4.05 1.527 8.1 2.303 12.15.19.974.99 2.031 2.392 1.986.597-.022 1.19-.043 1.777-.166.939-.196 1.877-.4 2.815-.603 1.973-.43 3.946-.858 5.935-1.21.558-.098.945-.087 1.422.35 1.124 1.022 2.462 1.741 3.905 2.242.562.194 1.124.398 1.671.634.827.357 1.643.737 2.46 1.118 1.243.58 2.486 1.16 3.766 1.653 1.152.444 2.096 1.181 2.915 2.09.33.367.653.748.955 1.14a20.392 20.392 0 001.97 2.224c.48.465 1.004.603 1.636.412.562-.17 1.11-.38 1.612-.68 2.988-1.777 5.755-3.822 7.953-6.56 1.103-1.372 2.142-2.775 2.676-4.495.305-.984.225-1.844-.428-2.69a40.768 40.768 0 00-3.055-3.553c-.91-.941-1.777-1.922-2.515-3.01-.2-.297-.372-.6-.442-.963a33.222 33.222 0 01-.259-1.637 48.474 48.474 0 00-.166-1.116c-.076-.465-.163-.927-.25-1.39-.185-.988-.37-1.976-.452-2.982-.229-2.88-.481-5.756-.86-8.622-.229-1.717-1.022-3.13-2.353-4.234l-.226-.186a8.798 8.798 0 01-.642-.558c-.474-.471-.928-.962-1.382-1.453-.598-.646-1.196-1.293-1.841-1.896-.284-.266-.555-.547-.826-.828-.592-.614-1.184-1.228-1.916-1.692-.571-.362-1.087-.796-1.604-1.232-.164-.138-.327-.275-.493-.41-1.053-.865-2.16-1.661-3.504-2.024-.176-.05-.246-.138-.264-.314-.031-.328-.07-.66-.133-.984l-1.34-7.013V9.39l-1.34-7.008C35.3 1.12 34.248.072 32.927.006c-.783-.038-1.533.114-2.287.267l-.304.06c-1.077.214-2.155.426-3.232.638-3.79.746-7.577 1.492-11.358 2.274-.857.177-1.52.138-2.195-.49-.572-.528-1.271-.937-2.068-1.085-.453-.085-.906-.113-1.292.24-.755.69-.854 1.47-.274 2.312a.37.37 0 01.042.088l.024.06-.124.027a3.028 3.028 0 00-.3.075c-.159.052-.32.096-.482.14-.497.136-.995.271-1.4.636-.949.853-1.25 1.939-1.114 3.176.137 1.216.355 2.418.6 3.617.006.025.014.05.022.076.028.093.058.19-.025.29-.193-.029-.365-.113-.536-.196-.055-.027-.11-.054-.166-.079-1.05-.465-2.128-.807-3.283-.906-1.433-.123-2.286 1.57-1.742 2.63.218.423.464.825.766 1.185 1.773 2.111 3.785 3.934 6.236 5.235.453.24.604.592.527 1.17l-.025-.009a.513.513 0 01-.08-.033c-1.433-.854-2.922-1.587-4.492-2.15-.829-.297-1.671-.501-2.57-.353-1.145.19-1.956 1.131-1.766 2.132.126.67.379 1.298.87 1.795l.299.302c.525.536 1.052 1.073 1.678 1.485.614.402 1.21.83 1.806 1.258.962.69 1.923 1.38 2.96 1.96a21.07 21.07 0 012.622 1.763c.264.204.394.43.453.747.341 1.837.692 3.677 1.043 5.514zM10.34 12.92l-.017-.125c7.922-1.569 15.805-3.13 23.723-4.703l.826 3.913.005.026c.355 1.682.71 3.371 1.07 5.065-.181.047-.363.015-.545-.018-.088-.016-.176-.032-.264-.039-1.477-.12-2.955-.253-4.433-.387h-.001a6.777 6.777 0 00-1.254.02c-.874.089-1.23.625-1.032 1.485.238 1.06.888 1.822 1.748 2.411a19.118 19.118 0 003.607 1.964c.776.314 1.522.698 2.267 1.08.339.175.678.349 1.02.517.326.162.445.458.505.803l.303 1.74c.303 1.74.606 3.481.933 5.215.126.67.24 1.342.353 2.013.243 1.438.486 2.875.855 4.287.045.17.01.324-.046.483-.548 1.53-.92 3.095-1.176 4.699-.05.31-.133.613-.215.917v.001c-.114.419-.229.84-.26 1.278-.01.159-.026.317-.043.474-.017.158-.033.316-.044.474-.01.194-.091.282-.291.321-2.49.48-4.962 1.037-7.436 1.595-1.053.238-2.107.475-3.162.707-1.53.337-3.058.676-4.588 1.015-1.529.34-3.058.679-4.587 1.016-.518.115-.52.102-.614-.42v-.007a1817.872 1817.872 0 00-5.173-27.472c-.436-2.24-.88-4.479-1.325-6.719v-.002l-.666-3.357a6.222 6.222 0 01-.042-.27zm44.67 36.685c-.046.124-.09.243-.131.36-.158.44-.297.828-.522 1.177-.151.23-.334.469-.646.314-.31-.152-.253-.444-.141-.702.67-1.558.808-3.18.488-4.83-.472-2.424-.724-4.877-.975-7.33l-.138-1.338c-.056-.521-.102-1.044-.15-1.567-.103-1.164-.207-2.328-.408-3.48-.25-1.414-.903-2.581-2.023-3.48l-.174-.14h-.001c-.241-.19-.482-.381-.7-.597a52.162 52.162 0 01-1.556-1.619c-.581-.622-1.163-1.245-1.78-1.836a18.04 18.04 0 01-.793-.826c-.514-.559-1.028-1.117-1.675-1.539-.68-.444-1.33-.93-1.924-1.491-1.64-1.544-3.627-2.27-5.818-2.56-.769-.1-1.542-.153-2.314-.205-.658-.045-1.315-.09-1.97-.165-.678-.077-1.363-.155-2.048-.13-.379.014-.414.074-.298.448.144.476.4.874.773 1.202.976.853 2.1 1.48 3.269 1.999 1.415.63 2.826 1.262 4.2 1.977.343.18.596.43.818.765.276.422.523.86.77 1.3h.001c.259.458.518.917.809 1.355.816 1.223 1.546 2.496 2.274 3.767l.296.516c.558.973.776 2.08.407 3.208a14.59 14.59 0 01-.79 1.984c-.562 1.128-1.014 2.306-1.429 3.494-1.036 2.961-1.155 5.947-.344 8.978.299 1.118.683 2.209 1.066 3.3l.04.113c.18.507.116.807-.15.87-.407.098-.564-.205-.708-.483l-.023-.045c-.562-1.061-1.008-2.168-1.264-3.346-.062-.286-.126-.571-.19-.856l-.105-.473a1.078 1.078 0 00-.085.41c-.073 1.163.07 2.312.222 3.461.066.51.166 1.012.266 1.516.123.619.246 1.238.306 1.868.056.592.021.645-.558.776-1.187.27-2.374.537-3.562.805-1.188.268-2.376.536-3.563.806a20.48 20.48 0 01-.171.038h-.001c-.297.066-.6.133-.903.272.027.024.05.047.07.067.032.032.06.06.092.081 1.204.81 2.447 1.548 3.845 1.978.446.137.885.31 1.32.49.725.3 1.439.627 2.153.954 1.098.502 2.195 1.005 3.336 1.411 1.773.631 3.283 1.629 4.49 3.092.233.28.456.566.68.853.464.595.928 1.19 1.466 1.724.71.705.727.712 1.63.296.764-.354 1.45-.83 2.138-1.306.272-.19.544-.378.822-.56 2.402-1.568 4.378-3.58 6.106-5.855.6-.79 1.096-1.639 1.496-2.562.46-1.061.263-1.893-.474-2.757a72.529 72.529 0 00-2.655-2.944l-.078-.08c-.859-.882-1.72-1.766-2.411-2.923zM37.8 47.836l.415-.096c-.015 1.7.172 3.349.359 4.995.084.745.168 1.488.234 2.235l-.748.15h-.006c-.474.094-.95.189-1.427.288-4.568.94-9.133 1.917-13.677 2.982a63.64 63.64 0 01-3.54.722c-.747.13-1.467.074-2.025-.567a2.721 2.721 0 01-.57-1.022c-.311-1.034-.495-2.093-.679-3.153-.07-.408-.141-.816-.22-1.222-.654-3.415-1.303-6.83-1.951-10.244a3697.251 3697.251 0 00-3.312-17.28 778.827 778.827 0 01-1.582-8.47c-.404-2.207-.808-4.414-1.227-6.619-.19-1.004-.348-2.005-.316-3.028.028-.937.527-1.53 1.352-1.9 1.011-.45 2.085-.653 3.158-.857l.515-.098c4.407-.86 8.81-1.731 13.213-2.602.59-.116 1.179-.234 1.768-.352 1.263-.252 2.527-.505 3.791-.748.562-.105 1.13-.165 1.703-.088.8.11 1.447.691 1.584 1.488.465 2.716 1.014 5.416 1.562 8.116v.001c.367 1.803.733 3.605 1.075 5.413.066.363.137.724.207 1.083v.003l.077.394c-.019.008-.034.017-.046.023-.02.011-.032.018-.045.016-.744-.117-.745-.123-.875-.812l-.01-.052a260.013 260.013 0 00-1.794-8.672c-.12-.525-.292-.645-.85-.564-1.602.23-3.19.551-4.777.872-.427.086-.853.172-1.28.256-3.992.79-7.984 1.577-11.978 2.363l-.016.003h-.003l-.001.001-5.433 1.07c-.938.184-1.106.434-.934 1.372 1.475 8.115 3.048 16.212 4.628 24.31.648 3.32 1.323 6.635 1.998 9.949v.001c.266 1.3.53 2.6.794 3.9l.005.025.007.027c.01.045.021.089.026.135.06.437.169.525.597.44l.765-.151h.002c1.325-.263 2.649-.526 3.97-.8 3.336-.692 6.672-1.386 10.008-2.08l5.004-1.04c.163-.035.326-.074.505-.116zM10.33 28.602c.002-.031.006-.057.008-.08.006-.044.01-.075.003-.103-.355-1.9-.71-3.8-1.06-5.7-.032-.177-.145-.254-.285-.325a98.503 98.503 0 01-.788-.41 50.05 50.05 0 00-1.582-.806C5.48 20.63 4.31 20.14 3.068 19.859c-.579-.13-1.162-.14-1.7.163-.27.155-.512.356-.536.694-.035.494.035.98.382 1.357.773.843 1.584 1.636 2.553 2.267l.927.606.003.002c1.547 1.013 3.095 2.027 4.674 2.984.207.127.403.269.606.417.114.083.23.168.353.253zm-.027 12.274c.786.037 1.582.074 2.422-.003l.33 1.73v.001l.348 1.819c-2.87-.127-5.65-.451-8.214-1.78a10.579 10.579 0 01-1.474-.941 1.724 1.724 0 01-.366-.385c-.228-.324-.147-.553.243-.645.321-.077.649-.056.976-.036.166.01.333.021.498.019 1.046-.017 2.09.047 3.134.111h.001c.55.034 1.101.068 1.652.09l.45.02zm-1.718-21.57c0-.042.001-.078.003-.109.002-.051.004-.09-.003-.127L8.2 17.156v-.002c-.235-1.168-.47-2.336-.701-3.506-.046-.236-.183-.338-.39-.409-.246-.084-.49-.173-.734-.26a50.833 50.833 0 00-.734-.261c-.793-.275-1.6-.487-2.444-.526-.579-.028-.93.293-1.004.86-.036.28.081.512.2.745l.025.049c.303.582.742 1.05 1.183 1.52l.239.256c1.366 1.477 2.96 2.655 4.744 3.684zM41.108 35.12c.13.691-.172 1.199-.53 1.742l-.828-4.567-.977-5.4c.526.632.98 1.288 1.302 2.02.085.195.102.399.119.602.008.1.016.2.032.298.102.606.199 1.213.296 1.82.186 1.164.371 2.327.586 3.485zM13.558 3.654a11.23 11.23 0 00-1.507-.902c-.274-.134-.552-.261-.86-.286-.373-.031-.615.134-.7.487-.06.247.46 1.131.703 1.184a.244.244 0 00.112-.007h.001c.713-.152 1.425-.303 2.25-.476zM41.17 30.826c.228 1.203.397 2.302.551 3.483.517-.994.281-2.488-.55-3.483z" clip-rule="evenodd"/>
  <path fill="#008367" d="M70.502 23.229c-.352-1.045-.65-2.012-1.109-2.908-.512-1.01-1.642-1.327-2.67-.822-.277.134-.561.254-.82.42-1.298.825-2.592.532-3.91.049-.929-.339-1.586-1.016-2.29-1.648-.1-.092-.153-.208-.093-.346.068-.148.2-.197.349-.18.241.025.483.057.725.096.547.084 1.056-.018 1.504-.34 1.14-.818 2.392-.899 3.71-.588.47.113.89.328 1.291.585.437.283.875.572 1.312.861.078-.12.003-.194-.036-.268-.7-1.45-1.5-2.844-2.353-4.21-.26-.413-.583-.518-1.01-.536-.906-.032-1.741.19-2.545.614-.992.522-2.062.89-3.188.953-1.863.102-3.406-.607-4.64-1.987-.504-.565-.902-1.207-1.322-1.835-.1-.148-.149-.303-.028-.462.12-.155.288-.166.451-.092.775.35 1.554.282 2.375.152a11.21 11.21 0 012.918-.099c1.202.127 2.211.745 3.189 1.373.86.554 1.774.458 2.702.462.014-.173-.09-.247-.15-.335-.984-1.394-2.129-2.647-3.338-3.85-1.866-1.86-4.095-2.834-6.754-2.862-2.609-.025-5.047-.695-7.283-2.05-.306-.187-.637-.328-.957-.487-.16-.081-.327-.152-.444-.293-.089-.106-.117-.226-.053-.357.064-.134.192-.204.32-.151.895.36 1.667-.134 2.488-.321 1.358-.31 2.694-.816 4.11-.756 1.947.085 3.693.724 4.955 2.262 1.29 1.574 2.644 3.078 4.184 4.418.295.258.536.572.803.861.025-.02.053-.042.078-.067 0-.035.01-.077 0-.105-.661-1.401-.665-2.919-.789-4.415-.1-1.193-.213-2.392-.857-3.458-.078-.13-.088-.268.022-.388.106-.113.245-.152.387-.089.21.096.42.195.611.318 1.376.882 2.738 1.79 3.474 3.324.977 2.043.814 4.026-.388 5.929-.167.264-.31.525-.341.84-.036.327.025.606.245.885 1.283 1.62 2.357 3.37 3.317 5.19.05.093.057.223.195.266.078-.149.036-.304.029-.449-.11-2.283.679-4.33 1.65-6.334.141-.293.27-.578.283-.903.008-.148.032-.29.203-.328.157-.036.27.056.363.17.291.338.409.765.554 1.17.416 1.165.68 2.35.459 3.6-.256 1.45-.946 2.657-2.051 3.628-.853.751-.928.652-.398 1.803 1.226 2.643 2.37 5.314 3.323 8.063.007.021.032.039.047.06.099-.007.106-.095.135-.159.824-1.972 2.367-3.06 4.418-3.486.853-.177 1.67-.399 2.368-.946.184-.145.405-.19.6-.021.21.183.203.43.047.621-.534.642-.647 1.426-.836 2.191-.338 1.363-1.102 2.46-2.204 3.32-.625.488-1.361.703-2.154.714-.547.007-1.098 0-1.7 0 .591 2.22 1.153 4.418 1.458 6.743.299-.317.548-.571.786-.836 1.265-1.419 2.9-2.05 4.756-2.227.459-.042.92-.074 1.365-.212.196-.06.388-.035.53.131.153.177.153.385.039.572-.512.836-.906 1.764-1.61 2.466-1.191 1.19-2.691 1.684-4.355 1.73-.434.01-.867.003-1.3.003-.086.236-.033.452-.015.663.17 1.899.05 3.797.025 5.692-.007.667-.203 1.334-.32 1.998a1.582 1.582 0 01-.146.391c-.139.272-.338.477-.672.353-.33-.123-.359-.41-.295-.706.871-3.853.64-7.696-.082-11.535-.02-.124-.02-.258-.138-.364-.377.067-.725.23-1.049.438-2.666 1.704-5.755 1.28-8.059-.483-.213-.166-.426-.332-.53-.593-.152-.392.082-.787.488-.738.501.06.938-.113 1.376-.29.405-.161.803-.345 1.183-.553 1.731-.939 3.463-.72 5.19-.004.327.134.636.304.963.459.068-.184-.003-.314-.035-.448a77.433 77.433 0 00-1.593-5.466 9.854 9.854 0 00-.561-1.373c-.21-.416-.615-.48-.924-.134-.018.018-.04.039-.05.06-.572 1.207-1.735 1.344-2.851 1.493-1.187.155-2.296-.106-3.281-.823-.644-.469-1.124-1.122-1.756-1.602a.259.259 0 01-.075-.345c.092-.166.26-.117.412-.12 1.024-.025 2.048.13 3.072.014.611-.07 1.226-.173 1.802-.396.86-.335 1.745-.547 2.77-.225z"/>
  <path fill="#008367" fill-rule="evenodd" d="M31 53.114c-.003 1.026.897 1.883 1.989 1.886 1.085.003 2.005-.913 2.01-2.01A1.97 1.97 0 0033.03 51c-1.133.003-2.027.937-2.03 2.114zm3.228-.077c0 .689-.586 1.22-1.332 1.217a1.223 1.223 0 01-1.227-1.244c0-.649.58-1.177 1.29-1.18.693-.004 1.27.548 1.27 1.207z" clip-rule="evenodd"/>
  <path fill="#008367" d="M18.456 7c-.177-.003-.397.006-.446-.204-.06-.247.17-.326.385-.37 1.27-.246 2.537-.496 3.811-.719 1.387-.244 2.781-.46 4.172-.686.1-.015.205-.027.3-.018.167.018.287.098.316.247.028.146-.04.268-.195.326a2.747 2.747 0 01-.474.125c-2.495.46-4.996.894-7.512 1.256-.11.019-.226.028-.357.043z"/>
</svg>
