<svg xmlns="http://www.w3.org/2000/svg" width="200" height="16" fill="none" viewBox="0 0 200 16">
  <path fill="#fff" fill-rule="evenodd" d="M34.825 10.721c1.28 2.572 2.322 4.748 2.497 5.215l3.183-2.033c-.595-.723-2.826-4.996-5.058-9.382-.37-.728-.699-1.382-.988-1.956C33.814 1.283 33.371.4 33.125 0l-3.337 1.658c.154.156.42.468.706.872-1.945 4.003-5.883 11.748-6.366 12.443l2.21.963c.155-.8.903-2.728 1.988-5.123a15.745 15.745 0 011.902-.113c1.372 0 3.316 0 4.597.021zm-3.487-6.458l.1-.217c.756 1.368 1.792 3.423 2.694 5.286-.84.021-1.903.021-2.917.021-.595 0-1.497.022-2.274.064.595-1.34 1.28-2.792 1.987-4.273.143-.301.282-.603.41-.88zM17.23 15.773c-.09-.786-1.504-6.696-2.63-11.33-.031-.135-.065-.27-.098-.404l-.098-.404-.03.077c-.11.288-.266.69-.369 1.021-1.217 3.806-2.54 7.972-2.672 8.794l-2.826 2.26c-.196-.807-1.68-5.172-4.044-11.706a4.642 4.642 0 01-.128-.373 5.29 5.29 0 00-.068-.208c-.881 4.77-1.902 10.877-2.056 12.266L0 15.362C.44 14.668 2.302 7.1 3.246 2.65l.087-.43c.054-.262.089-.433.137-.71L6.324.19c.245.737.616 1.836 1.525 4.344 1.015 2.841 1.966 5.392 2.652 7.072.56-1.578 1.484-4.357 2.47-7.32h.001l.446-1.34c.175-.559.287-1.317.308-1.587h.041L17.125.044c.133.758.616 2.997 1.239 5.505 1.175 4.727 2.14 8.418 2.385 9.063l-3.519 1.162zm26.234-.531c1.371.404 3.141.602 4.841.602 2.365 0 6.632-2.416 6.625-5.222 0-1.481-.706-3.224-4.904-4.323-2.127-.56-3.008-1.12-3.008-2.196 0-.787.357-1.772.686-2.24.133-.177.951-.56 1.217-.56.93 0 2.987.943 4.267 1.95l.93-2.438C52.574.319 50.32.163 48.376.163l-2.301.985c-1.616 1.049-2.323 3.019-2.323 4.096 0 1.658 1.434 3.004 3.624 3.628 3.12.892 4.288 1.452 4.288 2.862 0 1.545-1.595 2.842-3.428 2.842-1.063 0-2.938-1.056-4.022-1.928l-.749 2.594zm24.177.687l5.436-3.401c.889-1.63 1.679-4.23 1.679-5.79 0-3.266-4.554-6.582-8.444-6.582l-4.708 2.282c-1.72 1.92-2.693 4.336-2.693 6.398 0 1.857 1.105 3.848 3.092 5.258 1.525 1.077 3.449 1.835 5.638 1.835zM64.325 2.253l.42-.198c2.498 0 6.632 2.331 6.625 5.612 0 2.02-.727 4.55-1.525 5.711l-.574.383c-.972 0-3.162-.454-4.463-1.346-1.455-.985-2.518-2.551-2.518-4.096 0-1.502.16-4.117 2.035-6.066zm18.28 4.23c6.43 7.3 7.646 8.71 7.842 9.517l2.358-1.608c-.042-1.68-.042-5.216-.042-9.623 0-2.24-.042-3.827-.133-4.5l-1.833.425c.245.56.357 2.346.357 3.423 0 1.949 0 4.365-.021 6.47-1.35-1.475-3.337-3.65-5.548-6.087C83.774 2.487 82.451.85 82.074.113L79.4 2.331c.308.447.399 1.34.399 2.034 0 4.294-.042 10.41-.154 11.415l1.875-.205c-.07-1.595-.112-6.137-.112-10.523l.305.368c.332.4.639.77.891 1.064zm35.643 9.453a77.003 77.003 0 00-3.071-2.912c-1.147 1.098-2.518 2.083-4.064 2.912-2.61 0-5.261-1.99-5.261-4.251 0-1.39 1.434-2.686 3.407-3.919-1.413-1.318-2.169-2.26-2.169-3.288 0-.807 1.28-2.728 2.54-3.224l2.63-1.027c2.036 0 3.561 2.062 3.561 3.245-.399 1.12-1.176 2.168-3.449 3.713l.157.138c.149.132.3.264.466.4a81.094 81.094 0 002.875 2.374c.51-.914.881-1.927.972-2.799l2.302-.311c-.441 1.346-1.169 2.707-2.12 4.003 1.504 1.141 2.721 1.928 3.512 2.282l-2.288 2.664zm-7.828-7.134a25.776 25.776 0 01-.217-.186c-.881.695-1.413 1.368-1.413 2.218 0 1.793 2.54 2.955 3.449 2.955.769-.446 1.455-1.027 2.036-1.587a165.193 165.193 0 00-3.428-3.026c-.146-.134-.289-.256-.427-.374zm-.616-4.976c0-.807.133-1.502.777-2.217 1.196 0 2.497 1.587 2.497 2.487 0 .56-.028 1.183-1.595 2.303-1.084-1.007-1.679-1.744-1.679-2.573zm27.696-1.99c1.945 0 3.4 0 4.31.02l.287-1.41c-.777.022-2.12.043-2.918.043h-3.511l-3.561.63c.196.447.287 1.95.287 2.573 0 4.84-.042 11.146-.112 11.932l3.511-.269c0-.5-.003-1.134-.007-1.897-.006-1.154-.014-2.602-.014-4.324a18.796 18.796 0 011.372-.064c1.945 0 2.455 0 3.337.021l.328-1.41-.401.012c-.577.016-1.066.03-1.718.03-.728 0-1.945.022-2.918.043V4.77c0-.758-.02-2.105-.041-2.863.531-.05 1.42-.07 1.769-.07zm8.647 13.937c.112-1.006.133-7.9.133-12.202 0-.623-.112-2.218-.308-2.664l3.582-.56c.07.673.112 2.168.112 4.408 0 4.407 0 8.885.07 10.565l-3.589.453zm14.341-13.938c1.945 0 3.4 0 4.31.022l.286-1.41c-.776.02-2.119.042-2.917.042h-3.512l-3.56.63c.195.447.286 1.95.286 2.573 0 4.84-.042 11.146-.111 11.932l3.511-.269c0-.5-.003-1.134-.007-1.897-.006-1.154-.014-2.602-.014-4.324a18.796 18.796 0 011.372-.064c1.944 0 2.455 0 3.336.021l.329-1.41-.401.012c-.577.016-1.066.03-1.718.03-.728 0-1.945.022-2.918.043V4.77c0-.758-.021-2.105-.042-2.863.532-.05 1.421-.07 1.77-.07zm21.057.085c-.461-.021-2.672-.042-4.904-.063.021.715.042 1.658.042 2.912v.005c0 4.406 0 8.881.042 10.56l-3.533.446c.091-1.006.112-7.9.112-12.202 0-.382-.021-1.12-.112-1.743h-1.259c-.664 0-3.756.092-4.246.27l.727-1.481c.728-.064 2.456-.135 4.883-.135 2.232 0 8.311-.021 9.06-.043l-.812 1.474zm15.027 6.576c0 3.493-.042 6.739-.063 7.277l3.491-.58c-.021-.695-.042-4.77-.042-9.538 0-2.601-.063-4.635-.154-5.308l-3.533.737c.196.447.308 1.325.308 2.643v3.359c-1.231.021-2.714.021-3.952.021-.515 0-1.024.006-1.515.011-.456.005-.897.01-1.312.01V4.755c0-2.24-.063-3.735-.133-4.408L186.135 1c.174.447.286 1.949.286 2.572 0 4.301-.042 11.416-.133 12.202l3.561-.517c-.021-.517-.042-3.203-.042-6.76l.038-.001c.568-.021 1.123-.041 1.424-.041 1.127 0 3.421.02 5.303.042z" clip-rule="evenodd"/>
</svg>
