<svg xmlns="http://www.w3.org/2000/svg" width="74" height="70" fill="none" viewBox="0 0 74 70">
  <path fill="#008367" fill-rule="evenodd" d="M36.2 32.257l-.044-1.088c-.035-.884-.07-1.748-.097-2.614-.136-4.53-.08-9.06.112-13.586.165-3.857.186-7.713.046-11.569-.018-.47-.052-.94-.087-1.41-.02-.272-.04-.543-.057-.815-.014-.224 0-.449.074-.666.091-.263.224-.513.54-.509.312.003.459.25.532.52.053.185.074.385.088.578.392 5.099.375 10.197.182 15.302-.168 4.376-.122 8.751-.031 13.127.017.786.017 1.572-.042 2.354-.021.267.052.368.336.383.939.042.94.042 1.172-.745l.022-.076.022-.074c.663-2.229.957-4.517 1.25-6.805.137-1.062.273-2.125.447-3.181.273-1.659.603-3.305.933-4.951.185-.925.37-1.85.546-2.776.133-.71.233-1.429.332-2.147.047-.338.094-.676.144-1.014.063-.418.134-.835.34-1.207l.017-.031c.14-.252.292-.53.642-.432.361.101.358.438.323.736-.046.383-.089.766-.131 1.15v.001c-.115 1.025-.229 2.05-.402 3.064-.2 1.172-.425 2.341-.65 3.51-.335 1.751-.67 3.502-.927 5.265-.242 1.68-.47 3.362-.687 5.042-.197 1.523-.614 2.993-1.097 4.446-.027.081-.052.164-.08.26l-.029.093-.028.092c.642.162 1.258.316 1.879.467.136.035.21-.035.245-.161l.022-.076c.012-.042.025-.084.034-.128.659-3.1 1.642-6.101 2.625-9.104v-.001c.226-.689.452-1.377.673-2.067 1.293-4.035 2.727-8.017 4.164-12 .27-.75.51-1.51.751-2.27.365-1.15.729-2.302 1.198-3.418.157-.375.333-.744.602-1.052.151-.176.326-.334.579-.221.249.112.252.347.231.579-.032.35-.12.69-.242 1.02-.54 1.418-.992 2.86-1.437 4.31-.576 1.874-1.234 3.721-1.891 5.569-.621 1.746-1.242 3.493-1.796 5.262-.43 1.372-.879 2.739-1.327 4.105-.964 2.938-1.927 5.874-2.714 8.867-.084.323-.21.639-.34.948-.087.203-.035.301.158.39.292.131.577.273.87.418l.002.002.312.154c.144-.063.199-.2.253-.334a1.76 1.76 0 01.056-.129 281.583 281.583 0 001.573-3.208c1.096-2.258 2.193-4.517 3.414-6.711 1.438-2.584 2.993-5.097 4.548-7.61l.002-.003 1.04-1.685c.242-.393.53-.762.922-1.029.207-.14.431-.235.66-.06.21.166.181.394.115.618-.084.285-.228.54-.379.797-.471.787-.946 1.573-1.42 2.359-1.663 2.754-3.326 5.508-4.864 8.34a82.705 82.705 0 00-2.485 4.915c-.704 1.53-1.51 3-2.37 4.48l.116.09c.321.25.634.494.95.732.156.115.243.01.324-.088l.051-.06a30.905 30.905 0 001.542-1.778c3.782-4.643 7.662-9.197 11.808-13.52 1.61-1.68 3.207-3.372 4.672-5.186.46-.568.95-1.105 1.48-1.607.213-.203.445-.386.718-.505.203-.088.41-.123.582.063.154.172.119.372.01.547-.14.225-.284.453-.455.653-2.471 2.94-5.047 5.786-7.648 8.614-3.284 3.569-6.417 7.274-9.512 11.007l-.306.37c-.7.852-1.4 1.704-2.284 2.427l.276.384.001.001.004.006.003.003c.245.341.489.681.75 1.04.145-.117.29-.231.434-.344.308-.241.607-.476.887-.732 4.767-4.351 10.003-8.081 15.372-11.632.305-.2.614-.393.929-.575.27-.158.56-.257.876-.27.207-.011.4.031.498.238.088.186.014.358-.105.505-.284.355-.649.618-1.017.874l-2.58 1.806-.022.016c-1.474 1.033-2.949 2.066-4.425 3.097-2.35 1.642-4.542 3.481-6.733 5.32l-1.027.86-.32.27c-.609.518-1.218 1.035-1.916 1.438-.143.084-.248.169-.15.365.122.247.235.496.35.747.066.145.132.29.2.435.178-.002.314-.086.447-.169.056-.035.112-.07.17-.097.975-.471 1.945-.953 2.915-1.435 2.806-1.395 5.614-2.79 8.539-3.927 2.148-.833 4.305-1.646 6.46-2.46h.005l.001-.001 2.57-.97c.353-.134.721-.239 1.103-.232.26.007.526.039.61.337.08.28-.109.442-.312.586a3.499 3.499 0 01-.654.34l-.07.03-.061.026c-1.83.81-3.695 1.524-5.56 2.238-1.589.608-3.176 1.216-4.74 1.882-2.475 1.053-4.925 2.165-7.322 3.393-.687.352-1.392.662-2.095.972h-.001c-.334.147-.668.294-1 .445l-.147.067c-.202.09-.302.136-.329.208-.026.072.021.17.115.368a9.25 9.25 0 01.263.588c.264.64.267.643.961.489 4.584-1.021 9.218-1.744 13.89-2.246.887-.096 1.77-.225 2.656-.355.405-.06.81-.119 1.217-.175.266-.035.532-.038.788.056.221.081.41.204.438.46.028.26-.147.407-.35.523-.227.127-.477.17-.726.214h-.002l-.117.02c-2.162.39-4.34.68-6.518.97-.96.128-1.92.256-2.878.392-2.149.306-4.283.706-6.41 1.14-.533.109-1.07.194-1.611.28l-.752.12c0 .297.172.299.334.3l.076.002c.453.02.907.04 1.361.058h.003c.903.037 1.806.075 2.709.121 4.83.26 9.638.72 14.387 1.674.978.197 1.938.45 2.853.856.207.092.407.193.571.348.277.256.375.537.256.937-.606 1.986-1.75 3.676-2.892 5.365l-.084.122a34.335 34.335 0 01-8.422 8.678c-2.555 1.835-5.288 3.361-8.3 4.372-2.33.782-4.668 1.522-7.114 1.796-3.007.337-6.018.607-9.042.779-3.274.186-6.526.084-9.765-.41a40.387 40.387 0 01-7.64-1.962 128.19 128.19 0 01-5.097-1.965c-2.299-.944-4.293-2.344-6.158-3.958-1.892-1.642-3.536-3.526-5.134-5.435-1.612-1.926-3.014-4.014-3.813-6.442a5.686 5.686 0 00-.204-.509 2.249 2.249 0 00-.117-.225c-.112-.195-.226-.395-.135-.543.186-.302.406-.625.76-.807.59-.306 1.189-.576 1.837-.716 2.962-.635 5.927-1.239 8.958-1.4 1.286-.068 2.572-.102 3.858-.136a241.617 241.617 0 005.517-.198l1.627-.07c.712-.028.757-.08.726-.856l-1.185-.09-.004-.001-1.1-.084c-1.292-.097-2.56-.345-3.825-.591l-.735-.143c-4.03-.772-8.061-1.547-12.088-2.326a8.954 8.954 0 01-1.1-.263c-.316-.102-.639-.274-.54-.68.094-.394.448-.432.785-.38.349.053.699.103 1.049.153.926.132 1.852.263 2.768.454 4.232.882 8.494 1.624 12.753 2.365l.344.06c.395.068.793.108 1.193.149.648.065 1.301.131 1.951.317l.374-1.126.001-.003c.07-.208-.073-.269-.218-.331l-.006-.003c-1.806-.765-3.566-1.627-5.326-2.49-1.41-.69-2.82-1.38-4.253-2.022a785.669 785.669 0 01-4.573-2.068c-1.984-.902-3.968-1.805-5.963-2.686-.858-.38-1.714-.769-2.52-1.257a6.072 6.072 0 00-.075-.045c-.268-.158-.59-.348-.401-.716.203-.4.61-.246.936-.112A448.32 448.32 0 0112.33 34.99c3.971 1.765 7.9 3.61 11.808 5.505.022.01.043.023.065.035.088.05.183.103.331.077l.057-.114c.107-.218.22-.45.34-.679.084-.161.01-.266-.113-.358-.243-.182-.473-.38-.702-.58-.354-.305-.707-.61-1.106-.855-1.857-1.133-3.54-2.499-5.22-3.864a270.14 270.14 0 00-.861-.697c-3.473-2.797-7.006-5.512-10.694-8.021a13.45 13.45 0 01-.876-.67 49.41 49.41 0 00-.189-.151 1.375 1.375 0 01-.396-.488c-.098-.214-.15-.431.017-.631.183-.218.421-.2.656-.116.13.045.252.119.368.2 5.064 3.544 10.041 7.207 14.78 11.182a25.188 25.188 0 003.095 2.242c.633.386 1.222.842 1.838 1.32l.135.105c.187-.292.367-.575.544-.855l.343-.538c.08-.126.014-.207-.081-.284-1.948-1.539-3.534-3.42-5.12-5.302-.483-.573-.966-1.146-1.459-1.709-1.264-1.44-2.534-2.876-3.805-4.31a1046.307 1046.307 0 01-4.484-5.086 692.888 692.888 0 00-5.44-6.137l-.03-.034c-.315-.354-.634-.71-.824-1.156-.088-.2-.148-.414.042-.586.207-.19.42-.088.613.042.26.172.466.401.672.63l.141.156c5.797 6.323 11.566 12.674 17.146 19.19.503.587 1.049 1.133 1.6 1.685.608.61 1.222 1.225 1.793 1.908a9.121 9.121 0 011.58-1.323c.021-.175-.069-.265-.15-.346a1.407 1.407 0 01-.042-.043c-2.573-2.79-4.389-6.081-6.19-9.383-1.427-2.607-2.944-5.165-4.462-7.72-.421-.712-.808-1.445-1.194-2.178v-.001c-.156-.296-.312-.592-.47-.887a1.835 1.835 0 01-.155-.435c-.06-.242-.063-.484.183-.635.241-.151.459-.046.662.095.214.147.354.357.48.579.883 1.556 1.784 3.102 2.684 4.648 1.582 2.718 3.165 5.437 4.655 8.208 1.129 2.102 2.398 4.12 3.866 6.007.368.474.69.982 1.006 1.544.515-.253 1.002-.491 1.518-.74a41.047 41.047 0 01-1.238-2.787c-1.163-2.95-2.197-5.944-3.164-8.961-1.567-4.874-3.221-9.716-5.226-14.432a35.253 35.253 0 01-1.181-3.284c-.099-.312-.165-.628-.088-.95.091-.376.35-.468.655-.233.253.197.386.474.505.762 2.5 6.158 4.931 12.34 6.824 18.723.837 2.82 1.864 5.576 2.892 8.333.28.753.56 1.506.837 2.26.012.036.03.069.057.115l.041.075c.27-.089.541-.176.816-.264l.003-.001.625-.202-.13-.574c-.092-.407-.181-.807-.28-1.205-.772-3.167-1.21-6.39-1.648-9.61l-.051-.38-.12-.87c-.456-3.335-.912-6.67-1.573-9.972-.084-.414-.12-.835-.046-1.256.032-.183.091-.369.305-.414.21-.046.337.098.452.245.123.158.21.337.238.534.152 1.015.372 2.015.592 3.015.222 1.012.445 2.024.597 3.052.183 1.24.36 2.482.537 3.724.362 2.548.724 5.095 1.148 7.633.162.967.351 1.93.54 2.89v.001c.138.703.276 1.406.403 2.11l.013.07c.137.765.138.767.94.716.136-.017.291-.025.473-.034h.001l.164-.008zm36.134 16.73a8.396 8.396 0 00-1.833.263c-1.072.277-2.166.442-3.27.547-2.11.201-4.228.276-6.345.351-1.019.036-2.037.073-3.055.123-2.748.135-5.5.194-8.251.252-2.752.06-5.504.118-8.253.253-2.938.145-5.878.108-8.821.071l-.968-.011c-1.526-.019-3.052.02-4.578.06-1.653.043-3.306.086-4.959.055-3.852-.073-7.7-.242-11.541-.505-.284-.02-.569-.038-.853-.057h-.003c-2.493-.163-4.992-.327-7.423-.989l-.015-.004c-.073-.02-.155-.043-.226.071.297 1.004.834 1.909 1.373 2.817l.057.096c1.114 1.887 2.567 3.494 4.023 5.106l.002.002.478.53c1.795 1.993 3.782 3.744 6.092 5.12 1.26.75 2.619 1.278 3.978 1.805.312.121.624.243.935.367 4.378 1.747 8.896 2.866 13.606 3.192 1.848.127 3.69.041 5.534-.044l.47-.022c2.913-.134 5.811-.442 8.706-.762 2.622-.287 5.11-1.137 7.557-2.077a30.933 30.933 0 008.492-4.958c1.913-1.565 3.655-3.305 5.18-5.263 1.157-1.484 2.17-3.063 3.137-4.674.319-.526.56-1.091.774-1.715zm-48.152.625l-.172-.001c-.004-1.46.16-2.842.389-4.225.462-2.803 1.671-5.277 3.206-7.614.442-.67.982-1.26 1.648-1.722 3.379-2.351 7.059-3.036 11.075-2.144 1.875.417 3.543 1.2 5.047 2.372 1.577 1.228 2.548 2.88 3.277 4.698.05.121.093.246.137.37.082.233.164.466.28.683.789 1.477 1.14 3.063 1.167 4.73.014.659.042 1.319.085 1.975.017.291-.07.396-.372.4-2.31.019-4.617.124-6.924.23-1.527.07-3.053.14-4.579.184-1.676.048-3.35.016-5.025-.017-1.838-.036-3.676-.072-5.514 0-.822.032-1.642.047-2.462.061h-.002l-.981.019c-.09.002-.18.002-.28 0zm-1.241-3.03c-.157-.1-.298-.089-.432-.079-.034.003-.068.006-.101.006-1.042.026-2.082.075-3.124.124-1.463.068-2.928.137-4.394.143-3.883.017-7.704.59-11.492 1.4-.02.005-.043.006-.065.008-.08.007-.168.015-.198.146l.16.036c.104.024.202.046.302.063 1.823.319 3.67.456 5.513.59 2.785.2 5.573.332 8.365.463l.362.017c1.075.05 2.151.072 3.227.092.479.01.957.019 1.435.03l.044.002c.169.005.337.01.32-.258-.045-.933-.087-1.87.078-2.782zm46.715 1.352a.681.681 0 01.383.158c-1.094.182-2.128.34-3.176.428-1.478.13-2.96.173-4.443.217-1.01.03-2.02.06-3.029.116-2.404.137-4.809.27-7.22.274-.557 0-.557-.007-.56-.558v-.021a51.038 51.038 0 00-.04-1.934c-.013-.312.057-.46.414-.442 5.895.267 11.784.593 17.588 1.748l.083.014z" clip-rule="evenodd"/>
</svg>
