<svg xmlns="http://www.w3.org/2000/svg" width="76" height="74" fill="none" viewBox="0 0 76 74">
  <path fill="#008367" fill-rule="evenodd" d="M26.126 69.398c.337-.388.665-.79.91-1.224a.685.685 0 01.343.164.993.993 0 00.1.072 15.676 15.676 0 002.407 1.44c.33.159.678.272 1.034.127.274-.113.46-.042.647.16.071.077.15.146.23.216h.001c.05.043.1.087.149.133 1.157 1.1 2.43 2.054 3.731 2.964.588.413 1.266.713 1.98.452 1.326-.483 2.673-.978 3.662-2.065.415-.459.833-.713 1.456-.483a.97.97 0 00.44.028c.428-.05.773.113 1.121.356 1.238.869 2.297.78 3.405-.243a15.28 15.28 0 003.014-3.862c.144-.264.334-.455.63-.582 1.153-.487 2.152-1.207 2.883-2.238.683-.963 1.09-2.012.507-3.183-.598-1.204-1.344-2.302-2.388-3.166-.166-.138-.197-.244-.085-.431.184-.307.36-.62.535-.931V57.1l.001-.001v-.001c.121-.214.242-.428.365-.64.942-1.624 1.266-3.311.679-5.154a22.284 22.284 0 00-1.425-3.41 14.43 14.43 0 01-1.301-3.61c-.078-.372-.153-.745-.228-1.118-.247-1.235-.494-2.472-.88-3.675-.584-1.822-.904-3.682-.837-5.61.024-.786-.028-1.594-.43-2.304-.19-.342-.105-.494.173-.713 1.365-1.074 2.807-2.035 4.25-2.997.71-.473 1.42-.946 2.12-1.433l.018-.013c1.014-.705 2.032-1.413 3.122-1.999.918-.49 1.752-1.097 2.547-1.764.379-.319.745-.652 1.11-.985.655-.595 1.31-1.19 2.037-1.701.626-.442 1.253-.78 2.044-.844.907-.07 1.547-.734 1.723-1.627.074-.381.092-.76.057-1.144-.187-1.952-.693-3.83-1.559-5.573-2.17-4.38-5.476-7.522-10.16-9.09-1.027-.345-2.061-.666-3.166-.67-.992-.003-1.702.403-2.05 1.37-.031.085-.065.17-.1.255-.044.11-.088.22-.125.33-.349 1.06-.936 1.98-1.604 2.86-.605.796-1.304 1.502-2.003 2.208-.437.44-.872.88-1.285 1.343a71.621 71.621 0 01-1.836 1.95c-.904.936-1.807 1.871-2.635 2.878-.311.377-.67.717-1.036 1.064-.171.162-.344.326-.515.496l-.073-.125a3.031 3.031 0 01-.113-.2c-.719-1.48-1.578-2.882-2.436-4.282l-.248-.405c-.132-.216-.266-.431-.4-.647-.677-1.084-1.354-2.17-1.812-3.366-.273-.716-.599-1.408-.924-2.101-.477-1.013-.953-2.026-1.264-3.109C32.4.711 31.852.25 30.983.13c-1.294-.18-2.603-.212-3.844.173-3.338 1.03-6.5 2.442-9.173 4.768-1.48 1.289-2.898 2.647-3.886 4.38-.507.883-.915 1.804-1.052 2.828-.05.353-.056.72.169.995.148.183.28.377.41.57.208.306.415.611.684.87 1.628 1.557 3.028 3.315 4.403 5.086a12.967 12.967 0 002.276 2.312 187.536 187.536 0 014.558 3.647A17.55 17.55 0 0127.61 27.8c.169.198.176.332.01.537a10.987 10.987 0 00-1.867 3.346c-.549 1.564-1.013 3.155-1.315 4.78-.275 1.478-.75 2.858-1.506 4.15-.872 1.493-1.628 3.046-2.35 4.617-.425.921-.752 1.885-.797 2.912-.028.634-.039 1.269-.05 1.904-.007.44-.015.88-.028 1.318-.028 1.006.186 1.96.57 2.884l.083.201c.095.23.189.458.29.685.056.123.077.226-.032.335-.457.466-.478 1.031-.348 1.624.063.29.144.575.236.858.203.62.41 1.242.615 1.863l.615 1.864.02.057c.038.11.078.227.072.335-.01.157-.017.316-.025.474-.024.545-.049 1.091-.204 1.619-.11.369-.209.74-.308 1.113-.21.784-.42 1.568-.726 2.325-.165.41-.288.847-.31 1.292-.07 1.5.43 2.21 1.63 2.315 1.712.152 3.122-.519 4.24-1.81zM23.7 54.757l-.117.565a3.102 3.102 0 00-1.674-.275c-.165.014-.25-.064-.303-.208l-.061-.165c-.417-1.113-.832-2.222-.765-3.453.027-.503.028-1.006.03-1.51 0-.398.002-.796.016-1.194.038-1.09.362-2.118.819-3.096a55.199 55.199 0 012.286-4.359c.791-1.359 1.27-2.81 1.59-4.355.422-2.023.876-4.056 1.825-5.927a12.474 12.474 0 012.03-2.855 58.339 58.339 0 013.422-3.375c.464-.421.88-.885 1.298-1.35.25-.277.5-.555.76-.824.989-1.026 2.012-2.018 3.035-3.01 1.403-1.359 2.805-2.718 4.118-4.162.916-1.01 1.858-1.995 2.8-2.98a151.643 151.643 0 002.894-3.084c.301-.333.62-.649.937-.965.38-.378.761-.756 1.114-1.163.643-.745 1.22-1.525 1.677-2.387.196-.37.351-.762.507-1.156.075-.191.151-.383.232-.573.253-.6.344-.66 1.002-.65.964.015 1.868.315 2.761.625 4.312 1.493 7.375 4.409 9.377 8.468a15.48 15.48 0 011.48 4.906c.046.346.05.688.007 1.034-.049.42-.288.685-.675.791-1.74.47-3.14 1.497-4.442 2.69l-.027.024c-.983.9-1.97 1.803-3.135 2.457-1.333.748-2.606 1.585-3.876 2.435-2.937 1.97-5.845 3.978-8.63 6.16-.291.227-.601.43-.911.633-.186.121-.371.242-.553.37-1.354.952-2.31 2.23-3.025 3.712-.386.801-.355 1.634-.2 2.468.169.903.236 1.81.25 2.724a12.9 12.9 0 00.387 3.004 55.272 55.272 0 002.535 7.691c.122.296.265.581.409.867.243.485.487.97.622 1.505.046.18.042.286-.099.417-.386.363-.738.762-.963 1.253-.07.148-.14.233-.338.183-1.245-.324-2.437-.042-3.612.37l-.054.02c-.118.045-.227.086-.364.01-.77-.428-1.618-.583-2.476-.682-1.217-.138-2.43-.17-3.595.335-.471.205-.89.47-1.227.861-.676.78-.704 1.12-.141 1.938-.09.072-.193.064-.293.055-.032-.003-.063-.005-.094-.005-.72-.004-1.424.092-2.103.339-.148.052-.274.091-.398-.053-.671-.791-1.603-1.017-2.563-1.158-.289-.039-.44-.155-.57-.42-.439-.883-.72-1.818-1-2.752-.077-.257-.154-.515-.235-.77-.298-.944-.651-1.869-1.005-2.794-.403-1.057-.807-2.114-1.13-3.2a71.67 71.67 0 00-.074-.25c-.217-.72-.433-1.438-.446-2.203-.004-.173-.035-.364-.246-.41-.215-.046-.313.127-.387.28-.211.423-.243.878-.159 1.337.11.596.317 1.165.535 1.73.015.038.033.075.05.113.06.128.122.26.108.427-.148.008-.26-.061-.369-.13-.032-.02-.065-.04-.098-.058-.222-.12-.458-.13-.584.096-.12.212.02.402.214.53.271.18.574.285.894.324.197.025.295.11.362.3.257.72.527 1.436.802 2.15.098.254.112.494.049.758-.078.328-.146.659-.217 1.006zm4.793-27.51c.049-.04.095-.079.137-.123.799-.848 1.643-1.649 2.487-2.45 1.05-.996 2.101-1.993 3.066-3.081 1.481-1.67 3.106-3.202 4.738-4.727.218-.204.246-.377.105-.642-.64-1.21-1.283-2.418-1.994-3.59-.15-.248-.302-.495-.454-.742v-.001h-.001v-.001c-1.081-1.76-2.162-3.52-2.865-5.482a1.447 1.447 0 00-.104-.214c-.028-.049-.055-.098-.079-.15-.234-.509-.515-.995-.796-1.481-.49-.849-.979-1.697-1.223-2.666-.095-.381-.362-.55-.745-.604-1.186-.158-2.357-.134-3.517.17-1.005.261-1.946.687-2.886 1.112-.316.143-.632.286-.951.423-3.187 1.37-5.744 3.551-7.882 6.248a6.74 6.74 0 00-1.365 3.007v.006c-.029.157-.058.324.053.457.167.197.315.409.462.62.26.373.52.746.885 1.038.38.307.784.636 1.01 1.073.395.775.947 1.424 1.498 2.073.213.25.425.5.63.758 1.237 1.567 2.609 2.969 4.244 4.14 1.977 1.423 3.866 2.973 5.483 4.882l.064-.053zm16.75 29.833l-.118-.064c.464-.777 1.141-1.332 1.835-1.9.453-.371.912-.748 1.323-1.195-.587-.08-1.017.139-1.416.341-.15.077-.296.15-.444.206-.277-.739-.572-1.468-.867-2.197v-.001c-.532-1.315-1.062-2.626-1.483-3.979-.51-1.638-1.002-3.283-1.325-4.97a6.773 6.773 0 01-.113-1.066c-.035-1.27-.084-2.541-.33-3.794-.13-.65.003-1.253.312-1.822.669-1.228 1.495-2.322 2.684-3.095.795-.519 1.558-1.084 2.318-1.648l.066-.053c.082-.067.167-.137.3-.148.253.487.372 1.013.38 1.56l.004.555c.008 1.135.016 2.267.294 3.384.067.266.125.534.182.802v.001c.096.442.191.883.325 1.318.372 1.2.66 2.425.861 3.67.331 2.052.985 3.996 1.974 5.828.478.893.826 1.84 1.104 2.82.44 1.54.169 2.958-.623 4.303-.664 1.126-1.308 2.263-1.829 3.466-.068.157-.151.307-.234.457a9.837 9.837 0 00-.142.263c-.313.604-.777.996-1.424 1.26a13.611 13.611 0 01-4.33.971c-1.171.07-2.335.099-3.489-.099-1.062-.18-2.064-.572-3.06-.963A29.41 29.41 0 0133.35 59c-.408-.25-.401-.286-.13-.678.52-.755 1.29-1.066 2.145-1.14 1.347-.116 2.68.018 3.985.374.032.01.062.027.091.043l.04.02c0 .012 0 .023.002.033.002.018.004.034-.003.045-.02.037-.042.073-.066.11-.099.156-.2.316-.032.487.175.176.359.067.526-.032l.079-.046c.875-.487 1.818-.737 2.803-.864.531-.067 1.04.033 1.552.134l.09.017.317.063c.195.04.39.08.587.11l.013.003c.139.024.312.055.363-.13.045-.169-.099-.257-.224-.334l-.008-.005a5.524 5.524 0 00-.236-.13zm-1.524 8.526l.004.005.002.004c-.169-.036-.278-.113-.387-.191-.29-.205-.553-.446-.815-.686-.356-.327-.711-.653-1.137-.888-1.27-.706-2.588-1.147-4.055-.632-.214.074-.443.099-.615-.099-.162-.184-.067-.36.028-.534l.022-.041.01-.018.01-.021a5.053 5.053 0 00-1.227-.907c-1.08-.58-2.188-1.073-3.454-1.045-1.024.025-1.931.332-2.712 1.002-.422.364-.408.47.06.791.419.283.837.565 1.238.872.92.71 1.837 1.421 2.753 2.133 1.067.828 2.134 1.656 3.205 2.48.897.688 1.871 1.225 2.975 1.51.32.086.637.202.932.343.76.37 1.558.593 2.392.724 1.379.212 2.515-.138 3.401-1.27.283-.364.524-.755.766-1.147.321-.522.644-1.046 1.07-1.508l-.148-.138a10.742 10.742 0 00-.176-.162 42.862 42.862 0 00-.898-.772c-.632-.532-1.262-1.063-1.824-1.667-.334-.357-.665-.494-1.15-.445-.4.042-.808.032-1.225.023-.184-.005-.37-.009-.558-.009.518.788 1.016 1.54 1.513 2.293zM29.061 60.38l.054.053c-.066.06-.131.117-.195.173-.148.128-.287.25-.41.385-.643.684-.612 1.412.137 1.959 1.363.996 2.683 2.044 4.004 3.093 1.08.858 2.16 1.715 3.263 2.543 1.002.756 2.078 1.363 3.299 1.688.376.102.731.256 1.106.419.231.1.47.204.726.3-.12.1-.234.199-.344.293l-.002.002c-.22.19-.426.368-.646.525-.735.53-1.568.871-2.416 1.168-.64.222-1.178-.088-1.678-.445a36.224 36.224 0 01-2.87-2.322c-.91-.812-1.81-1.635-2.697-2.471-.93-.88-1.669-1.913-2.408-2.948-.278-.39-.557-.78-.845-1.16a51.119 51.119 0 01-.322-.434c-.53-.719-1.059-1.434-1.768-1.998-.175-.142-.168-.255-.031-.428.345-.43.774-.755 1.259-1.006a.942.942 0 01.422-.112c.809.024 1.59.162 2.272.642.03.021.058.048.09.081zm16.687 2.813c.362.3.712.599 1.057.895.8.685 1.575 1.348 2.417 1.925.507.346 1.126.41 1.703.177 1.104-.445 2.075-1.112 2.75-2.104.718-1.052.65-1.563.106-2.46-.173-.284-.36-.56-.547-.835a46.31 46.31 0 01-.248-.369c-.304-.455-.667-.858-1.061-1.294l-.093-.103c-.114.221-.221.442-.327.66-.256.532-.504 1.045-.834 1.503.778.872 1.147 1.6 1.035 2.033-.177.055-.272-.068-.354-.175l-.009-.012c-.26-.337-.593-.591-.926-.846a21.844 21.844 0 01-.203-.156c-.123-.095-.225-.155-.397-.074a14.55 14.55 0 01-4.07 1.235zM25.912 58.69l.07.102c-.75.427-1.407.875-1.857 1.567-.345.53-.363.879.077 1.288.934.87 1.672 1.898 2.41 2.924.276.385.553.77.84 1.146l.28.369.001.002c.659.87 1.315 1.739 2.128 2.474l.008.008.015.013c.048.041.099.085.093.194-.255-.096-.468-.242-.681-.386l-.139-.094a45.474 45.474 0 01-3.626-2.672c-1.27-1.038-2.12-2.365-2.676-3.879-.398-1.087-.757-2.19-1.116-3.291-.145-.447-.29-.894-.439-1.34a1.976 1.976 0 01-.105-.47c-.056-.571.415-.892.963-.748.918.239 1.656.773 2.398 1.31l.216.155c.474.344.798.822 1.14 1.328zm.492 8.965l-.135-.105c-1.415-1.093-2.814-2.175-3.643-3.834-.172.847-.425 1.63-.686 2.414-.263.794-.52 1.591-.777 2.389a2.13 2.13 0 00-.091.47c-.081.762.235 1.193.9 1.26 1.85.187 3.753-1.25 4.432-2.594zm19.91 3.77c-.46.2-.876.14-1.323-.188 1.428-.61 2.3-1.712 2.99-3.003.137-.257.294-.506.451-.755.08-.127.16-.254.238-.382.078-.13.17-.198.33-.116.29.14.592.233.922.296-.035.264-.173.458-.306.645l-.038.054-.053.074c-.685.97-1.373 1.944-2.262 2.75a3.386 3.386 0 01-.95.624zm-21.3-15.242c-.07-.19-.141-.38-.214-.572-.118-.316-.24-.64-.366-.984-.383 1.006-.38 1.013.58 1.556zm12.633 5.897l.015.005c-.002.003-.003.007-.003.011-.001.006-.002.01-.004.01-.009 0-.015-.002-.022-.005l-.006-.002.003-.012c0-.005.002-.01.004-.01.005 0 .009.002.013.003z" clip-rule="evenodd"/>
  <path fill="#008367" d="M13 35.846c0 1.337-.297 2.62-.734 3.875-.232.665-.655 1.215-1.215 1.657-.893.701-1.877 1.226-2.99 1.506-.615.155-1.226.13-1.845.068-2.032-.212-3.684-1.1-4.935-2.71-1.298-1.671-1.58-3.558-.98-5.535.673-2.21 1.92-4.051 4.028-5.173 1.016-.543 2.144-.683 3.243-.37 2.014.572 3.573 1.794 4.668 3.573.586.949.77 2.01.76 3.11z"/>
  <path fill="#008367" d="M71.125 30.002a5.738 5.738 0 012.662.571c.17.083.344.162.481.295.297.291.269.672-.083.895-1.474.934-2.09 2.304-2.06 3.993.017 1.06.133 2.106.506 3.112.323.87 1.09 1.463 2.029 1.517.279.015.557 0 .833.036.467.061.648.435.387.823-1.057 1.581-2.477 2.606-4.44 2.735-2.34.158-4.36-.586-6.056-2.192-.956-.906-1.344-2.067-1.38-3.332-.05-1.887.355-3.69 1.137-5.416a4.4 4.4 0 011.471-1.786c1.166-.834 2.648-1.269 4.513-1.251z"/>
  <path fill="#008367" d="M36.692 33c.293.257.286.573.304.875.036.633-.177 1.227-.467 1.765-.546 1.016-1.234 1.92-2.442 2.282-.22.066-.441.112-.67.045-.22-.066-.376-.204-.412-.436-.032-.235.087-.4.293-.51a3 3 0 01.38-.161c1.397-.482 2.026-1.578 2.424-2.855.12-.372.167-.773.59-1.005z"/>
</svg>
