<svg xmlns="http://www.w3.org/2000/svg" width="71" height="72" fill="none" viewBox="0 0 71 72">
  <path fill="#008367" fill-rule="evenodd" d="M29.114 31.343c.23.755.49 1.5.78 2.254-.14.061-.236.026-.33-.009a1.05 1.05 0 00-.076-.026c-.836-.321-1.686-.568-2.593-.572-.227 0-.388-.137-.55-.275-2.159-1.848-4.657-2.59-7.471-2.328-1.082.099-2.145.003-3.153-.452-.28-.127-.564-.176-.795.082-.241.271-.157.564.018.836.864 1.337 1.882 2.55 3.139 3.513 2.257 1.729 4.77 2.113 7.468 1.252.245-.078.49-.16.734-.24.488-.163.976-.325 1.471-.469l.05-.014c.452-.13.943-.272 1.378-.11.84.315 1.603.82 2.128 1.564.63.892 1.21 1.823 1.686 2.808.658 1.354 1.183 2.762 1.39 4.268.06.448-.095.61-.518.438-.864-.353-1.729-.727-2.362-1.465-1.442-1.668-3.262-2.296-5.418-2.046-.654.075-1.276.271-1.9.468-.2.063-.4.126-.602.185-1.253.367-2.52.628-3.811.134-.217-.081-.42-.035-.56.162-.147.205-.12.427-.004.635.175.31.47.49.76.665l.003.002c.172.104.348.198.525.293.263.142.525.283.77.451.816.561 1.683 1.016 2.565 1.45.02.01.04.017.063.024.074.025.154.052.179.188l-.115.025-.114.024h-.006v.001a44.006 44.006 0 01-1.056.218c-.569.112-1.137.224-1.69.384-2.227.646-4.4 1.45-6.475 2.509-.245.123-.497.222-.78.243-2.962.201-5.915.014-8.858-.268-.949-.092-1.656.145-2.216.917-1.2 1.662-2.145 3.436-2.481 5.493C.035 56.082.003 57.627 0 59.169c0 .818.276 1.584.605 2.321.42.938.896 1.228 1.904 1.04.777-.143 1.552-.11 2.326-.077.292.013.585.025.876.028 1.124.01 2.216.374 3.259.819 1.348.578 2.693 1.163 4.038 1.748l2.02.876c1.998.864 4.087 1.422 6.226 1.74 1.85.275 3.71.514 5.564.75 4.977.629 9.834 1.807 14.653 3.15 1.498.42 2.989.565 4.5.308 2.262-.385 4.53-.441 6.808-.332.196.01.395-.01.588-.035.672-.088 1.256-.356 1.494-1.044.242-.702.025-1.323-.476-1.852-.024-.026-.052-.05-.08-.074-.088-.075-.179-.153-.19-.3l.05-.014c.043-.012.079-.022.115-.025l1.27-.072h.005c1.155-.067 2.311-.134 3.467-.185 2.341-.103 4.68-.198 7.024-.085.731.035 1.186-.378 1.501-1.01.298-.595.133-1.096-.27-1.558a7.694 7.694 0 00-.437-.455 28.858 28.858 0 00-.434-.413 58.016 58.016 0 01-.248-.233c.133-.085.25-.07.36-.056.03.005.061.009.091.01.34.018.683.021 1.019-.028 1.127-.162 1.63-1.03 1.242-2.106-.325-.9-.9-1.573-1.767-1.968-1.05-.477-2.124-.904-3.28-1.052-.706-.091-1.415-.173-2.123-.255-.41-.047-.82-.094-1.229-.143a1.414 1.414 0 00-.098-.007c-.118-.006-.24-.013-.332-.12.037-.107.119-.155.2-.203a.893.893 0 00.09-.058c.329-.25.605-.543.773-.928.252-.575.116-.995-.423-1.298a2.266 2.266 0 00-.93-.293c-1.46-.113-2.916-.222-4.368.148-1.383.353-2.681.89-3.917 1.598l-.013.008c-.167.096-.322.185-.536.15a31.23 31.23 0 00-1.26-.173c-.63-.078-1.26-.157-1.883-.292-4.49-.977-8.739-2.642-12.896-4.568l-.041-.018c-.116-.05-.242-.104-.32-.268.27-.268.564-.522.882-.751 1.245-.895 2.675-1.353 4.107-1.812l.124-.04c1.225-.395 2.415-.864 3.535-1.51 2.103-1.21 3.601-2.893 4.224-5.309.312-1.203.375-2.36-.213-3.5-.452-.87-1.075-1.09-1.946-.638-.54.279-1.008.66-1.452 1.073-.172.16-.341.321-.511.483-.497.473-.994.947-1.526 1.375-1.649 1.334-3.602 1.88-5.67 2.085-.262.025-.311-.112-.332-.32-.07-.66-.22-1.299-.392-1.937-.396-1.457.644-3.013 2.124-3.232.597-.088 1.196-.104 1.795-.12.38-.01.762-.02 1.141-.049 2.415-.183 4.494-1.072 6.013-3.051.56-.73 1.025-1.528 1.382-2.385l.05-.121c.076-.178.15-.357.216-.539.091-.254.077-.5-.136-.691-.2-.18-.43-.162-.662-.06a2.95 2.95 0 00-.21.106c-.847.465-1.736.72-2.712.638-.212-.019-.426-.014-.64-.008-.1.002-.201.005-.301.005-2.688-.01-4.714 1.16-6.142 3.45-.139.222-.27.45-.401.676-.407.704-.814 1.409-1.433 1.966-.1.091-.174.212-.248.334-.037.061-.075.123-.116.181-.158.222-.315.44-.511.709-.47-1.066-1.076-2.024-1.677-2.974-.337-.533-.673-1.065-.983-1.612-.83-1.467-1.361-3.048-1.778-4.677-.147-.576.014-.999.375-1.405.591-.663 1.347-.93 2.208-.945.521-.01 1.041.021 1.56.052.422.026.844.05 1.264.054 1.607.01 3.192-.018 4.606-1.069 1.435-1.065 2.565-2.31 3.174-4.01.113-.316.22-.632.327-.95l.096-.285.015-.043c.091-.262.183-.528-.039-.776-.227-.25-.518-.17-.773-.088-1.32.413-2.664.331-4.011.226-1.07-.082-2.16-.078-3.07.568-1.592 1.129-2.9 2.554-3.845 4.272-.305.553-.602 1.047-1.155 1.382-.219.134-.406.319-.604.512-.094.092-.19.187-.292.279a4.49 4.49 0 00-.02-.093.759.759 0 01-.019-.108 9.448 9.448 0 011.31-5.186c.367-.631.755-1.251 1.142-1.872.582-.93 1.163-1.861 1.681-2.83.347-.65.92-1.034 1.575-1.306 2.922-1.224 4.662-3.428 5.208-6.54.556-3.154-.077-6.223-.868-9.263a.748.748 0 00-.032-.089l-.01-.024c-.116-.275-.294-.476-.613-.473-.304.004-.472.201-.57.466-.224.592-.584 1.09-1.032 1.524-.497.486-1.005.963-1.52 1.432a7.868 7.868 0 00-1.277 1.492c-2.015 3.062-1.998 6.322-.934 9.68.136.427.154.808-.098 1.167-.513.731-.965 1.5-1.417 2.27-.495.842-.99 1.684-1.565 2.475-.72.998-1.32 2.06-1.662 3.256l-.009.033c-.02.078-.04.157-.12.203a.253.253 0 00-.022-.004c-.018-.004-.036-.008-.049-.02a.655.655 0 01-.101-.12c-.686-1.013-1.137-2.092-1.053-3.362.073-1.083-.004-2.166-.319-3.214l-.021-.07c-.319-1.05-.642-2.116-1.498-2.875-.826-.73-1.662-1.454-2.555-2.096-.183-.131-.372-.255-.56-.378-.632-.413-1.258-.823-1.662-1.512-.105-.18-.318-.23-.525-.127-.206.098-.262.285-.23.497.018.116.058.232.097.346l.01.031c.33.939.543 1.895.543 2.9 0 .42.034.84.069 1.26.02.252.04.503.054.754.112 2.135.91 3.983 2.425 5.465.749.73 1.634 1.319 2.75 1.368.127.007.221.07.309.152 1.169 1.108 1.97 2.37 1.861 4.089a11.962 11.962 0 00.487 4.26zm20.23 27.138c.074.003.155.007.233.116-.319.24-.637.484-.949.724l-.852.601-.004.003-.848.598c-.175.127-.354.22-.581.187a145.49 145.49 0 00-1.736-.231c-1.768-.23-3.537-.458-5.274-.883-1.323-.325-2.646-.65-3.906-1.186-.308-.13-.633-.155-.962-.148-.203.004-.43.032-.49.247-.05.188.094.28.233.367.033.02.066.042.096.064 1.28.938 2.782 1.337 4.276 1.71 1.957.487 3.924.942 5.95 1.02h.068c.105-.002.214-.004.3.088-.006.116-.089.16-.168.203a.832.832 0 00-.064.037c-1.298.843-2.733 1.263-4.262 1.323-1.939.077-3.87-.081-5.8-.261-.209-.022-.417-.049-.625-.076h-.001c-.168-.021-.335-.043-.504-.062-.311-.032-.591.032-.696.37-.105.332.077.561.354.71.325.169.654.331.993.472 1.866.77 3.738 1.524 5.66 2.135 2.365.75 4.808 1.037 7.275 1.072 1.719.025 3.391.205 5.005.829.546.212 1.04.49 1.47.889.192.176.336.391.248.663-.08.244-.309.295-.526.344l-.01.002c-.22.05-.44.039-.664.025a29.07 29.07 0 00-6.573.306c-1.452.233-2.859.127-4.3-.285-2.916-.836-5.838-1.672-8.827-2.24-3.797-.72-7.615-1.253-11.444-1.76-2.002-.265-3.944-.823-5.816-1.602-.697-.29-1.392-.586-2.087-.881-1.415-.602-2.83-1.203-4.262-1.761-1.403-.55-2.863-.9-4.399-.875a17.12 17.12 0 01-.785-.012c-.613-.018-1.225-.036-1.833.1-.283.063-.483-.046-.58-.332l-.05-.143c-.24-.703-.48-1.404-.437-2.164.019-.327.033-.655.048-.982.061-1.371.122-2.742.498-4.08.434-1.549 1.253-2.892 2.166-4.187a.708.708 0 01.704-.328c2.439.23 4.878.391 7.328.367.016 0 .031.008.053.02l.038.018c-.032.121-.125.177-.216.23a1.192 1.192 0 00-.082.053c-.147.109-.297.215-.446.32v.001c-.44.312-.88.623-1.258 1.012l-.018.019-.028.028c-.13.128-.27.269-.143.454.12.174.292.103.452.037l.084-.033c.731-.27 1.388-.68 2.043-1.09.178-.112.356-.223.536-.332 1.487-.896 3.062-1.598 4.658-2.268 3.272-1.376 6.702-2.064 10.195-2.47a83.043 83.043 0 013.202-.287c.64-.05 1.281-.099 1.921-.157.297-.028.486.063.651.314.164.25.36.49.577.695.228.215.287.444.231.744-.248 1.37-.791 2.634-1.335 3.9l-.163.38c-.011.023-.026.044-.042.068a1.851 1.851 0 00-.024.037c-.398-.156-.736-.418-1.074-.68-.494-.382-.99-.765-1.673-.82-.018.629.318 1.006.654 1.366a5.35 5.35 0 001.253 1.012c.263.148.305.304.158.572-.62 1.129-1.089 2.31-1.134 3.626v.001c-.01.37-.021.737.087 1.096.088.293.242.561.592.53.378-.032.42-.346.423-.65.007-1.421.392-2.73 1.113-3.947.136-.23.234-.293.483-.148 1.578.929 3.273 1.592 4.968 2.256l.803.315c1.893.748 3.825 1.358 5.785 1.888a28.688 28.688 0 004.06.795l.017.001h.01zM37.539 64.45a.315.315 0 01.017.033l.008.017a.053.053 0 00.013.017c.06.029.12.055.181.08l.05.022.056.025c2.25 1.001 4.623 1.495 7.059 1.753a2.673 2.673 0 001.62-.339 29.844 29.844 0 006.52-4.907c1.31-1.298 2.838-2.279 4.592-2.885.644-.222 1.28-.466 1.872-.815l.02-.012c.214-.127.434-.257.523-.496-.077-.137-.188-.148-.288-.159h-.003c-1.225-.12-2.45-.197-3.671.064-1.834.391-3.468 1.23-5.04 2.233-.812.517-1.591 1.083-2.37 1.648-.861.626-1.723 1.251-2.63 1.812-1.264.78-2.548 1.454-4.015 1.732-1.35.258-2.705.25-4.066.148a1.447 1.447 0 01-.093-.013h-.001c-.117-.019-.239-.039-.354.042zm-2.75-13.853c-.057.048-.119.099-.243.053.024-.064.046-.127.068-.191v-.001c.06-.167.118-.333.191-.496.644-1.493 1.022-3.045 1.015-4.681 0-.297.13-.378.392-.413 1.243-.17 2.482-.339 3.668-.815 1.641-.66 2.989-1.718 4.214-2.967.458-.469.92-.938 1.483-1.284.368-.226.445-.2.62.184.329.723.262 1.46.098 2.208-.592 2.698-2.355 4.356-4.742 5.471-.812.38-1.656.673-2.5.966-.69.24-1.38.479-2.053.766-.76.325-1.498.685-2.174 1.172-.012.008-.024.018-.036.028zM47.886 66.5l.147.026c.068.013.107.02.147.02 1.25.035 2.474.226 3.657.65a.85.85 0 00.385.06 8.118 8.118 0 011.072-.06c.283-.003.567-.006.85-.033 3.114-.3 6.236-.43 9.365-.486.836-.014 1.673-.014 2.509.056.217.018.378-.056.483-.261.108-.208.014-.356-.123-.494-.458-.47-.91-.924-1.574-1.132-1.617-.508-3.241-.928-4.945-.999a15.904 15.904 0 01-1.873-.204c-1.641-.261-3.286-.49-4.955-.494-.294 0-.525.07-.75.261l-.17.142c-.688.574-1.375 1.148-2.128 1.643-.534.352-1.077.683-1.671 1.045l-.426.26zm6.18-4.324a.525.525 0 01-.318-.064c.207-.318.47-.554.75-.752l.143-.104c.84-.611 1.685-1.226 2.642-1.66.336-.151.672-.24 1.025-.169 1.296.255 2.605.414 3.914.573.47.057.94.114 1.41.175 1.021.134 1.983.48 2.929.868.605.247 1.063.663 1.301 1.295.168.44.053.645-.42.702a3.38 3.38 0 01-.626.01 93.182 93.182 0 00-5.526-.233c-1.462-.012-2.902-.212-4.342-.411l-.572-.079a18.878 18.878 0 00-2.229-.152l-.081.001z" clip-rule="evenodd"/>
  <path fill="#008367" fill-rule="evenodd" d="M67.227 42.822l-.08-.149.077-.026c.032-.012.054-.02.078-.02 1.978-.24 3.252-1.868 3.637-3.731.303-1.466-.55-2.57-1.971-2.54-1.464.029-2.793.532-4.013 1.375a255.568 255.568 0 01-1.116.77 5.577 5.577 0 01-.015-.145 1.99 1.99 0 00-.023-.177c-.044-.246-.168-.437-.415-.47-.255-.036-.516.01-.632.279-.125.288-.342.483-.559.678-.183.165-.367.33-.496.552-.062-.557-.213-1.06-.392-1.552-.089-.24-.26-.377-.515-.322-.22.047-.316.217-.34.437-.02.188.038.351.158.485.175.2.213.43.151.699a1.474 1.474 0 01-.223-.366 21.893 21.893 0 00-1.305-2.482c-.86-1.43-2-2.49-3.549-3.021-.896-.308-1.583.14-1.655 1.129-.035.47-.055.951.04 1.414.313 1.524.736 2.99 2.076 3.937-.065.048-.129.092-.19.134a2.647 2.647 0 00-.34.26l-.141.135c-.473.444-.96.9-1.01 1.62-.092 1.34.41 2.443 1.423 3.242.663.521 1.415.663 2.222.319.698-.297 1.388-.6 2.055-1.06.034.484.061.89.085 1.291l.002.033c.01.172.019.352.229.365.21.014.24-.168.269-.337l.005-.032.013-.078c.039-.244.079-.499.293-.718.392.717.855 1.325 1.446 1.813.313.257.653.478 1.055.43 1.333-.159 2.61-.488 3.634-1.48.381-.368.533-.846.502-1.392-.028-.48-.243-.878-.47-1.299zm-1.083-1.241c-1.185-.24-2.346-.576-3.58-.977.37-.277.728-.563 1.083-.848 1.156-.926 2.284-1.83 3.682-2.29.495-.159 1-.253 1.508-.318.87-.112 1.432.481 1.281 1.397-.36 2.189-1.762 3.484-3.974 3.036zm-8.859-1.394c-.844-.02-1.298.571-1.753 1.163l-.074.097c-.155.202-.196.43-.165.684.093.8.436 1.472.992 2.004.382.366.852.583 1.381.405.622-.21 1.24-.445 1.797-.817.597-.398 1.051-.909 1.037-1.726a2.38 2.38 0 01.066-.605c.089-.372-.073-.51-.389-.579-.201-.043-.404-.084-.607-.125-.501-.1-1.003-.202-1.495-.349-.17-.048-.348-.077-.526-.106a9.31 9.31 0 01-.264-.045zm2.586-1.141c.144.3.29.607.444.92-.418-.042-.764-.162-1.096-.277-.12-.042-.24-.083-.36-.12-.592-.181-1.182-.362-1.784-.503a1.888 1.888 0 01-1.25-.934c-.635-1.114-1.082-2.294-1.061-3.625.01-.72.213-.85.858-.594 1.543.608 2.556 1.813 3.329 3.275.318.601.612 1.216.92 1.858zm1.71 3.444l-.13.621a.511.511 0 00.052.355c.447.857.924 1.686 1.656 2.32.213.184.44.281.711.23.917-.166 1.807-.426 2.566-1.027.412-.326.501-.677.292-1.176a2.3 2.3 0 00-1.467-1.342c-.746-.244-1.497-.463-2.249-.682-.287-.083-.573-.167-.86-.252l-.04-.012c-.097-.031-.198-.063-.327-.006l-.203.971zm.743-2.61c-.079-.489.605-1.133 1.079-1.006l-.779.726-.3.28z" clip-rule="evenodd"/>
  <path fill="#008367" fill-rule="evenodd" d="M56.655 19.354c-.016.05-.033.1-.054.149l-.172-.12c-.233-.163-.445-.31-.661-.441-.76-.484-1.582-.771-2.472-.782-.886-.012-1.437.675-1.264 1.579.187.985.681 1.752 1.56 2.217.209.11.434.155.673.204.074.015.148.03.224.047l-.155.325c-.357.73-.233 1.284.417 1.756.575.42 1.243.594 1.924.7.332.053.618-.08.876-.302.353-.306.64-.678.876-1.103.16.135.183.289.206.439l.013.078c.02.1.056.191.173.188.122-.007.133-.107.143-.2l.002-.01.044-.43.04-.4c.452.261.865.464 1.296.641.629.259 1.173.089 1.642-.361.424-.402.657-.923.735-1.52a1.327 1.327 0 00-.283-1.04c-.196-.254-.435-.459-.668-.658a15.835 15.835 0 01-.094-.08c.995-.92 1.366-2.07 1.32-3.388-.025-.704-.48-.996-1.12-.763a4.023 4.023 0 00-1.482.926c-.572.575-.95 1.284-1.328 1.996-.084.156-.163.316-.25.49-.052.107-.107.218-.167.336-.05-.21.02-.325.084-.434.018-.031.036-.062.05-.093.092-.196.082-.399-.134-.491-.205-.089-.325.059-.385.243-.063.195-.117.394-.173.603l-.077.287a5.168 5.168 0 00-.201-.18c-.146-.126-.285-.246-.382-.396l-.026-.041c-.115-.179-.214-.333-.45-.306-.196.023-.245.172-.3.335zm.162 1.027c.21.168.42.336.639.501l-.026.01c-.884.299-1.73.585-2.605.673-1.356.125-2.08-.823-2.26-2.066-.078-.524.268-.867.784-.83.65.044 1.264.243 1.843.56.58.318 1.096.73 1.625 1.152zm3.944.254c-.52.118-1.187.273-1.854.428-.085.019-.17.07-.155.159.019.121.026.245.033.368.02.339.04.676.299.96.33.363.75.536 1.171.71.08.032.159.064.238.098.423.185.776.04 1.087-.255.209-.195.35-.442.463-.715.335-.812-.261-1.75-1.282-1.753zm-1.032-.376l-.804.232c.123-.246.24-.492.354-.734.422-.895.823-1.746 1.507-2.417.363-.357.787-.597 1.246-.782.332-.133.47-.033.484.343.039.952-.293 1.779-.791 2.546a.868.868 0 01-.47.365c-.498.151-.999.295-1.526.447zm-2.461 1.368c-.611.183-1.195.358-1.769.558-.31.11-.543.38-.695.705-.156.332-.117.608.183.833.484.362 1.042.528 1.614.642.145.03.29.004.413-.096.505-.402.872-.93 1.12-1.527.1-.252.033-.5-.041-.772a2.577 2.577 0 01-.108-.56c-.244.075-.483.146-.717.217zm.396-1.328c-.025.026-.053.056-.081.082l-.241-.227c-.118-.111-.237-.222-.352-.334.32-.042.45.152.58.345.03.046.06.092.094.134z" clip-rule="evenodd"/>
  <path fill="#008367" fill-rule="evenodd" d="M4.275 21.392c.063.108.13.219.075.408-.085-.165-.166-.325-.245-.482-.141-.28-.277-.55-.422-.816-.574-1.05-1.286-1.952-2.421-2.388-.797-.307-1.272.01-1.262.905.018 1.254.398 2.352 1.322 3.195-.037.094-.11.143-.183.19-.039.026-.077.052-.11.083l-.083.08c-.27.256-.551.522-.618.9-.145.843.17 1.556.758 2.115.504.477 1.096.57 1.727.255.26-.131.523-.253.8-.382l.37-.173.03.323c.01.13.022.253.034.376l.003.061c.004.106.008.22.138.238.141.02.16-.095.176-.2l.01-.058.015-.066c.027-.132.056-.267.183-.378.26.407.514.773.85 1.069.26.232.549.395.898.343.694-.103 1.371-.288 1.956-.717.62-.455.74-1.024.409-1.734-.013-.027-.03-.053-.047-.08-.049-.074-.1-.152-.066-.264 1.318-.207 2.062-1.068 2.376-2.377.232-.954-.335-1.697-1.273-1.675-.888.023-1.706.311-2.46.803-.199.13-.392.264-.592.404l-.243.169a2.076 2.076 0 01-.035-.136c-.04-.175-.077-.334-.279-.363-.244-.037-.348.122-.474.315l-.009.014c-.1.156-.242.282-.386.41-.067.06-.134.12-.199.185l-.088-.315c-.057-.202-.11-.396-.17-.587-.059-.192-.179-.333-.383-.237-.208.096-.23.296-.134.492.015.032.033.063.052.095zm3.786 2.16c-.835-.11-1.646-.373-2.516-.665.216-.164.426-.332.634-.498.787-.628 1.546-1.234 2.488-1.532.318-.1.642-.17.97-.192.528-.041.856.277.79.82-.163 1.328-.98 2.252-2.366 2.067zm-5.784-.906c-1.043-.022-1.646.92-1.29 1.79.106.259.247.491.44.68.31.296.663.447 1.086.259.098-.044.198-.085.298-.127.194-.08.389-.161.573-.261.673-.363.948-.925.87-1.705-.014-.137-.074-.2-.186-.225a272.91 272.91 0 00-1.79-.41zm1.634-.497l.16.346c-.235-.07-.462-.136-.684-.2-.585-.171-1.133-.331-1.677-.503-.205-.063-.363-.229-.476-.418C.79 20.64.484 19.86.5 18.969c.007-.474.134-.551.567-.377.78.314 1.368.865 1.826 1.582.387.607.686 1.257 1.017 1.976zm1.105 1.27c.001.208-.052.398-.102.58-.074.264-.143.51-.032.77.236.54.564 1.024.997 1.42.187.17.385.232.617.177.413-.097.818-.215 1.192-.422.764-.421.807-.998.12-1.556l-.023-.019c-.106-.087-.22-.18-.344-.218-.615-.193-1.234-.378-1.896-.574l-.53-.158zm.58-1.197c-.077.068-.159.141-.245.225.169-.503.352-.67.67-.67-.116.172-.259.299-.424.445z" clip-rule="evenodd"/>
  <path fill="#008367" d="M18.79 53c.998.14 1.954.496 2.9.899 2.422 1.04 4.523 2.571 6.428 4.405.458.442.966.827 1.348 1.349.126.172.259.338.37.521.134.22.267.471.046.701-.22.23-.465.097-.679-.043a4.693 4.693 0 01-.5-.388 686.547 686.547 0 01-2.424-2.111c-1.806-1.582-3.798-2.852-6.036-3.693a13.25 13.25 0 00-1.162-.367c-.19-.05-.382-.097-.56-.18-.28-.126-.588-.28-.508-.665.084-.396.427-.417.777-.428z"/>
</svg>
