<svg xmlns="http://www.w3.org/2000/svg" width="78" height="74" fill="none" viewBox="0 0 78 74">
  <path fill="#008367" fill-rule="evenodd" d="M36.2.197l-.005.022c-.13-.013-.212.071-.288.15l-.045.046c-.926.873-1.996 1.465-3.214 1.87-1.658.549-2.756 1.763-3.421 3.343-.557 1.317-.627 2.732-.648 4.14l-.001.24c0 .413 0 .825-.154 1.217-.662 1.7-1.468 3.334-2.658 4.724-1.731 2.028-3.762 3.714-6.05 5.083l-.057.036c-.097.064-.2.133-.383.115.164-.482.208-.978.252-1.471.027-.299.053-.596.107-.89.137-.76.517-1.412.978-2.035 1.169-1.58 1.669-3.312 1.144-5.284-.303-1.14-.788-2.196-1.33-3.227-.395-.75-.655-1.514-.69-2.366-.024-.586-.101-1.172-.179-1.755l-.011-.09c-.04-.302-.198-.549-.539-.545-.352.004-.458.275-.493.577-.01.07-.014.141-.01.212.091 1.657-.465 3.129-1.324 4.502a7.977 7.977 0 00-1.253 4.73c.091 1.996.799 3.633 2.52 4.745.173.113.254.243.243.451-.035.662-.074 1.324-.27 1.96-.25.8-.624 1.447-1.469 1.824-1.858.827-3.421 2.087-4.878 3.499-1.264 1.225-2.12 2.654-2.43 4.39-.045.26-.203.344-.408.418-1.44.534-2.796 1.241-4.153 1.948a91.6 91.6 0 01-1.623.833c-.816.405-1.59.901-2.316 1.46-.553.423-.901.983-.915 1.687-.028 1.556.376 2.89 1.799 3.801.68.438 1.38.837 2.08 1.235a58.81 58.81 0 011.556.906l.003.002c.174.104.299.179.222.448-.257.922.394 1.778 1.348 1.82.44.018.877-.053 1.288-.19.384-.13.694-.05 1.035.144 3.377 1.924 6.763 3.84 10.147 5.754l.001.001h.001v.001h.002v.001h.002l.001.002 1.227.693c1.448.82 2.899 1.639 4.349 2.456l1.568.885.043.025c.174.098.334.188.344.46.077 1.944 1.563 3.003 3.41 2.45l.09-.024c.105-.03.213-.059.312-.106.31-.148.574-.091.87.078 2.583 1.489 5.174 2.967 7.764 4.442 1.302.74 2.605 1.478 3.907 2.215h.001l2.812 1.594c.208.116.394.225.472.496.38 1.327 1.528 2.013 2.893 1.735a.923.923 0 01.683.102c.58.329 1.162.654 1.744.98l.002.001.002.002h.002l.002.002c.582.326 1.164.651 1.744.98 1.19.675 2.404 1.277 3.741 1.622 2.02.521 3.813.303 5.481-1.116 1.579-1.342 3.214-2.618 4.85-3.894.706-.55 1.411-1.1 2.112-1.657l.409-.315c.132-.101.268-.205.408-.315.017.17-.052.266-.114.355a1.103 1.103 0 00-.048.071c-.489.828-1.112 1.553-1.742 2.274-.824.947-1.567 1.957-2.169 3.06-.443.816-.865 1.65-.992 2.586-.064.472.14.852.479.922.44.089.63-.214.795-.542.036-.07.067-.143.099-.216l.056-.129a16.59 16.59 0 011.985-3.375c.768-1.003 1.528-2.014 2.218-3.08.58-.898.88-1.883 1.02-2.922a.769.769 0 01.307-.56c.602-.48 1.203-.965 1.805-1.451.35-.284.702-.568 1.053-.85.901-.722 1.461-1.67 1.736-2.774.31-1.24.168-2.394-.986-3.147-.577-.38-.669-.747-.546-1.401.296-1.563-.897-2.675-2.474-2.408a3.054 3.054 0 00-1.443.662c-.324.264-.574.222-.909.035a297.494 297.494 0 00-3.448-1.902h-.001l-.002-.002a1034.27 1034.27 0 01-2.313-1.263c-1.336-.73-2.671-1.459-4.01-2.18-.303-.162-.444-.313-.328-.686.151-.472.056-.947-.158-1.394-.409-.848-1.063-1.394-1.965-1.665-1.277-.384-2.555-.38-3.833-.046-.306.081-.57.046-.845-.105-.763-.424-1.531-.84-2.298-1.256l-.852-.462-1.297-.707c-1.532-.835-3.064-1.67-4.599-2.5-.268-.144-.412-.288-.324-.623a1.83 1.83 0 00-.007-.964c-.486-1.743-1.478-3.035-3.288-3.524-1.827-.496-3.681-.658-5.554-.264a1.28 1.28 0 01-.93-.14c-.34-.189-.678-.379-1.017-.569h-.001l-.001-.001h-.001l-.001-.001-.001-.001h-.001l-.001-.001h-.001c-1.01-.567-2.018-1.133-3.054-1.645-.709-.353-1.396-.746-2.084-1.139-1.332-.76-2.664-1.522-4.15-1.99-1.792-.567-3.513-.701-5.298.077-1.88.82-3.785 1.588-5.69 2.355h-.003v.001h-.002v.001h-.003c-.755.305-1.51.609-2.264.916a1.046 1.046 0 00-.055.026c-.093.046-.195.096-.353.017l.116-.281v-.001c.252-.613.504-1.226.947-1.739 1.345-1.552 2.858-2.904 4.664-3.91.49-.275.993-.528 1.496-.782h.001c.93-.469 1.86-.938 2.713-1.538a6.242 6.242 0 012.833-1.105c1.11-.148 2.19-.106 3.137.619 1.042.8 2.214 1.134 3.523.982.216-.024.432-.044.647-.065.288-.027.576-.054.863-.09 1.363-.165 2.58-.686 3.457-1.75.964-1.168 2.027-2.164 3.428-2.784.398-.175.51-.531.349-.788-.211-.338-.521-.264-.824-.148-.552.215-1.109.401-1.693.518-1.397.274-2.767.077-4.147-.162-2.83-.49-5.322.169-7.388 2.235a4.02 4.02 0 01-1.084.792c-.155.074-.349.102-.447-.085-.102-.186.025-.32.176-.418.044-.03.09-.056.137-.082.076-.043.153-.087.218-.144 1.686-1.492 3.27-3.062 4.157-5.192l.212-.496v-.002h.001v-.002h.001v-.003h.001c.229-.53.457-1.062.623-1.616.106-.352.289-.644.63-.806.18-.087.36-.176.54-.265.488-.243.977-.486 1.484-.682 1.415-.549 2.348-1.552 2.925-2.921.331-.782.539-1.598.67-2.436.06-.389.102-.78.145-1.171.083-.754.165-1.509.372-2.244.073-.26.127-.528.182-.796.025-.123.05-.245.077-.368l.019.003L36.2.197zm-19.42 41.54a.742.742 0 00.345.322l.023.012.013.007.013.007 4.907 2.807.005.003.006.003.005.003.006.003.005.003c4.23 2.42 8.459 4.837 12.684 7.263.383.218.64.197.964-.099 1.595-1.464 3.47-2.425 5.534-3.051.697-.213 1.41-.357 2.122-.501h.001c.446-.09.891-.181 1.333-.288l.15-.033c.221-.046.446-.094.653-.248-.147-.112-.31-.163-.47-.212-.125-.039-.248-.077-.357-.144-.31-.19-.613-.204-.965-.123a7.08 7.08 0 01-1.848.155c-1.45-.06-2.745-.49-3.664-1.69a16.75 16.75 0 01-.442-.615c-.296-.426-.593-.853-.97-1.222-.306-.303-.148-.711.275-.782.94-.155 1.887-.267 2.844-.208.64.04 1.236.222 1.802.532.96.527 1.735 1.28 2.507 2.03l.285.276c.644.62 1.39.925 2.238 1.08.37.067.687.014.99-.218.8-.605 1.605-1.206 2.41-1.807l1.476-1.104c.034-.026.063-.06.093-.096.015-.019.03-.037.047-.055-.083-.12-.195-.176-.304-.23l-.086-.045-2.036-1.104c-3.45-1.871-6.902-3.743-10.358-5.605-.837-.452-1.679-.893-2.52-1.334-.666-.35-1.333-.698-1.997-1.053-.288-.154-.535-.151-.834-.02-1.058.46-2.014 1.092-2.97 1.725l-.44.291c-.891.581-1.152 1.936-.55 2.823l.093.136c.294.43.59.863.826 1.328.486.958.595 1.972.292 2.992-.128.435-.307.852-.485 1.27-.29.681-.58 1.362-.659 2.117-.024.232-.215.401-.486.37-.299-.04-.408-.261-.383-.518.102-1.049-.338-1.88-1-2.64-.5-.574-.711-1.27-.75-2.017-.045-.862.166-1.672.507-2.457.271-.616.465-1.257.518-1.992-3.31 2.696-7.304 3.4-11.398 3.953zm34.662 4.289c.095-.082.195-.167.369-.167-.039.64-.208 1.232-.405 1.812-.341.923-.574 1.852-.39 2.848.14.778.429 1.486.876 2.13.116.165.204.31.091.535-.21.415-.162.492.335.644-.06.295-.116.602-.067.908.05.313.186.584.546.591.359.004.464-.27.489-.573.049-.595.292-1.11.665-1.567.134-.165.264-.33.39-.5 1.247-1.65 1.12-3.77-.313-5.273a8.242 8.242 0 01-.068-.074c-.093-.1-.187-.202-.294-.281-.658-.486-.68-1.155-.521-1.862.113-.51.31-.588.778-.345 2.093 1.082 4.15 2.231 6.207 3.38 1.16.648 2.32 1.296 3.487 1.931l1.484.807.006.003 1.477.803c.027.015.056.029.085.042.097.046.2.094.27.232l-.457.262c-.55.316-1.102.631-1.661.931-.123.065-.3.05-.456.036l-.04-.004c-.997-.077-1.894.17-2.697.771-.383.285-.781.553-1.179.817-.45.295-.922.538-1.478.57-.257.014-.476.116-.55.384-.08.285.078.478.296.64.07.053.148.094.226.135.13.07.26.14.351.26-.009.111-.082.158-.152.203l-.012.007a743.517 743.517 0 01-1.71 1.195c-.728.509-1.457 1.018-2.184 1.53-.176.123-.313.116-.496.014-1.423-.799-2.87-1.017-4.376-.2-.461.25-.989.32-1.51.366-.222.02-.412-.053-.598-.159l-.733-.42a647.889 647.889 0 00-4.512-2.568c-.271-.151-.363-.328-.345-.637.07-1.278-.236-2.411-1.24-3.31-.388-.348-.274-.826-.17-1.257l.02-.086.02-.092c.12-.553.44-.99 1.088-1.084.26-.039.517-.1.774-.16h.002c.236-.056.471-.111.71-.15 1.872-.3 3.566-1.01 5.083-2.144l1.214-.911.004-.004 1.21-.908c.021-.016.041-.034.061-.051zM13 36.678a1.543 1.543 0 00-.517-.623c-.182-.13-.367-.254-.552-.378-.142-.095-.283-.19-.423-.287-.19-.13-.292-.31-.218-.546.077-.239.274-.302.503-.292.099.004.197.022.289.05.739.221 1.492.25 2.256.158.574-.067 1.155-.08 1.725.028.281.053.52.004.767-.127a422.089 422.089 0 013.735-1.964 233.002 233.002 0 016.061-3.07c.345-.168.634-.161.986.033 1.427.782 2.865 1.546 4.302 2.31l1.238.66.015.009.021.011c.114.065.24.137.415-.016a16.15 16.15 0 01-.197-.118h-.001a8.578 8.578 0 00-.221-.132l-1.723-.949a750.101 750.101 0 00-5.233-2.867c-1.492-.81-3.08-1.295-4.8-1.246a2.21 2.21 0 00-.744.127c-.237.094-.476.183-.715.273-.5.188-.998.375-1.481.596-2.112.96-4.261 1.838-6.408 2.715-.704.287-1.408.575-2.11.865a57.777 57.777 0 00-7.054 3.52c-.488.285-.469.313-.144.795l.003.004c.693 1.028 1.728 1.655 2.749 2.264 1.32.787 2.667 1.529 4.014 2.27.538.298 1.077.594 1.614.894l.046.027c.109.065.222.132.349.082.35-.137.699-.282 1.058-.431l.564-.234c-.175-.2-.369-.3-.553-.398-.063-.033-.126-.066-.186-.102-.236-.143-.474-.282-.712-.422-.454-.266-.908-.532-1.347-.82-.62-.405-.606-.845.003-1.243.234-.154.484-.285.73-.415l.041-.022c.467-.255.934-.502 1.42-.758l.435-.23zm19.245-3.5c.027.023.06.053.105.09-.789.411-1.503.823-2.186 1.28-.672.458-1.349.91-2.025 1.361-.598.4-1.196.8-1.79 1.202-1.426.965-2.95 1.697-4.637 2.06-1.087.235-1.69-.046-2.052-1.092-.362-1.045-.996-1.84-1.862-2.485a3.873 3.873 0 00-.135-.094l-.048-.032c.04-.17.143-.213.236-.252a.987.987 0 00.06-.026c3.01-1.525 6.019-3.052 8.98-4.672.165-.088.309-.15.506-.042 1.236.69 2.474 1.373 3.713 2.056l1.046.577c.029.014.053.036.09.069zm21.197 32.417l.077.067c.038.034.07.063.106.085 1.147.75 2.351 1.397 3.66 1.791 1.134.342 2.278.44 3.37-.281.416-.275.825-.563 1.233-.851.523-.369 1.045-.737 1.586-1.078.133-.085.239-.19.264-.363.18-1.292.746-2.404 1.556-3.41l.014-.019.013-.016c.109-.132.233-.284.113-.547-.243.086-.498.089-.754.092-.335.004-.674.007-.995.197-1.229.722-2.531 1.285-3.865 1.778-.534.195-1.07.384-1.607.572-1.374.482-2.748.964-4.074 1.571l-.022.01-.045.02-.046.02c-.197.086-.398.173-.584.362zm22.074-10.211c-2.302 2.633-4.812 4.974-7.787 6.87l-.158-.267-.226-.382-.016-.027-.004-.007c-.173-.29-.344-.58-.514-.869-.095-.161.017-.252.132-.347l.001-.001c.613-.503.905-1.105.542-1.89-.07-.155-.014-.268.096-.377a74.032 74.032 0 001.637-1.682v-.001c.827-.868 1.654-1.736 2.544-2.54.197-.177.37-.254.634-.11l.308.17c.915.504 1.833 1.01 2.81 1.46zm-42.959-.479c-.176-.096-.344-.195-.509-.292-.58-.344-1.114-.66-1.828-.669-1.524-.018-2.886-.507-3.946-1.704-.478-.542-1.006-1.063-1.75-1.28-.232-.068-.393-.265-.334-.518.057-.254-.056-.356-.246-.458-.373-.2-.744-.41-1.111-.62l-.103-.06a545.994 545.994 0 00-10.3-5.79 1.99 1.99 0 01-.103-.061c-.137-.086-.28-.174-.443-.104-.297.125-.587.268-.879.41-.133.066-.267.131-.402.195.086.197.226.269.357.336h.001l.09.048a17341.375 17341.375 0 0016.773 9.696c.974.562 1.95 1.124 2.924 1.688l.024.013c.202.119.397.233.634.053.317-.256.64-.499 1.023-.786l.129-.097zM27.7 49.26c.072.035.15.073.16.196l-.745.26-.002.001c-.302.106-.604.212-.907.316-.204.074-.383-.007-.56-.105-.803-.454-1.607-.906-2.41-1.359h-.002c-3.278-1.846-6.554-3.69-9.802-5.59-.012-.008-.026-.015-.039-.022-.073-.04-.15-.082-.168-.224.556-.232 1.14-.423 1.739-.57.17-.041.317.043.46.125l.015.008.013.008.006.003.005.003A21198.35 21198.35 0 0127.7 49.26zm27.663 18.553c-.224.27-.31.582-.396.892-.022.081-.044.162-.07.241-.13.416-.034.7.381.88 1.243.539 2.5 1.018 3.855 1.2.813.11 1.534-.07 2.266-.443.502-.255.92-.607 1.339-.958.245-.206.49-.412.752-.598.324-.229.497-.531.56-.904.109-.62.183-1.24-.18-1.852l-.186.124-.232.154-.22.145-.119.079c-.65.43-1.296.858-1.974 1.248-1.007.577-2.066.682-3.182.52-.89-.133-1.767-.323-2.594-.728zm-14.379-6.257l-.063-.042-.06-.04c.245-.311.23-.644.215-.992-.01-.236-.022-.48.048-.727l5.534 3.136.004.003 4.374 2.48-.182.203-.106.118c-.26.292-.5.56-.746.819-.16.168-.309.072-.448-.017-.027-.018-.054-.035-.08-.05a889.463 889.463 0 01-4.689-2.668c-.974-.56-1.943-1.126-2.911-1.691l-.697-.407c-.062-.037-.122-.077-.193-.125zm21.5-4.07l-.87-.099c-.416-.047-.824-.094-1.232-.138-.11-.011-.196.056-.28.121l-.011.009a1.529 1.529 0 01-.043.032l-1.309.991-.003.002c-.872.661-1.744 1.321-2.617 1.985-.021.017-.045.032-.068.048-.092.06-.186.123-.189.255 1.106 1.422 4.288.753 6.08-.521-.708-1.387-.673-1.584.541-2.686zm5.608 7.81c-.056.044-.114.091-.233.07l.024-.122.058-.288.001-.003c.048-.238.095-.472.142-.695.784-.155 1.29-.671 1.792-1.185.082-.083.163-.166.246-.248.106-.102.113-.264-.01-.38-.148-.141-.314-.106-.465-.007-.36.233-.676.521-.992.81l-.237.214-.12.103-.04.035-.107.09c-.212-.351-.046-.548.214-.749.508-.392 1.025-.77 1.542-1.149h.002v-.001c.935-.684 1.87-1.367 2.744-2.13 1.175-1.028 2.32-2.091 3.344-3.27.037-.046.06-.105.081-.157l.015-.036.006-.014.003-.008c.23.143.222.291.214.42l-.002.051c-.04 1.303-.507 2.426-1.521 3.256-1.535 1.255-3.082 2.493-4.63 3.732v.001h-.001l-.001.001-.001.001h-.001v.001c-.68.544-1.358 1.087-2.036 1.632l-.01.008-.007.005-.014.011zm-21.688-5.368c-1.343-.832-2.7-1.57-4.08-2.322l-.028-.015-.272.42-.523.808.054.055c.031.033.057.06.087.075l4.96 2.807 4.952 2.8c.165.092.313.106.465-.02.745-.617 1.62-.984 2.493-1.351.253-.107.506-.213.755-.325.032-.014.065-.026.1-.038.108-.039.222-.08.316-.208a4.702 4.702 0 00-1.12.032c-.31.048-.608.148-.906.248-.37.125-.74.249-1.132.272-2.305.141-4.354-.506-6.103-2.041-.493-.433-.493-.672-.018-1.197zM10.193 42.284c.046.032.098.067.16.107-.144.08-.28.157-.409.231l-.002.001c-.267.152-.511.29-.762.423-.19.102-.357.004-.516-.09l-.033-.019a2759.205 2759.205 0 00-4.87-2.784l-.002-.001-.002-.001c-.411-.237-.821-.473-1.24-.699-.922-.496-1.162-1.813-.933-2.847l.046.03c.035.021.067.041.084.068.599.968 1.514 1.57 2.468 2.12 1.155.664 2.31 1.326 3.466 1.988l2.31 1.323c.073.04.142.087.235.15zM40.117 61.08c.148-1.239-.475-2.066-1.348-2.626-1.031-.662-2.104-1.257-3.177-1.853h-.001c-.45-.25-.901-.5-1.348-.755l-.014-.008c-.133-.075-.266-.15-.416-.042-.366.265-.729.532-1.149.84l-.002.002-.134.098 1.248.715.004.002.03.017.008.005c2.118 1.213 4.194 2.402 6.3 3.605zM11.202 38.707l-.15-.057c.865-.436 1.586-.802 2.306-1.167l.004-.002c.127-.063.215.007.3.088 1.206 1.137 2.73 1.394 4.29 1.475.47.024.76.25 1.129.536.062.05.127.1.195.15-.262.043-.508.086-.744.127-.402.069-.774.133-1.147.187-.806.112-1.612.25-2.4.46-.212.057-.412.078-.613-.035-.748-.422-1.499-.842-2.248-1.262l-.807-.452c-.03-.017-.061-.028-.115-.048zm26.69-5.25l2.329 1.282c1.087.597 2.177 1.197 3.286 1.81-.01-1.166-1.08-2.444-2.21-2.789-.979-.299-1.986-.37-2.996-.411a1.002 1.002 0 01-.06-.006c-.104-.013-.219-.027-.348.115zm14.597 9.46c.117.054.242.111.308.28-.246.099-.421-.007-.585-.107-.035-.021-.07-.043-.105-.062a585.46 585.46 0 01-2.807-1.534 309.045 309.045 0 00-5.353-2.894c-1.821-.956-3.613-1.965-5.406-2.974a401.343 401.343 0 00-2.785-1.56 9.23 9.23 0 01-.318-.183l-.065-.038-.07-.042c.27-.128.436-.033.588.054l.032.019.027.015 1.78.977.005.003.004.002c1.055.58 2.11 1.16 3.167 1.735 2.156 1.177 4.311 2.352 6.467 3.526l.01.005.005.003 5.004 2.728c.03.017.063.032.097.048zm13.61 10.633c1.7.883 3.266.746 4.364-.838l-.85-.458c-.399-.216-.793-.428-1.177-.637-.232.727-.804 1.014-1.37 1.297-.353.178-.704.354-.967.636zm-27.833 1.894c-.078.503-.032 1.003.042 1.619l-1.704-.967-.004-.002-1.83-1.038.428-.404c.203-.19.396-.372.586-.557.141-.133.278-.102.423-.017.454.263.91.525 1.366.785l.496.285c.116.067.218.151.197.295zm.236-1.176c.185-.268.386-.521.586-.772.581-.73 1.146-1.44 1.251-2.442-1.34.5-2.495 1.24-3.587 2.225l.787.445.003.001.008.005h.001l.95.538zm14.777 14.384l-2.06-1.216c.122-.114.239-.224.352-.332l.004-.004c.286-.27.552-.521.82-.77.113-.101.24-.059.356.004.253.14.506.278.759.416l.004.002.008.005.327.179.419.23c.12.066.232.14.162.295-.222.49-.342 1.007-.42 1.623l-.73-.432zm1.302-24.388c.373.387 13.158 7.223 13.429 7.184-.056-.12-.163-.167-.268-.214-.033-.014-.067-.03-.098-.046-.921-.504-1.844-1.007-2.768-1.51l-2.048-1.116-2.136-1.167-.014-.007c-1.825-.997-3.65-1.993-5.477-2.987-.03-.015-.058-.032-.087-.05-.156-.091-.32-.188-.533-.087zm7.959 14.164c.774-.478 1.612-.429 2.474-.306-.62.651-1.284 1.218-2.094 1.588-.256.118-.445-.085-.606-.258l-.035-.038c-.183-.194-.19-.426-.063-.662a.867.867 0 01.324-.324zm5.357-3.115c-.637-.07-1.186.13-1.605.602-.37.416-.781.76-1.292.993-.012.005-.025.01-.04.014-.06.022-.128.045-.107.12.76.348 1.383.228 1.869-.468.083-.121.192-.222.302-.324.066-.062.133-.124.194-.19.071-.077.147-.15.223-.223.165-.157.331-.317.456-.524zm-10.919-11.46c1.172-.149 2.514.432 2.422 1.33-.807-.442-1.565-.86-2.391-1.314l-.03-.017zm17.364 9.44l.015-.12c.034-.251.065-.482-.19-.616-.307-.162-.61-.084-.877.151.267.243.62.44 1.052.585zm-41.796.45c.686.553.94.627 1.235 0h-1.235zm34.042 5.914c.165-.194.222-.327.095-.563-.113.19-.18.32-.095.563zm-37.016-3.302c-.208.018-.307-.091-.469-.302l.06.02c.213.074.337.117.409.282z" clip-rule="evenodd"/>
</svg>
