<svg xmlns="http://www.w3.org/2000/svg" width="75" height="58" fill="none" viewBox="0 0 75 58">
  <path fill="#008367" fill-rule="evenodd" d="M56.371 45.617c.186.606.403 1.226.935 1.675.238.199.451.418.623.68.392.61.427 1.24.035 1.841-.396.61-.98.893-1.708.772-.952-.156-1.673-.7-2.18-1.494-.473-.736-1.09-1.271-1.838-1.685-.333-.184-.616-.255-.92.035-.095.089-.201.163-.307.237-.08.056-.161.111-.236.174-1.624 1.363-3.49 1.76-5.534 1.402-.26-.047-.443.06-.636.174l-.036.02-2.934 1.707c-1.82 1.06-3.639 2.12-5.463 3.17-1.366.788-2.83 1.37-4.292 1.95l-.163.064c-2.139.85-4.368.737-6.595.45-2.593-.337-4.837-1.547-7.02-2.91-2.676-1.67-5.37-3.308-8.066-4.946l-.002-.002h-.001c-.873-.53-1.746-1.061-2.617-1.593-.722-.44-1.451-.866-2.181-1.291-.85-.496-1.698-.991-2.534-1.51-1.316-.818-1.957-1.972-2.282-3.41-.406-1.78-.47-3.593-.389-5.406.116-2.51.312-5.014.784-7.49.34-1.78 1.32-3.076 2.916-3.92.392-.206.767-.443 1.143-.68.228-.143.455-.286.688-.424.21-.124.28-.283.266-.52-.025-.524.038-1.041.126-1.558.266-1.558 1.743-3.244 3.615-3.272.48-.007.795-.237 1.022-.623.319-.539.68-1.034 1.176-1.417.175-.134.2-.311.217-.517.196-2.337 2.405-3.806 4.617-3.077l.03.01c.188.065.358.123.55-.049.613-.541 1.38-.708 2.157-.768 1.358-.103 2.66.028 3.594 1.229.144.184.284.16.459.053.858-.516 1.727-1.014 2.595-1.512 1.476-.846 2.951-1.692 4.377-2.624.726-.476 1.485-.893 2.244-1.31.488-.269.976-.537 1.456-.822 1.267-.754 2.51-1.55 3.689-2.432 2.037-1.52 4.33-2.525 6.657-3.452.99-.395 2.064-.456 3.126-.515l.16-.01c2.822-.166 5.384.645 7.792 2.079 2.12 1.263 4.288 2.444 6.455 3.625.86.468 1.718.937 2.575 1.41.707.39 1.407.8 2.082 1.243a53.485 53.485 0 004.082 2.443c1.46.783 2.674 1.87 3.64 3.24.504.715.637 1.533.658 2.369.077 3.123-.039 6.235-.448 9.334-.065.483-.115.968-.165 1.454-.099.943-.197 1.886-.395 2.816-.22 1.038-.704 1.884-1.52 2.539-.87.7-1.767 1.37-2.726 1.947l-1.417.854h-.001c-.719.435-1.438.87-2.163 1.3-.248.148-.374.286-.325.612.08.52-.158.956-.511 1.32a4.32 4.32 0 01-1.715 1.07c-.665.23-1.092.644-1.295 1.331-.315 1.07-.994 1.732-2.132 1.838-.21.018-.34.092-.416.322-.487 1.47-1.54 2.188-3.042 2.298l-.036.002c-.096.004-.203.009-.3.15zm17.543-26.939c-.243.06-.39.19-.53.314a4.48 4.48 0 01-.083.072c-.55.464-1.158.822-1.788 1.162-.784.421-1.562.853-2.328 1.306-1.19.706-2.364 1.439-3.538 2.171-2.246 1.402-4.492 2.803-6.843 4.019l-.219.113c-2.615 1.35-5.227 2.699-7.744 4.239-2.002 1.223-4.04 2.388-6.077 3.552-1.812 1.036-3.624 2.072-5.414 3.15-2.436 1.47-4.89 2.918-7.497 4.083-2.971 1.328-5.985 1.551-9.11.63-.9-.265-1.715-.691-2.53-1.117a40.579 40.579 0 00-.852-.437c-1.977-.974-3.881-2.06-5.684-3.343-2.257-1.607-4.61-3.066-7.084-4.313-1.414-.715-2.765-1.55-4.074-2.446a10.437 10.437 0 01-.717-.553c-.104-.084-.208-.17-.316-.255-.013.03-.025.054-.036.075a.274.274 0 00-.037.095c-.034.614-.092 1.226-.15 1.837-.088.916-.175 1.83-.18 2.752-.01 1.863-.02 3.722.435 5.549.171.687.504 1.236 1.081 1.618.266.175.53.354.795.532.675.456 1.351.913 2.058 1.32.36.207.722.411 1.084.616a81.076 81.076 0 013.07 1.799c.796.498 1.591 1 2.386 1.5 2.711 1.71 5.422 3.418 8.188 5.036 2.72 1.594 5.65 2.316 8.786 1.92 2.306-.294 4.4-1.279 6.401-2.415 1.853-1.05 3.68-2.15 5.505-3.249.74-.445 1.481-.89 2.223-1.333.03-.019.063-.035.096-.052.11-.057.226-.117.296-.267-.425-.69-.423-1.456-.422-2.229 0-.22.001-.438-.008-.657-.067-1.48 1.862-3.742 3.36-3.626.294.022.374-.138.43-.396.158-.726.54-1.317 1.093-1.806a4.167 4.167 0 011.361-.779c-.189-1.243 1.32-3.219 2.471-3.707 1.838-.776 3.37-.347 4.477 1.402.69-.61 1.431-.967 2.3-.864.892.106 1.448.765 1.987 1.459 1.089-1.024 2.366-1.151 3.707-1.017.22.022.41-.028.602-.134 2.478-1.374 4.907-2.826 7.161-4.56a2.731 2.731 0 001.064-1.746c.285-1.597.438-3.21.59-4.822.035-.369.07-.737.107-1.106.154-1.685.175-3.364.147-5.092zM27.13 42.988a63.59 63.59 0 00-.413.02c-1.137.053-2.257 0-3.356-.361-.53-.174-1.019-.437-1.508-.7-.38-.205-.76-.409-1.16-.572-2.561-1.037-4.889-2.5-7.157-4.068-2.226-1.537-4.567-2.882-6.965-4.136-1.39-.73-2.758-1.515-4.008-2.464-1.067-.811-1.074-1.25-.812-2.312.336-1.36 1.138-2.34 2.296-3.014 3.764-2.18 7.502-4.407 11.238-6.635a1647.99 1647.99 0 017.06-4.193 585.198 585.198 0 003.377-2.01c2.46-1.473 4.919-2.945 7.422-4.335 2.28-1.269 4.49-2.645 6.702-4.022l.002-.001.898-.559c2.884-1.795 5.968-2.854 9.436-2.32 1.6.249 3.038.89 4.417 1.672a640.942 640.942 0 009.632 5.347c.693.379 1.369.8 2.034 1.232 1.127.733 2.275 1.423 3.486 2.015 1.414.69 2.622 1.65 3.57 2.935.522.705.62 1.498.553 2.323-.035.453-.28.815-.63 1.119-.812.708-1.732 1.243-2.67 1.76-1.812 1-3.568 2.095-5.324 3.19-1.128.704-2.256 1.407-3.399 2.086-1.673.991-3.37 1.933-5.117 2.776-2.077 1.003-4.054 2.183-6.031 3.363a146.986 146.986 0 01-3.17 1.856 351.054 351.054 0 00-5.876 3.412c-2.538 1.496-5.076 2.992-7.66 4.403-1.406.768-2.866 1.42-4.406 1.88-.807.24-1.633.277-2.46.314zm22.797-.869c-.26.542-.676.843-1.24.892-.503.046-1.009.066-1.515.085l-.465.018-.077.003c-.233.009-.462.017-.687.103-1.519.599-2.37 3.12-1.53 4.543.034.057.072.11.11.163.037.053.075.106.108.163.116.195.266.273.486.18.347-.15.712-.146 1.078-.142h.067c1.358.008 2.625-.275 3.714-1.157.124-.1.262-.183.4-.267.126-.077.253-.153.37-.243.588-.446 1.2-.418 1.823-.106.952.474 1.81 1.059 2.356 2.025.252.447.647.769 1.14.939.333.113.69.216.918-.145.245-.387-.039-.67-.312-.868-.728-.528-1.074-1.282-1.312-2.11-.308-1.066.084-1.661 1.183-1.803 1.47-.187 2.187-.96 2.268-2.443l.004-.082c.01-.235.021-.467.15-.676.234-.386.605-.39.819.011.068.126.108.268.15.416.017.065.035.13.056.197.637-.093 1.019-.46 1.215-1.045.36-1.062 1.05-1.753 2.12-2.103.55-.18 1.1-.453 1.397-1.034-.159-.207-.356-.233-.54-.258h-.006a4.376 4.376 0 00-1.701.096l-.086.02c-.642.142-1.294.288-1.265 1.19-.154.053-.273.05-.357-.04-.231-.25-.508-.438-.786-.626-.243-.165-.487-.33-.701-.538-.665-.652-1.516-.61-2.076.046.112.206.288.34.465.475.08.06.158.12.232.187.318.294.252.584-.172.694-.444.113-.822-.05-1.165-.33-.665-.544-1.316-1.104-1.796-1.837-.27-.414-.679-.574-1.148-.64-.85-.121-1.554.159-2.149.768-.546.555-.99 1.175-1.193 1.947l.094.04c.038.017.064.028.091.034.61.142.844.369.767.74-.077.362-.4.503-.998.432-.016-.001-.031-.004-.047-.007a.853.853 0 00-.047-.007c-.97-.099-2.058.776-2.209 1.785.246.062.503.058.761.054.42-.006.844-.012 1.238.261zm-36.19-27.035c-.099.002-.2.004-.306.004.203-1.218 1.52-2.032 2.646-1.65l.422.137c.79.252 1.587.507 2.252 1.06.186.152.417.216.627.053.213-.167.171-.404.101-.63-.133-.425-.462-.694-.801-.96.83-.489 2.446-.237 3.15.51L7.377 22.14c-.075-.256-.031-.458.01-.647.009-.041.018-.081.025-.121.182-.949 1.264-2.164 2.366-2.11.97.046 1.631-.524 2.062-1.374.49-.967 1.214-1.548 2.334-1.52.063 0 .13-.003.193-.013.37-.064.728-.184.71-.645-.017-.446-.364-.588-.742-.62-.194-.016-.39-.012-.597-.007z" clip-rule="evenodd"/>
  <path fill="#008367" fill-rule="evenodd" d="M58.08 52.547c-.38 1.39.677 2.494 1.558 2.452 1.293-.008 2.51-1.632 2.347-3.168-.15-1.413-1.3-2.275-2.363-1.593-.83.532-1.261 1.287-1.542 2.31zm2.366-1.126c.345.092.422.449.412.828-.016.988-.552 1.673-1.284 1.658-.357-.007-.623-.214-.69-.605-.063-.371.07-.755.368-.938.242-.15.415-.257.51-.625.068-.264.419-.39.684-.318z" clip-rule="evenodd"/>
  <path fill="#008367" fill-rule="evenodd" d="M63 56.759c.003.708.55 1.241 1.274 1.241.953 0 1.742-.736 1.726-1.605-.013-.694-.74-1.399-1.431-1.395-.914.008-1.572.743-1.569 1.759zm1.507.309c-.05.012-.1.024-.148.04a3.916 3.916 0 00-.071-.018c-.225-.052-.45-.104-.446-.45.003-.322.12-.594.435-.636.213-.027.766.421.74.601-.053.352-.283.408-.51.463z" clip-rule="evenodd"/>
  <path fill="#008367" fill-rule="evenodd" d="M24.326 37.253c1.068.46 2.175.777 3.355.745.115-.01.23-.016.345-.022.209-.012.416-.024.621-.05 1.953-.242 3.726-1.008 5.425-1.963 2.747-1.543 5.46-3.147 8.172-4.75 1.509-.892 3.017-1.783 4.53-2.664 4.974-2.893 10.06-5.558 15.203-8.12l.18-.09c.903-.45 1.805-.9 2.6-1.531 1.287-1.023 1.872-2.993.276-4.483-.55-.513-1.1-1.011-1.748-1.403a54.048 54.048 0 01-2.68-1.704c-2.195-1.5-4.444-2.914-6.82-4.1l-.467-.235c-1.714-.862-3.432-1.727-5.426-1.825a86.75 86.75 0 01-.343-.017c-1.106-.056-2.197-.11-3.277.238-1.452.47-2.774 1.215-4.078 1.978-2.689 1.57-5.365 3.165-8.041 4.76-1.27.758-2.54 1.515-3.812 2.27-.776.46-1.55.922-2.324 1.384-3.882 2.318-7.763 4.636-11.79 6.703-1.201.62-2.283 1.429-3.337 2.291-1.445 1.183-.973 3.884.296 4.718.252.165.5.334.75.504.598.407 1.196.814 1.833 1.167 1.967 1.083 3.91 2.234 5.732 3.548 1.512 1.09 3.137 1.92 4.825 2.651zm38.71-19.983c.41.22.828.444 1.2.793-.578.431-1.163.78-1.773 1.083-5.678 2.804-11.286 5.74-16.76 8.943-1.52.889-3.033 1.785-4.547 2.682-2.202 1.304-4.403 2.607-6.619 3.885-1.48.855-2.975 1.681-4.65 2.12-1.973.52-3.813.242-5.68-.595-1.626-.727-3.073-1.727-4.52-2.725-.83-.573-1.658-1.145-2.52-1.665-1.1-.666-2.206-1.325-3.327-1.956-.694-.392-1.325-.862-1.963-1.365.171-.189.364-.285.549-.377.065-.033.13-.065.19-.1 2.206-1.255 4.374-2.575 6.541-3.895 1.939-1.18 3.877-2.361 5.842-3.495 1.344-.775 2.696-1.536 4.047-2.297 2.212-1.245 4.423-2.49 6.598-3.799l.56-.336a122.37 122.37 0 002.57-1.574c1.854-1.175 3.838-2.059 5.91-2.764 2.193-.749 4.304-.595 6.398.377 1.079.503 2.146 1.02 3.162 1.643 2.749 1.689 5.488 3.392 8.226 5.098.184.114.374.216.567.32z" clip-rule="evenodd"/>
  <path fill="#008367" d="M36.213 23.613c.703.378 1.417.614 2.17.689 1.39.137 2.771.367 4.174.41.657.02.818.373.468.945-.939 1.54-3.442 2.507-5.227 2.13-1.532-.326-2.77-1.085-3.831-2.176-.56-.575-1.25-.815-2.035-.85a1.244 1.244 0 00-.747.204c-1.753 1.13-3.067 2.641-3.992 4.487-.164.329-.332.646-.764.52-.439-.131-.467-.506-.403-.883.068-.389.228-.752.432-1.084 1.178-1.913 2.7-3.474 4.72-4.533 1.025-.537 2.157-.681 3.264-.921.76-.166.778-.184.653-.96-.353-2.19.354-4 2.014-5.469.664-.59 1.528-.738 2.313-1.06a.418.418 0 01.522.17.39.39 0 01-.029.502c-.557.614-.671 1.398-.875 2.15-.22.815-.435 1.634-.65 2.453-.164.618-.467 1.165-.953 1.776.415-.064.697-.102.982-.148 1.628-.265 3.228-.608 4.706-1.391a6.644 6.644 0 001.985-1.575c.982-1.144 2.1-2.146 3.232-3.145 1.51-1.331 3.338-1.667 5.241-1.843.032-.004.065 0 .1 0 1.293-.039 1.54-.057 1.146 1.497-.417 1.659-1.585 2.82-2.913 3.823-1.15.869-2.45 1.451-3.817 1.91-.721.24-1.457.247-2.196.226-1.218-.032-2.357.173-3.478.716-1.52.738-3.22.904-4.866 1.211-.44.082-.893.149-1.346.22z"/>
</svg>
