<svg xmlns="http://www.w3.org/2000/svg" width="72" height="67" fill="none" viewBox="0 0 72 67">
  <path fill="#008367" fill-rule="evenodd" d="M1.258 48.73C.47 47.914.18 46.931.042 45.871c-.184-1.4.23-2.51 1.478-3.216-.009-.127-.073-.188-.134-.247a.965.965 0 01-.047-.046C.222 41.182-.022 39.76.204 38.212c.1-.671.506-1.173.99-1.615.237-.215.496-.413.757-.6.195-.139.22-.266.142-.499-.347-1.07-.319-2.117.364-3.071.127-.18.141-.304-.004-.48a5.167 5.167 0 01-.396-.565l-.074-.115c-.693-1.092-.728-2.22-.177-3.375a9.417 9.417 0 011.843-2.615 4.236 4.236 0 01-.031-.066c-.024-.053-.043-.093-.068-.128-1.153-1.722-1.1-3.68.134-5.348a8.614 8.614 0 012.437-2.212c2.76-1.704 5.726-2.98 8.692-4.257l.407-.175c4.24-1.827 8.24-4.047 11.687-7.154 2.147-1.936 4.502-3.548 7.055-4.895C35.317.328 36.721-.142 38.288.04c.75.088 1.45.321 2.09.675 1.335.74 2.725 1.367 4.114 1.994 1.142.516 2.285 1.032 3.398 1.61 2.344 1.223 4.82 2.058 7.39 2.648.418.095.839.201 1.238.353 1.712.647 3.487 1.071 5.27 1.474 1.75.396 3.165 1.368 4.31 2.743.846 1.014.81 2.177.598 3.364a18.666 18.666 0 01-.428 1.743c-.102.35-.088.664.131.957.442.605.608 1.266.414 1.997-.039.145 0 .262.085.386.675.99.71 2.095.576 3.226-.034.296-.214.526-.407.775l-.038.048-.036.047c.502.646.775 1.378.683 2.216-.013.12.061.193.137.267.025.025.05.05.071.076.354.43.68.876.768 1.445a3.1 3.1 0 00.022.12c.03.151.062.31.006.424-.22.462-.186.934-.152 1.401.02.277.04.552.007.822-.081.65.1 1.025.502 1.499.736.866.91 1.894.375 2.958-.106.209-.056.318.085.474.545.615.767 1.35.718 2.163-.01.162.007.275.117.413.583.75.877 1.577.537 2.527-.053.149-.017.265.035.392.223.566.252 1.142.022 1.704-.096.233-.018.36.127.523.506.566.884 1.276.612 1.972-.258.668-.11 1.11.152 1.693.467 1.043.025 2.06-1.086 2.831-1.347.933-2.822 1.619-4.353 2.177a18.018 18.018 0 00-3.512 1.707c-.558.354-1.103.725-1.584 1.18-2.185 2.079-4.781 3.538-7.465 4.84-1.705.826-3.367 1.678-4.82 2.925-1.316 1.131-2.822 2.008-4.364 2.817-1.478.778-3.073 1.029-4.704 1.156-.295.023-.59.042-.886.06h-.001c-.394.026-.788.05-1.181.085-2.165.184-4.29-.127-6.401-.54-.86-.169-1.657-.54-2.45-.91-.226-.105-.45-.21-.676-.31-.924-.409-1.866-.767-2.81-1.124a71.19 71.19 0 01-2.198-.862c-1.475-.615-2.939-1.244-4.343-2.008a27.097 27.097 0 00-11.04-3.251c-1.864-.138-3.681-.506-5.301-1.53-.711-.45-1.238-1.03-1.524-1.839-.12-.34-.265-.674-.409-1.007-.148-.344-.297-.687-.419-1.039-.477-1.371-.226-2.598.838-3.626l.025-.033c.024-.032.056-.076.106-.137zM3.67 35.47l.007-.007c-.185.225-.073.253.072.29a.804.804 0 01.147.049c-.141-.912.103-1.697.555-2.442-.097-.051-.19-.098-.282-.144a7.461 7.461 0 01-.566-.305c-.234-.145-.354-.053-.474.148-.288.482-.25 1.008-.211 1.529l.002.03c.04.46.212.82.75.852zm39.169 26.574l.007-.018c.938.424 1.462-.184 1.975-.782l.051-.059c.251-.293.534-.47.906-.576a33.721 33.721 0 009.87-4.633c2.181-1.495 4.339-3.015 6.238-4.856 1.782-1.729 3.978-2.616 6.302-3.273.724-.205 1.421-.47 2.097-.788.566.597.555 1.19-.046 1.767-.404.381-.884.66-1.365.933-.952.54-1.953.975-2.97 1.36-2.19.82-4.227 1.898-5.956 3.496-1.974 1.82-4.315 3.082-6.694 4.259-1.878.926-3.703 1.894-5.32 3.258a17.24 17.24 0 01-4.795 2.877c-.969.382-1.99.544-3.016.57-.789.02-1.17-.177-1.475-.923-.452-1.117-.414-2.139.495-3.05.57-.57 1.132-1.064 1.988-1.216 1.27-.226 2.36-.915 3.435-1.595l.01-.006c1.216-.771 2.426-1.56 3.634-2.346l.002-.001.418-.273.39-.253c.831-.541 1.73-.944 2.667-1.237 1.044-.328 2.049-.752 3.054-1.175.295-.124.59-.248.885-.37a11.743 11.743 0 001.825-.972l.255-.165c.495-.322.99-.643 1.506-.923a15.01 15.01 0 003.607-2.74c1.408-1.43 3.024-2.597 4.955-3.269a8.817 8.817 0 001.817-.883c.255-.16.393-.11.57.11.527.657.484 1.052-.209 1.508-.53.35-1.12.58-1.733.729-1.29.31-2.51.812-3.727 1.321-1.423.595-2.546 1.603-3.67 2.61l-.333.299c-3.257 2.902-6.783 5.422-10.698 7.362-.575.285-1.183.502-1.79.72H48l-.348.125a20.346 20.346 0 00-3.045 1.413c-.123.07-.25.135-.376.2-.622.32-1.245.64-1.392 1.465zM36.395 36.53l-.139-.154c-.083-.09-.138-.151-.193-.214-1.1-1.23-1.446-2.66-1.004-4.234.431-1.526 1.368-2.753 2.617-3.697a25.154 25.154 0 016.146-3.396c1.394-.537 2.799-1.043 4.204-1.55h.001c2.218-.798 4.435-1.596 6.606-2.518 3.161-1.343 6.072-3.075 8.621-5.393.587-.534 1.061-1.149 1.334-1.902.339-.94.042-1.852-.757-2.438-.835-.612-1.765-.98-2.77-1.195-.257-.056-.518-.104-.779-.153-.632-.118-1.266-.237-1.862-.455-.753-.275-1.195-.205-1.786.417-1.853 1.944-4.23 3.065-6.75 3.881a6.73 6.73 0 01-2.681.304c-1.825-.16-3.307-1.05-4.732-2.1a3.308 3.308 0 01-1.323-2.088c-.385-2.004.043-3.803 1.436-5.337.122-.134.243-.27.372-.414l.304-.339c-.808-.33-1.558-.722-2.298-1.11a34.62 34.62 0 00-1.596-.802c-1.27-.583-2.567-.576-3.84-.021-2.826 1.23-5.35 2.923-7.628 4.994-3.597 3.27-7.766 5.616-12.194 7.55l-1.27.549h-.002v.001h-.002l-.001.001h-.001C11.781 15.86 9.135 17 6.667 18.517c-.876.537-1.637 1.198-2.185 2.07-.767 1.224-.912 2.881.287 4.065.4.396.88.661 1.397.87 1.213.488 2.45.897 3.713 1.226a93.81 93.81 0 001.701.42c1.09.26 2.18.522 3.246.856 2.946.922 5.832 2.011 8.53 3.545 1.094.621 2.229 1.165 3.363 1.709 1.26.603 2.518 1.207 3.724 1.917.92.54 1.93.866 2.97 1.089.945.19 1.9.268 2.981.247zm-5.368 21.22c-.431.152-.53.512-.537.982-2.16-.43-4.106-1.276-6.129-2.194.463-.382.676-.789.28-1.283-.195-.244-.446-.396-.764-.29-.478.159-.601.565-.626 1.088-.88-.366-1.758-.73-2.632-1.095l-.026-.01-.001-.001c-1.901-.791-3.792-1.578-5.687-2.364a6.4 6.4 0 00.082-.213c.06-.16.119-.316.204-.455.131-.205.18-.393.029-.59-.149-.198-.361-.276-.609-.255-.526.046-.806.516-.675 1.297-2.195-.887-4.432-1.501-6.695-2.123-.515-.141-1.031-.283-1.548-.429.269-.339.477-.636.435-1.025a.624.624 0 00-.216-.395c-.226-.209-.477-.262-.753-.092-.361.226-.442.555-.244 1.233-.715-.205-1.298-.551-1.882-.898-1.297-.774-1.814-1.968-1.874-3.431-.03-.75.388-1.236.813-1.728.062-.072.124-.143.184-.216.078-.092.184-.096.294-.035.676.38 1.41.586 2.146.792.357.1.714.2 1.065.32.064.022.127.052.193.083l.065.03c0 .048-.002.097-.004.146-.012.342-.025.695.414.81.435.116.626-.216.8-.57.894.288 1.776.607 2.657.925 1.64.594 3.275 1.185 4.97 1.567.06.77.27 1.11.69 1.127.499.021.644-.328.697-.728.134-.048.243-.01.347.028.025.009.049.018.074.025.366.118.733.234 1.1.35h.001l.001.001h.003c2.046.649 4.09 1.296 6.052 2.18l.016.007c.272.12.481.212.409.611-.06.332.212.555.516.682.308.131.612.128.852-.123.145-.149.255-.23.467-.12 1.87.968 3.851 1.593 5.927 1.933.038.007.072.025.106.042a.687.687 0 00.05.025c-.022.78.275 1.198.83 1.184.421-.01.602-.286.566-.955 1.723.46 3.43.852 5.301.877-1.361 1.608-1.393 3.35-.799 5.142-1.695.555-3.305.157-4.935-.246a35.108 35.108 0 00-1.257-.294l.01-.02c.19-.381.373-.746.043-1.104-.216-.233-.488-.315-.796-.205zM2.391 36.869c-.311.303-.64.622-.9 1.008a1.475 1.475 0 00-.247.682c-.198 1.993.835 3.52 2.755 4.071a83.575 83.575 0 015.517 1.788c1.973.721 3.953 1.421 5.994 1.948 3.225.834 6.394 1.862 9.438 3.237.371.167.74.339 1.11.51 1.84.853 3.678 1.706 5.723 2.038 1.297.213 2.578.552 3.854.902.708.19 1.443.318 2.264.314-.835-1.919-.545-3.545 1.145-4.934l-.482.034c-.255.02-.46.035-.667.037-2.896.007-5.655-.643-8.339-1.693-1.047-.41-2.063-.89-3.079-1.37-1.19-.562-2.379-1.124-3.619-1.574-2.337-.848-4.678-1.664-7.115-2.198-2.168-.477-4.343-.976-6.355-1.98-.62-.31-1.229-.64-1.839-.97-1.54-.832-3.084-1.666-4.802-2.203-.112.117-.232.234-.356.353zm32.068.785c.22.012.449.024.692.138-.506 1.254-.672 2.516.095 3.806-.583.007-1.068-.123-1.552-.258-.904-.252-1.77-.606-2.637-.96a32.848 32.848 0 00-1.932-.743c-3.197-1.078-6.447-1.916-9.849-1.92-1.605 0-2.96-.706-4.32-1.416h-.002a10.72 10.72 0 01-1.481-.927c-1.365-1.032-2.946-1.565-4.576-1.972-.278-.069-.556-.135-.834-.202h-.004c-1.063-.254-2.124-.507-3.151-.894-.88-.332-1.578-.851-2.044-1.685-.319-.57-.435-1.149-.234-1.767.357-1.096 1.019-2.011 1.74-2.877 2.378 1.303 4.946 1.928 7.506 2.55l.67.164c3.508.862 6.854 2.128 10.015 3.866 1.31.72 2.646 1.384 3.983 2.048h.001v.001c1.245.618 2.49 1.237 3.711 1.9 1.277.692 2.677 1.067 4.142 1.144l.06.004zm3.779 23.103a3.286 3.286 0 00-.962.05c-1.086.198-2.168.201-3.243-.074l-.08-.021c-.374-.096-.75-.193-1.13-.259a34.454 34.454 0 01-6.81-1.912c-1.453-.575-2.884-1.205-4.315-1.836h-.002c-.802-.354-1.604-.707-2.41-1.051-3.886-1.661-7.857-3.068-11.942-4.156l-.252-.067c-1.619-.43-3.25-.861-4.685-1.785-.19-.124-.3-.053-.431.081-.601.622-.845 1.336-.601 2.188.134.465.337.902.54 1.338.133.287.266.573.38.867.194.498.523.848.965 1.128.965.604 2.023.95 3.133 1.155.654.122 1.317.173 1.98.225.609.047 1.217.094 1.818.196 3.215.54 6.302 1.474 9.173 3.046 1.457.8 2.97 1.464 4.495 2.117.71.305 1.43.586 2.148.867.967.378 1.934.756 2.877 1.19.164.076.327.154.49.232h.002c.752.36 1.511.721 2.327.892 1.86.389 3.734.732 5.654.605a.625.625 0 01.04-.001h.038c.095.003.191.005.255-.095-.86-2.559-.852-2.636.548-4.92zm25.3-31.08c1.417-.449 2.712-1.142 3.66-2.343.806.763.717 1.59-.227 2.07-1.465.774-2.981 1.437-4.497 2.1h-.003c-.438.192-.874.383-1.31.576-.46.205-.922.403-1.384.6-1.2.514-2.402 1.029-3.553 1.659-1.666.912-3.2 2.007-4.69 3.166-2.733 2.132-5.767 3.722-8.936 5.086-.325.142-.647.283-.926.506-.265.215-.403.505-.191.806.198.282.51.247.785.084l.097-.056c.245-.144.496-.29.702-.48.47-.443 1.033-.69 1.627-.916a27.277 27.277 0 007.182-4.072 35.604 35.604 0 019.149-5.241 57.074 57.074 0 006.26-2.905c.05-.028.104-.048.17-.072.036-.013.075-.027.12-.045.14.495.098.933-.185 1.332-.428.601-.901 1.163-1.489 1.623-3.157 2.48-6.588 4.478-10.34 5.934-3.943 1.53-7.684 3.477-11.253 5.75l-.026.017c-1.339.853-2.675 1.705-4.15 2.309-.888.36-1.874-.078-2.122-1.004-.258-.968-.24-1.912.439-2.746.181-.222.35-.453.52-.684.084-.115.168-.23.254-.345a.924.924 0 01.435-.325c2.26-.834 4.205-2.205 6.118-3.623 2.164-1.604 4.477-2.965 6.868-4.195 3.511-1.806 7.125-3.371 10.895-4.566zm4.271 2.838c-.923 1.19-2.143 2.03-3.361 2.87-.22.152-.439.303-.656.456-2.55 1.792-5.34 3.124-8.247 4.245-2.26.872-4.449 1.919-6.592 3.06-1.196.639-2.347 1.351-3.498 2.063-.988.611-1.976 1.222-2.991 1.786l-.204.113c-1.149.636-2.259 1.25-2.88 2.488a.14.14 0 01-.028.036c-.856.731-.905 1.636-.601 2.636.233.77.707 1.142 1.517 1.11 2.065-.078 3.918-.69 5.59-1.955a270.51 270.51 0 018.283-5.987c2.826-1.972 5.828-3.59 9.152-4.545 1.447-.413 2.886-.84 4.272-1.435a4.39 4.39 0 00.874-.505c.909-.668.778-1.562.29-2.36-.114-.185-.244-.241-.45-.082-1.372 1.056-2.974 1.664-4.586 2.202-4.159 1.385-8.052 3.195-11.327 6.216-1.298 1.199-2.74 2.284-4.463 2.877-.976.336-1.91.753-2.748 1.372-.104.078-.244.115-.375.15l-.05.012c-.12.032-.26.021-.335-.092-.082-.123-.053-.272.035-.388.081-.11.17-.22.273-.308.597-.516 1.244-.95 1.998-1.205 1.124-.385 2.192-.877 3.133-1.619.263-.207.529-.41.795-.614v-.001h.001v-.001h.001c.61-.468 1.22-.936 1.798-1.444 2.15-1.891 4.527-3.421 7.204-4.457.71-.274 1.427-.533 2.144-.792h.001c.568-.205 1.135-.41 1.7-.622l.36-.135c1.458-.545 2.92-1.092 4.159-2.091 1.085-.866 1.007-2.266-.188-3.054zm-26.22 5.218c-.19.26-.193.265-.21.61.227.027.382-.115.534-.253l.024-.023c1.098-.956 2.234-1.864 3.37-2.772l.435-.348c1.8-1.442 3.777-2.563 5.91-3.432l1.721-.7h.001c1.7-.69 3.4-1.38 5.088-2.096 2.533-1.07 4.987-2.3 7.324-3.753.117-.07.234-.142.35-.209.747.834.609 1.873-.35 2.626-.841.661-1.803 1.114-2.808 1.453a71.99 71.99 0 00-10.549 4.563c-2.896 1.526-5.7 3.195-8.324 5.16-1.637 1.226-3.374 2.297-5.379 2.845-.622.173-1.245.293-1.888.017-.552-.236-.85-.646-.93-1.215-.107-.753.077-1.46.42-2.132.082-.159.191-.265.382-.293 2.172-.307 4.021-1.336 5.8-2.548 1.426-.974 2.798-2.018 4.171-3.062.63-.48 1.26-.958 1.894-1.43 3.423-2.545 7.115-4.573 11.054-6.189 1.337-.544 2.66-1.116 3.972-1.717 1.004-.46 1.99-.965 2.68-2 .262.773.35 1.477.28 2.198-.023.233-.206.369-.38.498l-.037.028c-.551.41-1.144.748-1.737 1.087l-.22.125a61.93 61.93 0 01-7.906 3.825 135.9 135.9 0 00-2.857 1.184l-.002.001c-.69.292-1.378.584-2.071.868-2.514 1.028-4.728 2.523-6.804 4.252l-.44.362c-.91.745-1.816 1.488-2.51 2.458l-.008.012zm.009-5.96c-.198-.304-.085-.537.063-.76.534-.785 1.22-1.42 2.002-1.944 3.72-2.499 7.663-4.563 11.808-6.273 3.115-1.287 6.079-2.852 8.675-5.054.657-.559 1.103-1.149 1.216-2.004a5.86 5.86 0 01.098-.5c.079-.346.157-.693.107-1.062-.552 1.145-1.464 1.972-2.412 2.742-2.468 2.004-5.188 3.595-8.105 4.867-2.282.994-4.62 1.844-6.956 2.694h-.003v.001h-.002l-.001.001c-.646.235-1.291.47-1.936.707-1.976.732-3.91 1.538-5.732 2.605-1.453.852-2.822 1.774-3.724 3.273-1.032 1.71-.81 3.474.665 4.817.315.286.619.336 1.008.195.83-.297 1.588-.732 2.327-1.199 1.566-.99 3.05-2.097 4.533-3.205a100.391 100.391 0 013.218-2.336c2.19-1.506 4.382-3.008 6.808-4.114 2.246-1.029 4.512-2.015 6.829-2.877.792-.293 1.552-.66 2.27-1.113a3.44 3.44 0 001.11-1.145c.489-.796.407-1.478-.261-2.17l-.099.075c-.063.047-.126.095-.184.15-2.617 2.425-5.715 4.086-8.958 5.461a81.034 81.034 0 00-9.877 5.03c-1.248.745-2.479 1.537-3.536 2.558-.258.251-.548.491-.951.58zm26.172 8.821c.746-.286 1.358-.752 1.942-1.35.491.845.396 1.195-.403 1.584-.917.446-1.875.803-2.83 1.159l-.152.056c-2.2.82-4.218 1.983-6.21 3.199-1.551.948-3.036 1.992-4.521 3.036l-.327.23c-.502.35-1.011.703-1.556.979-1.285.65-2.486 1.436-3.687 2.222-.994.65-1.988 1.301-3.028 1.874l-.685.378c-.753.414-1.506.828-2.254 1.251-.676.385-.987.817-1.054 1.481.64-.389 1.248-.742 1.895-1.028 2.136-.948 4.184-2.057 6.087-3.425.162-.117.328-.23.505-.322 2.18-1.115 4.208-2.473 6.235-3.83a119.667 119.667 0 013.193-2.09 39.066 39.066 0 017.349-3.587c.387-.142.77-.303 1.152-.464.168-.07.337-.142.506-.211.23.463.18.781-.205 1.082a6.91 6.91 0 01-1.923 1.07c-2.469.888-4.527 2.368-6.302 4.27a7.635 7.635 0 01-1.864 1.477c-.66.368-1.305.76-1.95 1.153-.364.222-.728.443-1.095.66-1.44.852-2.999 1.481-4.59 1.997-2.026.657-3.844 1.675-5.584 2.877-1.347.933-2.723 1.838-4.208 2.548a6.717 6.717 0 01-2.196.643c-.626.064-1.001-.173-1.153-.788-.393-1.597-.074-3.007 1.156-4.163.152-.142.326-.16.51-.17 2.22-.123 4.176-.876 5.98-2.22 3.023-2.254 6.068-4.488 9.201-6.594a27.29 27.29 0 017.992-3.687c1.38-.381 2.741-.78 4.074-1.297zM46.51 5.078c-.166-.079-.327-.157-.485-.235-.37-.18-.724-.353-1.086-.514-.154-.07-.275-.13-.372-.178-.191-.095-.29-.144-.378-.129-.094.017-.175.109-.344.3-.073.083-.161.183-.274.304-1.107 1.184-1.55 2.577-1.432 4.17.07.951.46 1.704 1.294 2.202.185.11.368.226.551.342.362.229.725.458 1.108.648 1.273.636 2.613.852 4.017.505 2.037-.502 3.869-1.449 5.63-2.555.59-.371 1.124-.827 1.69-1.368-.848-.273-1.684-.48-2.507-.684-.539-.134-1.072-.266-1.599-.415-.045.105-.085.203-.124.298a5.655 5.655 0 01-.23.515c-.36.693-.749.87-1.467.576-.428-.174-.86-.337-1.294-.5-1.016-.38-2.033-.762-2.985-1.295-.537-.3-.64-.63-.293-1.16.094-.137.191-.274.294-.42l.001-.002h.001V5.48l.284-.402zM32.159 41.853c-.562 1.442-1.018 2.862-.8 4.47-.664-.123-1.244-.339-1.753-.667-.326-.206-.425-.647-.425-1.025-.007-1.167.35-2.259.785-3.33.075-.176.198-.208.372-.141.392.15.785.3 1.185.451h.001l.635.242zm-4.427-1.595h-.001c-.185-.053-.369-.106-.551-.162-.223-.067-.326.05-.382.223-.304.919-.587 1.845-.573 2.824.003.374.01.865.304 1.07.363.255.777.439 1.205.629.19.084.382.169.574.262-.067-1.58.35-2.962.99-4.308-.517-.238-1.044-.388-1.566-.538zm8.3 2.298h1.665c-1.425 1.555-1.411 3.191-.502 4.948-.028.089-.112.07-.192.054-.022-.005-.043-.01-.063-.012a26.361 26.361 0 01-1.184-.141c-.718-.102-1.09-.505-1.083-1.24.014-1.223.464-2.33 1.03-3.393.07-.131.176-.216.328-.216zm-9.93-2.792l-.554-.148c-.365-.097-.712-.19-1.056-.287-.22-.06-.357.039-.463.205-.587.94-.898 1.94-.68 3.06l.005.02.005.025c.023.124.046.245.182.299.343.136.688.271 1.05.413l.007.003h.001l.791.312c-.154-.661-.041-1.22.07-1.77l.047-.238c.12-.632.318-1.24.594-1.894zm6.33 6.708c-.27-.926.08-3.404.622-4.33l.06.016c.53.14 1.07.284 1.704.349-.753 1.449-1.474 2.862-1.018 4.552-.424-.004-.806-.145-1.185-.287-.114-.042-.141-.144-.168-.245l-.016-.055zm-18.203-6.277l.001-.075c.003-.497.006-.921.127-1.332.127-.441.318-.855.559-1.286a29.276 29.276 0 00-.458-.245c-.316-.168-.626-.332-.918-.518-.28-.18-.431-.103-.612.12-.644.791-.753 1.682-.53 2.647.028.117.078.194.194.226l.671.19h.004l.963.273zm7.75-1.295c.41.048.83.098 1.272.231-.637 1.05-.916 2.142-.828 3.379-.426-.09-.802-.239-1.172-.385l-.281-.11c-.133-.051-.165-.177-.196-.301l-.01-.035c-.254-.947.05-1.81.422-2.657.063-.145.183-.202.336-.18.151.022.303.04.457.058zm-10.538-3.45c-.093-.046-.186-.092-.277-.14-.273-.14-.446-.095-.605.174-.34.576-.598 1.177-.7 1.838-.16 1.018.587 1.922 1.662 2-.255-1.212-.022-2.311.845-3.308-.285-.25-.606-.407-.925-.564zm-3.078-1.03c.491.117.976.244 1.489.449-.57 1.057-.98 2.103-.76 3.343l-.024-.008c-.507-.173-.982-.336-1.292-.653-.343-.35-.47-.894-.4-1.406.074-.53.276-1.032.541-1.506.106-.184.226-.272.446-.219zm11.9 4.344c-.655-.043-1.277-.085-1.896-.128-.134-.01-.251.022-.293.16a13.43 13.43 0 01-.14.407c-.167.468-.333.936-.317 1.448l.001.042c.001.137.003.298.176.34.686.166 1.365.36 2.1.629-.245-.934.003-1.726.256-2.532l.113-.366zM6.798 34.079l.281.083c-.393.898-.743 1.742-.492 2.785a21.845 21.845 0 00-.49-.228c-.37-.168-.71-.322-1.016-.525-.29-.19-.297-.58-.29-.919.003-.118.036-.239.068-.356l.013-.047c.287-1.063.524-1.198 1.556-.9.121.033.241.069.37.107zm44.677-26.87c-1.277-.371-2.478-.95-3.678-1.53l-.269-.13c-.148-.071-.269-.057-.357.08-.043.065-.092.125-.141.185-.115.14-.23.283-.273.48.1.053.191.106.28.16.591.335 1.23.554 1.868.773.404.139.808.277 1.201.446.82.35.824.35 1.355-.357l.002-.017a.745.745 0 01.012-.09zM15.782 37.892c.467.226.93.413 1.453.572-.272.764-.48 1.481-.42 2.28-.512-.013-.975-.144-1.434-.273l-.098-.028c-.187-.053-.198-.208-.201-.367-.029-.795.269-1.485.7-2.184z" clip-rule="evenodd"/>
  <path fill="#008367" d="M25.925 19.843c.452-.058.904-.11 1.353-.175 1.605-.231 3.177-.06 4.729.395.364.106.435.373.318.707-.138.384-.406.67-.717.911-.948.736-2.026.952-3.178.838-1.4-.139-2.739-.549-4.053-1.043-.52-.194-.887-.128-1.248.33-.438.552-.912 1.069-1.195 1.739-.113.263-.29.538-.625.432-.329-.107-.322-.429-.3-.722a1.81 1.81 0 01.286-.893c1.099-1.666 2.463-3.02 4.322-3.705 1.021-.373 1.491-1.153 1.778-2.112A20.271 20.271 0 0128.844 13c.106-.21.247-.403.385-.593.385-.528.845-.55 1.251-.03.47.597.491 1.315.414 2.04-.131 1.208-.428 2.343-1.35 3.232 1.222-.245 2.47-.293 3.583-.882.484-.256.725-.813 1.015-1.274.49-.791 1.148-1.406 1.848-1.973.693-.564 1.516-.74 2.39-.674.635.048 1.254-.011 1.851-.26.269-.11.569-.172.721.168.148.333-.07.542-.336.678-.41.212-.689.553-.81.992-.49 1.816-1.59 2.94-3.37 3.405-.57.15-1.117.347-1.708.285-.413-.044-.78.22-1.173.183-1.901-.183-3.683.546-5.528.784-.738.095-1.434.388-2.102.761z"/>
  <path fill="#008367" d="M35.156 58c-.55.014-1.16-.53-1.156-1.035 0-.513.425-.961.918-.965.56-.004 1.06.473 1.081 1.035.018.509-.368.95-.843.965z"/>
  <path fill="#008367" d="M29 55.028c-.005.53-.242.99-.504.971-.273-.018-.505-.52-.496-1.064.01-.544.22-.957.474-.934.282.023.53.511.526 1.027z"/>
  <path fill="#008367" d="M10.532 49c-.3-.014-.54-.497-.532-1.07.008-.541.215-.947.478-.93.248.019.54.718.521 1.255-.01.42-.222.754-.467.745z"/>
  <path fill="#008367" d="M20 52.155c.006-.65.272-1.178.584-1.154.286.024.446.48.411 1.183-.023.452-.291.84-.566.815-.263-.024-.432-.363-.429-.844z"/>
  <path fill="#008367" d="M2.998 45.408c-.026.41-.192.604-.502.591-.281-.01-.518-.254-.494-.516.023-.257.313-.488.609-.483.272.007.405.146.387.408z"/>
  <path fill="#008367" d="M40.401 43.539c-.026.072-.075.202-.125.332-.23.588-.106 1.01.417 1.4.167.126.383.234.28.483-.094.228-.333.238-.541.246-.425.01-.743-.206-1.012-.498-.599-.657-.55-1.84.098-2.335.19-.144.398-.224.637-.12.178.087.25.239.246.492z"/>
  <path fill="#008367" d="M43 51.767c-.78.55-2.313.03-2.757-.57-.476-.644-.23-1.686.538-2.097.214-.112.436-.145.65-.02.217.132.226.319.156.52-.009.026-.029.053-.041.08-.481.974-.341 1.266.821 1.741.16.065.32.126.477.2.053.03.09.088.156.146z"/>
  <path fill="#008367" d="M39.445 40c-.836.013-1.504-.663-1.44-1.408.024-.289.113-.564.428-.59.321-.027.394.242.422.517.038.358.265.546.552.686.05.023.1.04.148.07.177.102.495.099.438.403-.053.309-.36.289-.548.322z"/>
  <path fill="#008367" d="M37.003 32.698a3.165 3.165 0 01.234-1.314c.114-.28.289-.474.561-.342.25.124.276.388.219.679-.054.275-.127.55-.159.833-.063.62.162 1.125.609 1.415.085.055.174.097.26.152.186.116.322.283.256.558-.073.299-.279.341-.497.314-.767-.097-1.41-.934-1.483-1.939-.007-.12 0-.24 0-.356z"/>
  <path fill="#008367" d="M40 62.145c-.003-.327.035-.64.223-.898.155-.208.346-.317.578-.197.225.12.278.352.214.61-.17.704.135 1.127.58 1.475.097.074.203.138.282.233.196.232.152.44-.091.567a.643.643 0 01-.334.063c-.757-.052-1.455-.947-1.452-1.853z"/>
  <path fill="#008367" d="M42.99 61.984c.007.01.01.021.018.032.017-.032.01-.039-.025-.014l.007-.018z"/>
  <path fill="#008367" d="M42 57.906c-.517.248-1.29-.016-1.68-.553-.361-.497-.43-1.318-.137-1.884.176-.342.417-.586.78-.41.35.17.303.524.2.854-.132.419-.035.744.22 1.053.224.277.458.554.617.94z"/>
  <path fill="#008367" d="M4.002 35.018l-.01-.036.017.025-.007.01z"/>
</svg>
