<svg xmlns="http://www.w3.org/2000/svg" width="73" height="73" fill="none" viewBox="0 0 73 73">
  <path fill="#008367" fill-rule="evenodd" d="M72.136 45.119c.574-2.702.69-5.442.772-8.165.315-3.293-.248-6.156-.655-8.229l-.004-.02c-.335-1.678-.924-3.283-1.513-4.887l-.287-.784c-1.56-4.307-4.019-8.058-7.194-11.345-2.123-2.198-4.5-4.117-7.017-5.857a69.489 69.489 0 01-.783-.552c-.904-.642-1.809-1.286-2.81-1.773-1.787-.87-3.658-1.536-5.568-2.064-4.39-1.215-8.849-1.74-13.41-1.275-4.316.444-8.49 1.384-12.4 3.314-2.732 1.35-5.397 2.808-7.75 4.766a47.818 47.818 0 00-5.631 5.495c-3.143 3.624-5.167 7.809-6.468 12.373l-.06.208c-.141.498-.284.998-.468 1.483l-.062.164c-.236.618-.473 1.237-.512 1.904l-.001.03c-.113 1.945-.226 3.886-.3 5.83-.096 2.501.28 4.967.673 7.43.532 3.32 1.556 6.477 3.144 9.456 1.736 3.262 3.916 6.192 6.485 8.845l.242.25c1.698 1.756 3.397 3.515 5.474 4.84 4.402 2.803 9.168 4.73 14.31 5.688l.763.144c1.68.32 3.367.643 5.085.61 3.185-.06 6.371-.18 9.465-1.085l.6-.175c1.85-.537 3.705-1.074 5.439-1.942.535-.268 1.076-.52 1.618-.774.355-.165.71-.331 1.065-.501a15.927 15.927 0 003.38-2.166c1.506-1.265 2.92-2.621 4.334-3.984 2.584-2.497 4.912-5.164 6.564-8.394 1.456-2.846 2.81-5.713 3.48-8.858zm-43.42-1.008l-.017.004.032.007-.018-.007.002-.004zm0 0c.47-.13.895-.358 1.33-.592a9.505 9.505 0 011.02-.496 11.436 11.436 0 01-1.265-1.324c-.389.858-.74 1.635-1.086 2.412zm8.3-15.487c-4.277-.215-7.832 3.117-8.097 7.277-.277 4.294 3.08 8.02 7.534 8.196 4.557.184 7.839-3.398 8.07-7.368.24-4.213-3.077-7.826-7.507-8.105zm-15.51-4.719l-.003-.002-11.94-5.648c2.44-3.512 5.545-6.249 9.086-8.602 1.332 2.68 2.66 5.347 3.984 8.007l.01.02.014.029c1.441 2.897 2.88 5.786 4.316 8.675l-.032.039-.032.039-5.402-2.557zm25.412 8.816v.07c.17 0 .339 0 .508-.002h.002c.396-.002.79-.004 1.187.006.28.007.521-.064.759-.215a397.11 397.11 0 013.278-2.11c1.17-.746 2.338-1.498 3.505-2.25 3.203-2.061 6.407-4.124 9.685-6.073.262-.155.322-.271.166-.553-.408-.729-.886-1.41-1.363-2.092l-.001-.001V19.5h-.001v-.002c-.201-.286-.402-.573-.598-.863-.135-.197-.259-.155-.425-.063-.556.31-1.113.616-1.673.916-5.064 2.701-10.17 5.318-15.291 7.91a1.409 1.409 0 00-.645.638c-.102.193-.201.387-.301.58-.332.647-.664 1.295-1.067 1.896-.472.705-.496 1.307.01 1.973.128.165.224.25.436.243.457-.01.914-.01 1.372-.008h.457zm-23.751 7.285l-.007.004c-5.34 3.467-10.679 6.933-16.082 10.438-1.524-3.726-2.665-7.481-2.778-11.55l9.067.487.02.001.02.001.018.001.019.001.034.002 9.66.519c.015.031.025.06.036.091l-.007.005zM39.39 68.429c.17.056.305.03.44.003l.032-.006.02-.004c1.836-.341 3.672-.69 5.493-1.099 1.673-.377 3.328-.81 4.898-1.518l.052-.023.044-.02c.275-.122.553-.246.8-.46-2.227-3.113-4.404-6.25-6.582-9.389v-.001h-.001v-.001l-.001-.001v-.001h-.001v-.001h-.001v-.002h-.001v-.001h-.001v-.001c-1.358-1.957-2.715-3.913-4.086-5.865l-.172 3.14v.02l-.001.005V53.218l-.001.004v.012c-.277 5.07-.553 10.136-.931 15.195zM50.75 7.842l.242-.404c.517.317 1.048.585 1.574.851.715.361 1.42.718 2.07 1.185l-.455.844-.002.003v.001l-.001.002-.001.001-.001.003c-.246.454-.488.902-.724 1.354a11801.65 11801.65 0 00-7.722 14.8c-.146.275-.33.473-.606.62-.805.426-1.603.86-2.402 1.294l-.919.5a.327.327 0 00-.042.028c-.024.02-.047.037-.068.035-.281-.031-.513-.171-.744-.31a2.609 2.609 0 00-.503-.257c-.177-.059-.175-.207-.173-.348v-.085c-.014-.271-.026-.543-.037-.814v-.005a58.699 58.699 0 00-.095-1.795c-.028-.416.074-.757.294-1.11 1.213-1.93 2.438-3.853 3.663-5.776 2.055-3.225 4.108-6.449 6.104-9.707l.548-.91zm-24.306 38.63l-7.004 3.675-.014.007-.067.035-.082.043-9.454 4.96c2.268 3.283 4.774 6.235 8.36 8.151 1.263-2.737 2.621-5.423 3.983-8.116 1.46-2.886 2.923-5.78 4.278-8.755zm6.51 3.656c.347 6.185.688 12.278 1.028 18.4-2.484.264-9.264-1.384-11.411-2.762 1.57-2.364 3.14-4.728 4.714-7.101l.011-.016.002-.003 5.656-8.518zm-10.362-17.58L7.103 22.51c-1.425 2.11-3.115 8.756-2.867 11.306 2.648-.203 5.298-.369 7.95-.534 3.464-.216 6.933-.433 10.407-.734zm42.842 17.886l.28.17a50.336 50.336 0 01-1.922 3.233c-.132.2-.268.12-.396.043l-.032-.018a2004.567 2004.567 0 01-3.154-1.587l-3.108-1.563-2.235-1.119c-2.731-1.368-5.461-2.735-8.198-4.094a1.48 1.48 0 01-.723-.722c-.557-1.137-1.12-2.275-1.747-3.378-.21-.373.11-.919.542-.93a51.923 51.923 0 003.774-.204c.323-.031.57.088.83.25l2.74 1.717.006.004c4.27 2.676 8.539 5.353 12.878 7.92.15.087.3.178.465.278zM36.212 68.69c.488.027.902.002 1.288-.021.217-.013.425-.026.633-.028.407-.008.545-.12.563-.553.124-3.389.266-6.78.432-10.166.107-2.172.236-4.345.364-6.517l.136-2.334a1.014 1.014 0 00-.184-.673c-.44-.618-.875-1.24-1.31-1.86v-.001h-.001v-.001l-.001-.001v-.001h-.001v-.001h-.001v-.001l-.001-.001-.002-.002c-.298-.427-.597-.854-.898-1.28-.223-.313-1.028-.296-1.205.032-.495.91-1.07 1.77-1.643 2.63v.001h-.001v.001l-.248.372c-.139.208-.217.416-.195.673.046.645.085 1.293.117 1.937.061 1.252.124 2.502.187 3.753v.008c.124 2.471.248 4.943.365 7.416.1 2.067.185 4.135.26 6.202.01.31.127.43.428.423.286-.011.575-.01.775-.008H36.212zM9.342 54.414c-.652-.983-1.215-2.032-1.736-3.085.06-.13.16-.186.255-.24.027-.014.053-.03.078-.046l6.924-4.51c3.222-2.099 6.443-4.197 9.661-6.296.262-.169.521-.257.833-.24l.435.025h.001c.929.054 1.858.108 2.789.078.188-.007.287.067.361.225.085.18.178.352.287.518.103.151.082.271-.01.423a38.867 38.867 0 00-1.74 3.286 1.221 1.221 0 01-.567.595c-3.418 1.761-6.805 3.578-10.192 5.395h-.002v.001h-.002v.001c-2.316 1.242-4.631 2.484-6.956 3.708a1.596 1.596 0 00-.086.049c-.094.055-.191.113-.333.113zm29.755-49.98l.48 9.309.001.016.002.038.003.05.46 8.913.02.005c.03.01.06.018.09.03.857-1.343 1.71-2.689 2.564-4.035 2.47-3.893 4.946-7.797 7.532-11.688-3.682-1.205-7.318-2.272-11.153-2.639zM7.549 21.783a2.883 2.883 0 00-.092-.078l1.006-1.684.564-.943c.1-.168.226-.106.353-.044l.012.005.472.23h.003c.235.116.471.23.709.344l2.326 1.112h.002v.002h.004v.001l.002.001h.001l.002.001h.001l.001.002h.002l.002.001h.002v.001l.005.002.002.001.002.001.001.001.004.002h.001c4.762 2.276 9.523 4.552 14.289 6.822.311.148.52.349.673.655a133.491 133.491 0 001.552 3.001c.092.173.075.285 0 .462-.248.584-.602.789-1.283.729-.918-.08-1.842-.007-2.764.067-.21.017-.418.034-.627.049-.262.017-.496-.004-.727-.152A1663.034 1663.034 0 007.634 21.851c-.027-.017-.051-.038-.085-.067zm-3.55 14.12c.002.472.05.94.097 1.41.017.161.033.324.048.486.02.232.117.306.343.317 1.953.08 3.906.169 5.855.264 1.43.067 2.859.138 4.288.208h.005l2.2.109c2.473.12 4.95.243 7.424.366.251.014.467-.039.68-.18.544-.352 1.09-.702 1.635-1.051h.001c.418-.268.836-.536 1.252-.805.284-.183.312-1.067.028-1.222-.886-.482-1.734-1.022-2.582-1.563h-.001v-.001h-.001c-.343-.219-.685-.437-1.03-.651-.145-.092-.294-.159-.475-.145-.423.028-.848.055-1.272.081h-.002c-.424.027-.848.053-1.27.081l-3.13.208c-1.754.117-3.509.235-5.262.345-1.272.08-2.544.157-3.815.233-1.286.077-2.573.154-3.858.236-1.162.073-1.162.088-1.159 1.264v.01zm43.034 10.833l.013-.011.028-.026 16.12 7.936-.082.105c-.724.924-1.418 1.807-2.2 2.621-.545.57-1.088 1.142-1.57 1.772-1.148 1.504-2.505 2.779-4.217 3.712-1.355-2.675-2.708-5.35-4.06-8.024l-4.073-8.048.041-.037zm19.124 2.933c1.538-3.494 2.97-6.999 3.059-10.926-4.633.428-9.255.738-13.92 1.05-1.51.102-3.024.203-4.544.31l2.913 1.809c4.185 2.6 8.319 5.168 12.492 7.757zM19.515 9.505c-.05-.089-.105-.183-.09-.324a44.78 44.78 0 012.633-1.585c.227-.124.31.008.397.146l.028.045c.546.82 1.088 1.644 1.63 2.469l1.327 2.014c2.35 3.565 4.699 7.13 7.058 10.69.23.35.326.69.294 1.106-.11 1.445-.177 2.896-.124 4.343.009.265-.127.357-.281.46a2.309 2.309 0 00-.098.069c-.195.148-.337.088-.532-.014-1.013-.536-2.03-1.06-3.055-1.571a1.2 1.2 0 01-.577-.582c-2.857-5.737-5.716-11.472-8.576-17.206-.01-.02-.022-.04-.034-.06zm39.82 24.49l-3.125-.115c-2.084-.077-4.168-.153-6.252-.233a1.345 1.345 0 00-.8.211l-.53.332h-.001a52.462 52.462 0 01-2.44 1.472c-.47.26-.726.55-.68 1.102.018.218.036.352.256.462 1.038.517 2.034 1.113 3.019 1.722.266.166.528.236.843.211l.873-.066h.001c2.037-.154 4.074-.309 6.111-.445 1.055-.07 2.11-.146 3.165-.222H59.789c3.062-.22 6.124-.438 9.194-.556.266-.01.375-.102.379-.373.01-.93.01-1.856-.046-2.786-.018-.268-.117-.363-.386-.37-3.085-.051-6.16-.19-9.237-.33h-.001l-.356-.015zM66.47 22.7c1.017 1.324 2.775 8.365 2.683 10.764-6.078-.204-12.127-.405-18.177-.606l-.003-.012-.004-.015-.01-.033-.018-.06a954.102 954.102 0 015.04-3.223c3.517-2.24 7.035-4.48 10.49-6.815zM21.75 65.393l.073-.104c.063-.088.116-.164.165-.241.36-.564.717-1.129 1.075-1.694v-.001l.001-.001v-.001h.001v-.001c.735-1.16 1.47-2.322 2.222-3.473 2.417-3.695 4.848-7.379 7.283-11.06.212-.32.305-.634.276-1.025-.067-.954-.134-1.912-.11-2.867.018-.613-.16-1.004-.737-1.24-.191-.077-.315-.102-.5.004-1.02.578-2.048 1.148-3.086 1.694-.344.183-.57.42-.737.768-.944 1.972-1.92 3.93-2.897 5.886-1.132 2.267-2.263 4.534-3.344 6.826-.502 1.067-1.046 2.114-1.59 3.162h-.001c-.255.492-.51.983-.762 1.477a1.29 1.29 0 01-.042.072c-.076.129-.154.259.063.389.85.51 1.712.993 2.647 1.43zm1.262-58.304c3.402-1.965 7.105-2.635 11.036-2.941-.582 5.823-.866 11.584-1.15 17.345l-.02.397a.984.984 0 01-.055.019c-.018.006-.037.012-.055.02-3.246-4.935-6.492-9.873-9.756-14.84zM52.434 23.23c3.62-1.87 7.239-3.74 10.91-5.553l-.314-.4c-2.204-2.813-4.377-5.587-7.635-7.278a648.232 648.232 0 01-4.152 8.074 668.387 668.387 0 00-4.038 7.85c1.744-.892 3.482-1.79 5.22-2.688l.002-.001v-.001h.002l.001-.001h.001l.001-.001h.002zm.824 40.946c-.441.282-.887.567-1.368.826l-.084-.108c-.07-.092-.127-.163-.178-.24-2.86-4.235-5.81-8.402-8.76-12.57l-.002-.003-.002-.003-.002-.003c-.69-.974-1.38-1.948-2.068-2.923a1.311 1.311 0 01-.255-.86c.016-.383.04-.767.062-1.15v-.001c.057-.95.114-1.9.069-2.853-.014-.275.585-.62.826-.472.85.526 1.746.967 2.642 1.407h.001v.001c.41.202.82.404 1.227.614.202.105.322.26.421.454.683 1.352 1.364 2.706 2.045 4.06 2.124 4.222 4.248 8.445 6.436 12.635.17.324.134.483-.178.67-.28.167-.555.342-.832.519zM37.342 27.62c.36-.909.861-1.725 1.361-2.538l.202-.329a1.26 1.26 0 00.21-.753c-.105-2.132-.2-4.266-.294-6.398l-.004-.094c-.064-1.466-.142-2.93-.22-4.396-.148-2.805-.297-5.61-.344-8.422-.007-.317-.12-.405-.414-.433-.487-.046-.974-.057-1.461-.067a26.655 26.655 0 01-1.084-.038c-.361-.022-.45.116-.46.454-.019.789-.047 1.578-.075 2.367v.008c-.022.614-.043 1.229-.06 1.845-.11 3.758-.364 7.507-.618 11.256-.067.98-.134 1.961-.198 2.942a1.41 1.41 0 00.252.944l.34.513.002.002c.55.827 1.1 1.655 1.572 2.524.315.575.68.747 1.293.613zm-3.666-1.473l.108-1.168c.344.495.668.963.988 1.427l.002.002v.002l.006.007.879 1.27a1015.426 1015.426 0 00-2.183.613l.2-2.153zm-5.558 8.909c.149-.719.333-1.37.606-2.06-.614.11-1.204.164-1.801.218-.441.04-.887.08-1.35.144.832.553 1.578 1.052 2.352 1.57l.193.128zm16.096 9.222a965.92 965.92 0 00-2.172-1.033c.577-.437 1.03-.895 1.506-1.42.453.92.886 1.793 1.382 2.794l-.716-.341zm-6.294.7l1.701 2.476.085-.032c.067-.972.135-1.944.206-2.993-.656.264-1.297.401-1.992.549zm8.315-10.33l-.756.51c-.117-.62-.223-1.152-.425-1.747.877.043 1.694.087 2.511.13l.132.007c.011.029.022.06.032.092-.49.333-.982.664-1.494 1.009zM29.05 28.424l-.068.067.428.885.004.007.002.004c.222.46.447.926.683 1.411a9.3 9.3 0 011.378-1.313c-.708-.307-1.354-.59-1.99-.869l-.437-.192zm15.571 0l.089.078-.444.875-.002.004v.003c-.221.434-.44.866-.656 1.295l-.603-.642-.51-.542 1.162-.585.004-.002.96-.484zm.305 11.106l1.025-.097c.465-.044.933-.089 1.442-.135-.73-.497-1.343-.913-1.992-1.35-.11.362-.213.706-.322 1.071v.003l-.153.508zM33.76 45.725v-.002l-.07-1.171.1.026 1.342.354c-.41.605-.807 1.182-1.203 1.76l-.002.001-.06-.007a1.004 1.004 0 00-.05-.007c-.02-.315-.038-.63-.056-.948v-.006zm-5.276-6.418c-.083-.312-.157-.598-.231-.886v-.002c-.045-.168-.088-.338-.134-.514l-1.789 1.172v.001l.042.099c.684.039 1.367.08 2.112.13zm10.69-13.033l.055.015c.028.535.06 1.067.099 1.645-.32-.019-.614-.089-.923-.163-.103-.025-.207-.05-.314-.073.365-.504.705-.969 1.045-1.434l.038.01z" clip-rule="evenodd"/>
  <path fill="#008367" d="M37.841 37.09c.192-.157.307-.367.425-.566.606-1.01 1.425-1.687 2.58-1.847.186-.025.368-.085.553-.124.377-.078.586.096.6.526a2.608 2.608 0 01-.617 1.8c-.684.819-1.543 1.303-2.564 1.498-.838.16-.838.175-.93 1.09-.077.778-.346 1.486-.683 2.17-.095.188-.216.462-.482.327-.243-.121-.121-.374-.064-.57.202-.707.407-1.412.451-2.16.044-.746-.28-1.244-.973-1.422-.495-.125-1.004-.21-1.503-.328-1.091-.256-1.843-.95-2.3-2.017a7.024 7.024 0 00-.217-.459c-.114-.224-.181-.452-.026-.68.158-.23.394-.295.646-.266.421.053.816.203 1.17.445.667.451 1.334.903 1.846 1.572.239.31.593.477.953.676.06-.231-.05-.406-.108-.58a15.46 15.46 0 01-.781-3.736c-.064-.761.07-1.47.414-2.138.169-.324.323-.655.482-.985.185-.378.451-.424.73-.1.358.416.638.893.762 1.44.37 1.627.499 3.242-.407 4.744-.35.576-.236 1.113.043 1.69z"/>
</svg>
